{"glyphs":{"0":{"ha":853,"x_min":0,"x_max":0,"o":"m 574 931 b 315 824 474 931 386 894 b 93 247 186 694 93 456 b 350 -21 93 65 190 -21 b 607 86 450 -21 536 15 b 831 663 736 215 831 454 b 574 931 831 844 733 931 z m 397 751 b 567 828 444 800 501 828 b 711 656 656 828 711 775 l 711 638 l 224 372 b 397 751 247 510 310 665 z m 356 82 b 213 254 267 82 213 133 l 213 272 l 700 539 b 526 158 675 400 613 244 b 356 82 479 110 422 82 z "},"1":{"ha":853,"x_min":0,"x_max":0,"o":"m 67 0 l 643 0 l 672 100 l 426 100 l 724 922 l 678 922 l 325 758 l 290 636 l 547 757 l 306 100 l 94 100 z "},"2":{"ha":853,"x_min":0,"x_max":0,"o":"m 19 0 l 664 0 l 693 100 l 217 100 l 217 104 l 583 390 b 838 731 807 564 838 646 b 604 931 838 850 738 931 b 208 753 488 931 396 893 l 265 668 b 592 828 450 803 517 828 b 710 722 667 828 710 786 b 482 438 710 651 669 589 l 19 65 z "},"3":{"ha":853,"x_min":0,"x_max":0,"o":"m 236 810 l 660 810 l 660 806 l 299 499 l 301 443 b 611 311 564 440 611 396 b 226 104 611 214 519 125 l 51 93 l 31 -14 l 236 -1 b 739 325 599 21 739 146 b 476 528 739 443 668 513 l 476 532 l 853 844 l 853 910 l 265 910 z "},"4":{"ha":853,"x_min":0,"x_max":0,"o":"m 49 243 l 478 243 l 399 0 l 517 0 l 597 243 l 786 243 l 815 340 l 631 340 l 819 910 l 657 910 l 74 329 z m 681 819 l 517 332 l 196 332 l 196 338 z "},"5":{"ha":853,"x_min":0,"x_max":0,"o":"m 751 382 b 524 585 751 517 656 585 b 313 531 458 585 389 569 l 417 810 l 826 810 l 856 910 l 343 910 l 172 433 l 174 426 l 253 414 b 486 488 350 465 421 488 b 625 371 571 488 625 444 b 222 106 625 253 526 132 l 53 90 l 33 -14 l 226 1 b 751 382 608 35 751 186 z "},"6":{"ha":853,"x_min":0,"x_max":0,"o":"m 568 733 l 803 907 l 803 910 l 644 910 l 463 774 b 93 233 188 567 93 399 b 360 -21 93 68 201 -21 b 751 344 581 -21 751 163 b 411 604 751 489 660 576 b 568 733 454 644 507 688 z m 214 239 b 340 532 214 331 244 424 b 631 339 560 507 631 451 b 367 78 631 217 514 78 b 214 239 274 78 214 135 z "},"7":{"ha":853,"x_min":0,"x_max":0,"o":"m 261 0 l 888 819 l 903 910 l 251 910 l 221 806 l 742 806 l 742 799 l 117 3 l 117 0 z "},"8":{"ha":853,"x_min":0,"x_max":0,"o":"m 369 -21 b 731 267 567 -21 731 96 b 590 456 731 351 678 419 l 590 463 b 829 714 742 490 829 594 b 556 931 829 846 726 931 b 233 661 363 931 233 801 b 357 485 233 582 279 519 l 357 478 b 75 208 183 453 75 342 b 369 -21 75 63 194 -21 z m 347 640 b 556 835 347 750 439 835 b 710 708 650 835 710 786 b 492 511 710 607 608 511 b 347 640 407 511 347 561 z m 197 215 b 439 424 197 329 303 424 b 613 285 543 424 613 368 b 371 75 613 165 507 75 b 197 215 265 75 197 125 z "},"9":{"ha":853,"x_min":0,"x_max":0,"o":"m 369 175 l 133 1 l 133 -1 l 293 -1 l 475 135 b 843 675 749 343 843 510 b 576 929 843 842 736 929 b 185 564 356 929 185 747 b 528 306 185 421 278 333 b 369 175 483 264 432 221 z m 306 569 b 571 831 306 693 422 831 b 722 669 663 831 722 775 b 597 378 722 579 692 486 b 306 569 378 401 306 457 z "},"A":{"ha":853,"x_min":0,"x_max":0,"o":"m 93 0 l 242 247 l 579 247 l 588 0 l 706 0 l 668 910 l 521 910 l -36 0 z m 299 344 l 565 792 l 579 344 z "},"B":{"ha":853,"x_min":0,"x_max":0,"o":"m 300 910 l 39 0 l 382 0 b 767 271 653 0 767 122 b 586 461 767 367 706 436 l 586 467 b 867 732 793 511 867 617 b 626 910 867 836 790 910 z m 594 815 b 736 708 693 815 736 774 b 451 517 736 617 650 525 l 303 508 l 390 815 z m 442 417 b 644 278 585 411 644 356 b 407 94 644 182 567 94 l 185 94 l 279 424 z "},"C":{"ha":853,"x_min":0,"x_max":0,"o":"m 376 -21 b 731 104 486 -21 582 8 l 675 192 b 382 79 539 108 461 79 b 217 283 289 79 217 146 b 615 831 217 561 388 831 b 844 719 689 831 743 813 l 915 807 b 622 931 807 904 732 931 b 92 279 299 931 92 599 b 376 -21 92 82 192 -21 z "},"D":{"ha":853,"x_min":0,"x_max":0,"o":"m 297 910 l 36 0 l 146 0 b 682 182 397 0 569 71 b 843 586 789 290 843 431 b 763 808 843 682 815 756 b 424 910 700 871 590 910 z m 718 589 b 185 100 718 325 519 104 l 389 810 l 406 810 b 718 589 647 810 718 729 z "},"E":{"ha":853,"x_min":0,"x_max":0,"o":"m 304 910 l 43 0 l 660 0 l 689 100 l 193 100 l 282 410 l 693 410 l 722 510 l 310 510 l 396 810 l 883 810 l 913 910 z "},"F":{"ha":853,"x_min":0,"x_max":0,"o":"m 308 910 l 47 0 l 168 0 l 272 365 l 706 365 l 733 465 l 301 465 l 400 810 l 879 810 l 908 910 z "},"G":{"ha":853,"x_min":0,"x_max":0,"o":"m 851 807 l 874 908 b 708 922 804 919 758 922 b 82 310 290 922 82 618 b 435 -21 82 99 194 -21 b 664 11 507 -21 576 -14 l 813 490 l 479 490 l 453 393 l 668 393 l 574 93 b 449 79 529 83 485 79 b 207 311 282 79 207 156 b 703 821 207 579 375 821 b 851 807 754 821 793 818 z "},"H":{"ha":853,"x_min":0,"x_max":0,"o":"m 296 910 l 36 0 l 156 0 l 272 408 l 628 408 l 511 0 l 632 0 l 893 910 l 772 910 l 657 510 l 301 510 l 417 910 z "},"I":{"ha":853,"x_min":0,"x_max":0,"o":"m 108 60 l 90 0 l 579 0 l 596 60 l 413 90 l 636 815 l 821 850 l 839 910 l 349 910 l 332 850 l 517 819 l 293 94 z "},"J":{"ha":853,"x_min":0,"x_max":0,"o":"m 376 -17 b 699 261 554 -17 649 86 l 885 910 l 764 910 l 581 271 b 378 89 544 146 478 89 b 125 267 306 89 247 113 l 40 192 b 376 -17 175 24 261 -17 z "},"K":{"ha":853,"x_min":0,"x_max":0,"o":"m 421 910 l 300 910 l 40 0 l 161 0 l 289 446 l 583 0 l 728 0 l 728 3 l 429 453 l 974 907 l 974 910 l 813 910 l 296 471 z "},"L":{"ha":853,"x_min":0,"x_max":0,"o":"m 304 910 l 43 0 l 663 0 l 690 99 l 192 99 l 425 910 z "},"M":{"ha":853,"x_min":0,"x_max":0,"o":"m 899 910 l 757 910 l 460 456 l 422 910 l 293 910 l -6 0 l 107 0 l 349 757 l 390 249 l 419 249 l 758 771 l 560 0 l 674 0 z "},"N":{"ha":853,"x_min":0,"x_max":0,"o":"m 144 0 l 358 771 l 497 0 l 636 0 l 896 910 l 785 910 l 575 153 l 439 910 l 293 910 l 32 0 z "},"O":{"ha":853,"x_min":0,"x_max":0,"o":"m 565 931 b 114 507 354 931 186 757 b 82 281 89 418 82 347 b 365 -21 82 78 190 -21 b 817 403 576 -21 744 153 b 849 629 842 492 849 563 b 565 931 849 832 740 931 z m 372 79 b 206 279 271 79 206 142 b 239 499 206 340 215 417 b 558 831 296 697 413 831 b 725 631 660 831 725 768 b 692 411 725 569 715 493 b 372 79 635 213 518 79 z "},"P":{"ha":853,"x_min":0,"x_max":0,"o":"m 301 910 l 40 0 l 161 0 l 253 318 l 431 318 b 785 429 590 318 703 349 b 882 674 847 493 882 576 b 610 910 882 817 786 910 z m 583 810 b 751 675 700 810 751 761 b 442 417 751 514 640 417 l 281 417 l 393 810 z "},"Q":{"ha":853,"x_min":0,"x_max":0,"o":"m 717 -158 l 593 58 b 817 403 696 132 774 254 b 849 629 842 492 849 563 b 565 931 849 832 740 931 b 114 507 354 931 186 757 b 82 281 89 418 82 347 b 365 -17 82 81 190 -17 b 501 8 413 -17 458 -8 l 599 -215 z m 372 79 b 206 279 271 79 206 142 b 239 499 206 340 215 417 b 558 831 296 697 413 831 b 725 631 660 831 725 768 b 692 411 725 569 715 493 b 542 149 660 299 607 206 l 463 325 l 374 283 l 467 99 b 372 79 436 86 406 79 z "},"R":{"ha":853,"x_min":0,"x_max":0,"o":"m 715 6 l 588 228 b 456 383 535 321 504 351 l 456 390 b 860 710 744 410 860 526 b 608 910 860 829 775 910 l 300 910 l 40 0 l 160 0 l 265 368 b 449 238 363 364 393 338 l 578 0 l 714 0 z m 586 813 b 732 701 685 813 732 772 b 403 465 732 571 649 478 l 292 460 l 393 813 z "},"S":{"ha":853,"x_min":0,"x_max":0,"o":"m 406 85 b 79 178 299 85 192 124 l 36 76 b 407 -18 156 18 267 -18 b 739 250 610 -18 739 81 b 564 488 739 346 710 406 l 456 549 b 353 688 372 596 353 636 b 553 824 353 765 414 824 b 833 763 643 824 733 801 l 867 867 b 554 926 756 906 671 926 b 231 679 340 926 231 808 b 388 454 231 582 275 517 l 496 394 b 617 240 597 338 617 292 b 406 85 617 143 544 85 z "},"T":{"ha":853,"x_min":0,"x_max":0,"o":"m 206 810 l 501 810 l 269 0 l 390 0 l 622 810 l 917 810 l 946 910 l 235 910 z "},"U":{"ha":853,"x_min":0,"x_max":0,"o":"m 618 296 b 388 86 575 149 500 86 b 215 233 271 86 215 142 b 239 363 215 261 221 299 l 397 910 l 276 910 l 128 397 b 96 228 104 317 96 269 b 371 -21 96 60 203 -21 b 733 286 561 -21 672 71 l 914 910 l 794 910 z "},"V":{"ha":853,"x_min":0,"x_max":0,"o":"m 225 910 l 261 0 l 407 0 l 965 910 l 838 910 l 368 136 l 342 910 z "},"W":{"ha":853,"x_min":0,"x_max":0,"o":"m 574 0 l 957 910 l 836 910 l 539 168 l 557 738 l 524 738 l 225 185 l 347 910 l 233 910 l 94 0 l 215 0 l 469 483 l 449 0 z "},"X":{"ha":853,"x_min":0,"x_max":0,"o":"m -28 0 l 110 0 l 440 378 l 560 0 l 696 0 l 528 461 l 931 910 l 785 910 l 488 560 l 381 910 l 251 910 l 400 476 z "},"Y":{"ha":853,"x_min":0,"x_max":0,"o":"m 964 910 l 818 910 l 474 500 l 354 910 l 225 910 l 388 396 l 274 0 l 394 0 l 501 375 z "},"Z":{"ha":853,"x_min":0,"x_max":0,"o":"m 19 0 l 675 0 l 703 99 l 203 99 l 203 103 l 889 851 l 889 910 l 261 910 l 232 810 l 701 810 l 701 806 l 19 58 z "},"a":{"ha":853,"x_min":0,"x_max":0,"o":"m 636 175 l 729 436 b 743 517 739 467 743 493 b 506 657 743 610 668 657 b 239 633 422 657 343 650 l 211 533 b 472 560 328 551 422 560 b 624 486 582 560 624 536 b 613 433 624 472 621 458 l 600 397 l 399 379 b 114 297 218 364 158 342 b 44 124 67 251 44 182 b 193 -8 44 50 85 -8 b 497 89 299 -8 385 21 l 506 89 b 638 0 519 38 557 7 l 703 -7 l 731 86 l 675 94 b 625 128 640 100 625 106 b 636 175 625 139 628 153 z m 243 83 b 168 144 188 83 168 107 b 210 244 168 182 179 214 b 415 301 236 271 276 289 l 572 317 l 529 190 b 243 83 419 115 321 83 z "},"b":{"ha":853,"x_min":0,"x_max":0,"o":"m 439 986 l 319 986 l 50 51 b 321 -11 128 13 231 -11 b 788 417 610 -11 788 182 b 561 660 788 569 689 660 b 310 540 479 660 406 628 z m 526 560 b 663 404 606 560 663 503 b 325 88 663 257 554 88 b 186 113 271 88 225 97 l 276 424 b 526 560 403 538 458 560 z "},"c":{"ha":853,"x_min":0,"x_max":0,"o":"m 522 565 b 753 479 588 565 643 544 l 808 575 b 508 667 693 643 615 667 b 208 539 393 667 286 617 b 81 231 118 450 81 338 b 353 -21 81 71 186 -21 b 697 68 454 -21 553 -4 l 657 163 b 375 81 518 97 443 81 b 210 243 274 81 210 143 b 308 475 210 321 247 414 b 522 565 364 531 440 565 z "},"d":{"ha":853,"x_min":0,"x_max":0,"o":"m 540 0 l 633 0 l 915 986 l 797 986 l 697 636 b 540 660 644 653 593 660 b 67 232 247 660 67 467 b 288 -11 67 78 164 -11 b 553 114 374 -11 453 22 z m 192 243 b 540 560 192 390 304 560 b 668 536 585 560 628 553 l 578 224 b 324 88 450 108 392 88 b 192 243 247 88 192 146 z "},"e":{"ha":853,"x_min":0,"x_max":0,"o":"m 578 86 b 213 238 286 86 213 118 l 213 254 l 443 274 b 794 493 724 299 794 379 b 558 667 794 596 711 667 b 92 226 293 667 92 446 b 549 -10 92 56 181 -10 z m 551 571 b 674 486 631 571 674 533 b 440 356 674 429 629 375 l 229 335 b 551 571 274 468 407 571 z "},"f":{"ha":853,"x_min":0,"x_max":0,"o":"m 163 539 l 381 539 l 225 0 l 343 0 l 499 539 l 768 539 l 796 639 l 524 639 l 549 725 b 756 886 581 835 626 878 l 925 897 l 925 999 l 774 988 b 432 722 561 972 486 914 l 408 639 l 190 639 z "},"g":{"ha":853,"x_min":0,"x_max":0,"o":"m 529 50 b 175 -222 468 -160 400 -211 l 14 -231 l 14 -332 l 178 -322 b 647 43 483 -306 567 -239 l 804 596 b 540 660 715 639 629 660 b 67 261 249 660 67 478 b 293 22 67 111 167 22 b 557 146 379 22 458 56 z m 192 272 b 542 560 192 407 304 560 b 668 536 586 560 628 553 l 590 263 b 328 121 458 143 397 121 b 192 272 249 121 192 178 z "},"h":{"ha":853,"x_min":0,"x_max":0,"o":"m 442 986 l 324 986 l 40 0 l 158 0 l 250 319 b 574 547 461 522 511 547 b 644 485 617 547 644 526 b 631 408 644 469 643 450 l 513 0 l 632 0 l 751 413 b 772 522 767 468 772 500 b 622 656 772 606 713 656 b 290 461 529 656 465 626 z "},"i":{"ha":853,"x_min":0,"x_max":0,"o":"m 568 838 b 689 940 643 838 689 882 b 593 1014 689 988 656 1014 b 472 913 511 1014 472 963 b 568 838 472 863 511 838 z m 94 100 l 65 0 l 646 0 l 674 100 l 431 100 l 618 646 l 279 646 l 250 546 l 465 546 l 313 100 z "},"j":{"ha":853,"x_min":0,"x_max":0,"o":"m 650 838 b 771 940 725 838 771 883 b 675 1014 771 988 738 1014 b 554 913 593 1014 554 964 b 650 838 554 863 592 838 z m 499 24 l 678 646 l 264 646 l 235 546 l 531 546 l 385 36 b 63 -222 331 -153 278 -210 l -43 -228 l -43 -331 l 64 -324 b 499 24 356 -306 424 -242 z "},"k":{"ha":853,"x_min":0,"x_max":0,"o":"m 463 986 l 344 986 l 61 0 l 181 0 l 271 318 l 525 0 l 675 0 l 675 3 l 404 328 l 856 643 l 856 646 l 689 646 l 282 353 z "},"l":{"ha":853,"x_min":0,"x_max":0,"o":"m 319 353 b 278 171 289 268 278 217 b 489 -6 278 53 342 -1 l 642 -11 l 671 92 l 513 97 b 400 193 435 100 400 125 b 433 338 400 231 407 263 l 667 986 l 281 986 l 251 886 l 513 886 z "},"m":{"ha":853,"x_min":0,"x_max":0,"o":"m 256 646 l 167 646 l -19 0 l 89 0 l 196 375 b 389 540 321 521 358 540 b 424 507 411 540 424 531 b 414 461 424 496 421 482 l 283 0 l 388 0 l 494 375 b 686 540 618 521 656 540 b 721 507 708 540 721 531 b 713 461 721 496 718 482 l 581 0 l 689 0 l 839 519 b 847 576 844 542 847 560 b 760 657 847 626 817 657 b 521 458 701 657 639 617 l 518 458 l 538 525 b 546 578 543 544 546 563 b 460 657 546 628 514 657 b 218 461 404 657 338 617 l 215 461 z "},"n":{"ha":853,"x_min":0,"x_max":0,"o":"m 336 646 l 225 646 l 40 0 l 158 0 l 250 319 b 574 547 461 522 511 547 b 644 485 617 547 644 526 b 631 408 644 469 643 450 l 513 0 l 632 0 l 751 413 b 772 522 767 468 772 500 b 622 656 772 606 713 656 b 285 456 528 656 464 626 z "},"o":{"ha":853,"x_min":0,"x_max":0,"o":"m 494 667 b 72 261 249 667 72 472 b 358 -21 72 100 183 -21 b 781 385 604 -21 781 174 b 494 667 781 546 669 667 z m 375 78 b 194 264 269 78 194 154 b 479 569 194 422 324 569 b 658 383 583 569 658 492 b 375 78 658 224 529 78 z "},"p":{"ha":853,"x_min":0,"x_max":0,"o":"m -57 -319 l 63 -319 l 158 13 b 317 -11 206 -3 258 -11 b 786 417 606 -11 786 182 b 558 660 786 572 690 660 b 299 533 474 660 397 625 l 314 646 l 221 646 z m 522 560 b 661 404 603 560 661 503 b 319 88 661 257 550 88 b 188 114 268 88 224 97 l 276 426 b 522 560 401 538 457 560 z "},"q":{"ha":853,"x_min":0,"x_max":0,"o":"m 422 -319 l 542 -319 l 804 596 b 542 660 715 639 629 660 b 68 232 249 660 68 467 b 288 -11 68 78 164 -11 b 544 107 372 -11 449 21 z m 192 243 b 542 560 192 390 304 560 b 668 536 586 560 628 553 l 578 222 b 324 88 451 108 392 88 b 192 243 247 88 192 146 z "},"r":{"ha":853,"x_min":0,"x_max":0,"o":"m 11 100 l -18 0 l 476 0 l 506 100 l 299 100 l 360 314 b 715 524 569 504 593 515 l 826 529 l 833 651 l 739 647 b 386 424 617 642 575 619 l 442 646 l 196 646 l 167 546 l 307 546 l 179 100 z "},"s":{"ha":853,"x_min":0,"x_max":0,"o":"m 685 176 b 499 363 685 263 653 296 l 408 401 b 311 492 328 438 311 451 b 481 563 311 533 347 563 b 749 522 549 563 640 551 l 778 621 b 483 660 672 647 558 660 b 189 483 274 660 189 589 b 374 300 189 408 219 364 l 465 261 b 564 167 546 226 564 207 b 385 83 564 119 519 83 b 75 129 303 83 199 96 l 47 28 b 381 -15 178 -3 268 -15 b 685 176 592 -15 685 67 z "},"t":{"ha":853,"x_min":0,"x_max":0,"o":"m 408 318 l 493 546 l 767 546 l 794 646 l 531 646 l 619 886 l 504 886 l 413 646 l 174 646 l 144 546 l 374 546 l 293 332 b 254 171 260 242 254 200 b 483 -4 254 63 325 1 l 631 -10 l 658 93 l 489 103 b 378 192 413 107 378 135 b 408 318 378 215 383 251 z "},"u":{"ha":853,"x_min":0,"x_max":0,"o":"m 517 0 l 628 0 l 814 646 l 694 646 l 604 329 b 281 99 392 125 342 99 b 208 161 236 99 208 121 b 222 238 208 176 211 196 l 340 646 l 221 646 l 103 233 b 82 124 86 178 82 147 b 232 -10 82 42 142 -10 b 567 188 324 -10 390 19 z "},"v":{"ha":853,"x_min":0,"x_max":0,"o":"m 169 646 l 264 0 l 404 0 l 868 646 l 732 646 l 357 107 l 292 646 z "},"w":{"ha":853,"x_min":0,"x_max":0,"o":"m 564 0 l 886 646 l 767 646 l 524 132 l 500 557 l 476 557 l 208 126 l 261 646 l 153 646 l 101 0 l 218 0 l 431 342 l 446 0 z "},"x":{"ha":853,"x_min":0,"x_max":0,"o":"m 7 0 l 153 0 l 411 263 l 546 0 l 685 0 l 494 326 l 825 646 l 674 646 l 442 410 l 322 646 l 189 646 l 357 343 z "},"y":{"ha":853,"x_min":0,"x_max":0,"o":"m 286 -185 l 865 646 l 725 646 l 357 101 l 286 646 l 167 646 l 268 -21 l 194 -125 b 29 -218 135 -208 121 -215 l -115 -225 l -114 -325 l 36 -319 b 286 -185 189 -314 210 -296 z "},"z":{"ha":853,"x_min":0,"x_max":0,"o":"m 49 0 l 654 0 l 682 97 l 246 97 l 246 100 l 797 589 l 797 646 l 218 646 l 190 550 l 606 550 l 606 544 l 49 57 z "},".":{"ha":853,"x_min":0,"x_max":0,"o":"m 350 -21 b 492 114 447 -21 492 43 b 378 204 492 169 451 204 b 236 69 281 204 236 139 b 350 -21 236 13 275 -21 z "},",":{"ha":853,"x_min":0,"x_max":0,"o":"m 51 -211 l 176 -211 b 510 183 404 -81 440 -26 l 321 183 b 53 -208 272 -1 247 -36 z "},":":{"ha":853,"x_min":0,"x_max":0,"o":"m 475 447 b 621 583 568 447 621 510 b 511 664 621 635 585 664 b 365 529 417 664 365 597 b 475 447 365 474 408 447 z m 342 -21 b 488 115 435 -21 488 43 b 378 196 488 168 451 196 b 232 61 289 196 232 133 b 342 -21 232 6 275 -21 z "},";":{"ha":853,"x_min":0,"x_max":0,"o":"m 489 447 b 636 583 582 447 636 510 b 526 664 636 635 599 664 b 381 529 432 664 381 597 b 489 447 381 474 424 447 z m 35 -211 l 157 -211 b 494 183 368 -65 407 -18 l 306 183 b 36 -208 240 7 214 -28 z "},"?":{"ha":853,"x_min":0,"x_max":0,"o":"m 379 336 b 471 463 418 436 428 446 l 618 521 b 878 807 824 603 878 685 b 638 1007 878 929 783 1007 b 235 878 522 1007 429 982 l 274 786 b 617 907 476 889 542 907 b 751 792 699 907 751 867 b 575 613 751 724 719 669 l 414 551 b 324 476 350 525 332 510 b 301 336 318 457 313 425 z m 285 158 b 153 49 192 158 153 107 b 253 -21 153 6 185 -21 b 385 89 346 -21 385 31 b 285 158 385 132 351 158 z "},"!":{"ha":853,"x_min":0,"x_max":0,"o":"m 393 336 l 468 336 l 732 986 l 504 986 z m 367 158 b 236 49 275 158 236 107 b 336 -21 236 6 268 -21 b 468 89 428 -21 468 32 b 367 158 468 132 435 158 z "},"¿":{"ha":853,"x_min":0,"x_max":0,"o":"m 674 828 b 806 938 767 828 806 879 b 706 1007 806 981 774 1007 b 574 897 613 1007 574 956 b 674 828 574 854 606 828 z m 579 650 b 486 524 540 551 531 540 l 340 465 b 79 179 133 383 79 301 b 319 -21 79 57 175 -21 b 724 108 435 -21 529 4 l 683 200 b 342 79 481 97 415 79 b 207 194 258 79 207 119 b 383 374 207 263 239 317 l 543 435 b 635 510 608 461 625 476 b 656 650 640 529 646 561 z "},"¡":{"ha":853,"x_min":0,"x_max":0,"o":"m 585 828 b 717 938 676 828 717 879 b 615 1007 717 981 683 1007 b 485 897 524 1007 485 954 b 585 828 485 854 517 828 z m 558 650 l 483 650 l 219 0 l 447 0 z "},"…":{"ha":853,"x_min":0,"x_max":0,"o":"m 167 125 b 92 186 167 168 142 186 b -19 43 21 186 -19 114 b 57 -21 -19 -3 10 -21 b 167 125 131 -21 167 56 z m 451 125 b 376 186 451 168 426 186 b 265 43 306 186 265 114 b 342 -21 265 -3 294 -21 b 451 125 415 -21 451 56 z m 736 125 b 661 186 736 168 711 186 b 550 43 590 186 550 114 b 626 -21 550 -3 579 -21 b 736 125 700 -21 736 56 z "},"‥":{"ha":853,"x_min":0,"x_max":0,"o":"m 125 -21 b 257 133 207 -21 257 56 b 169 204 257 179 228 204 b 38 51 86 204 38 125 b 125 -21 38 4 65 -21 z m 551 -21 b 683 133 633 -21 683 56 b 597 204 683 179 654 204 b 464 51 513 204 464 125 b 551 -21 464 4 492 -21 z "},"“":{"ha":853,"x_min":0,"x_max":0,"o":"m 615 986 l 510 986 b 183 590 315 850 264 781 l 354 590 b 615 983 418 757 447 810 z m 964 986 l 857 986 b 532 590 663 850 613 781 l 703 590 b 964 983 767 757 794 810 z "},"”":{"ha":853,"x_min":0,"x_max":0,"o":"m 504 590 l 611 590 b 936 986 806 726 856 797 l 767 986 b 504 593 703 819 674 767 z m 156 590 l 263 590 b 589 986 457 726 508 797 l 418 986 b 157 593 354 819 326 767 z "},"„":{"ha":853,"x_min":0,"x_max":0,"o":"m 274 -212 l 381 -212 b 706 183 575 -76 625 -6 l 536 183 b 274 -210 472 17 443 -36 z m -75 -212 l 32 -212 b 358 183 226 -76 278 -6 l 188 183 b -74 -210 124 17 96 -36 z "},"‘":{"ha":853,"x_min":0,"x_max":0,"o":"m 806 986 l 689 986 b 360 601 506 868 422 774 l 544 601 b 804 983 590 743 649 836 z "},"’":{"ha":853,"x_min":0,"x_max":0,"o":"m 313 601 l 429 601 b 763 986 614 719 700 813 l 579 986 b 314 604 532 843 471 753 z "},"‚":{"ha":853,"x_min":0,"x_max":0,"o":"m 82 -201 l 199 -201 b 532 183 383 -83 469 10 l 349 183 b 83 -199 301 40 240 -50 z "},"«":{"ha":853,"x_min":0,"x_max":0,"o":"m 311 -21 l 340 79 l 190 311 l 471 533 l 508 664 l 100 371 l 72 272 z m 647 -21 l 676 79 l 526 286 l 807 533 l 844 664 l 435 343 l 408 244 z "},"»":{"ha":853,"x_min":0,"x_max":0,"o":"m 753 271 l 781 369 l 542 664 l 513 564 l 663 332 l 382 108 l 344 -21 z m 418 299 l 446 397 l 206 664 l 176 564 l 326 357 l 46 108 l 8 -21 z "},"‹":{"ha":853,"x_min":0,"x_max":0,"o":"m 549 86 l 343 313 l 676 532 l 713 664 l 224 371 l 196 272 l 515 -21 z "},"›":{"ha":853,"x_min":0,"x_max":0,"o":"m 629 271 l 657 369 l 338 664 l 304 556 l 511 329 l 176 110 l 140 -21 z "},"(":{"ha":853,"x_min":0,"x_max":0,"o":"m 178 319 b 529 -204 178 125 292 -51 l 599 -124 b 300 319 382 19 300 172 b 932 1035 300 551 449 799 l 876 1118 b 178 319 396 894 178 614 z "},")":{"ha":853,"x_min":0,"x_max":0,"o":"m 753 594 b 401 1118 753 789 639 965 l 331 1038 b 631 594 547 894 631 742 b -1 -121 631 363 482 115 l 54 -204 b 753 594 535 19 753 300 z "},"[":{"ha":853,"x_min":0,"x_max":0,"o":"m 117 -187 l 581 -187 l 610 -87 l 267 -87 l 576 993 l 919 993 l 949 1093 l 485 1093 z "},"]":{"ha":853,"x_min":0,"x_max":0,"o":"m 318 993 l 661 993 l 353 -87 l 8 -87 l -21 -187 l 444 -187 l 811 1093 l 347 1093 z "},"{":{"ha":853,"x_min":0,"x_max":0,"o":"m 172 -47 b 307 -150 172 -97 204 -135 l 613 -193 l 640 -94 l 346 -51 b 303 -19 314 -47 303 -35 b 367 58 303 -3 310 8 l 453 132 b 568 279 553 217 568 244 b 235 450 568 338 536 368 l 235 454 b 685 667 663 551 685 606 b 638 781 685 697 672 725 l 592 858 b 568 919 572 890 568 907 b 639 969 568 942 581 961 l 958 1013 l 986 1113 l 625 1065 b 444 921 482 1046 444 986 b 483 815 444 892 457 861 l 529 739 b 556 674 549 704 556 686 b 158 514 556 632 531 608 l 126 406 b 439 272 403 329 439 299 b 368 186 439 250 431 240 l 282 110 b 172 -47 192 32 172 -1 z "},"}":{"ha":853,"x_min":0,"x_max":0,"o":"m 493 -1 b 454 104 493 28 481 58 l 408 181 b 382 246 389 215 382 233 b 781 406 382 288 407 311 l 811 514 b 500 647 535 592 500 621 b 569 735 500 669 507 679 l 657 810 b 765 967 746 888 765 921 b 631 1069 765 1017 733 1054 l 325 1113 l 297 1014 l 592 971 b 635 939 625 967 635 954 b 571 861 635 922 628 911 l 485 788 b 369 640 385 703 369 675 b 703 469 369 582 401 551 l 703 465 b 253 253 275 368 253 314 b 300 139 253 222 265 194 l 346 61 b 369 0 365 29 369 13 b 299 -50 369 -22 357 -42 l -21 -93 l -49 -193 l 313 -146 b 493 -1 456 -126 493 -67 z "},"/":{"ha":853,"x_min":0,"x_max":0,"o":"m 1007 1049 l 879 1049 l -79 -139 l 51 -139 z "},"\\":{"ha":853,"x_min":0,"x_max":0,"o":"m 269 1049 l 544 -139 l 657 -139 l 381 1049 z "},"|":{"ha":853,"x_min":0,"x_max":0,"o":"m 690 1049 l 579 1049 l 239 -139 l 350 -139 z "},"-":{"ha":853,"x_min":0,"x_max":0,"o":"m 201 446 l 169 332 l 689 332 l 721 446 z "},"–":{"ha":853,"x_min":0,"x_max":0,"o":"m 146 446 l 114 332 l 744 332 l 776 446 z "},"—":{"ha":853,"x_min":0,"x_max":0,"o":"m 104 446 l 72 332 l 786 332 l 818 446 z "},"·":{"ha":853,"x_min":0,"x_max":0,"o":"m 460 351 b 601 486 557 351 601 415 b 488 576 601 542 561 576 b 346 442 390 576 346 511 b 460 351 346 385 385 351 z "},"•":{"ha":853,"x_min":0,"x_max":0,"o":"m 497 646 b 269 414 353 646 269 535 b 439 282 269 322 336 282 b 665 514 576 282 665 386 b 497 646 665 606 600 646 z "},"_":{"ha":853,"x_min":0,"x_max":0,"o":"m 6 -36 l -26 -147 l 610 -147 l 642 -36 z "},"&":{"ha":853,"x_min":0,"x_max":0,"o":"m 114 392 b 38 178 57 335 38 267 b 236 -11 38 57 110 -11 b 528 165 353 -11 419 26 l 596 0 l 721 0 l 611 261 l 819 550 l 732 603 l 565 357 l 465 600 b 440 701 446 646 440 675 b 589 833 440 781 501 833 b 782 807 638 833 690 826 l 807 901 b 585 929 701 924 639 929 b 322 706 426 929 322 832 b 365 542 322 661 338 610 l 379 510 b 114 392 215 465 156 433 z m 157 194 b 203 335 157 251 168 300 b 411 431 233 365 267 386 l 483 256 b 261 90 388 121 342 90 b 157 194 197 90 157 122 z "},"@":{"ha":853,"x_min":0,"x_max":0,"o":"m 571 -85 l 558 -19 b 376 -43 479 -37 421 -43 b 140 181 224 -43 140 18 b 376 835 140 357 253 710 b 631 940 461 918 540 940 b 810 788 751 940 810 906 b 804 715 810 768 807 743 l 665 715 b 429 633 567 715 488 692 b 321 342 361 565 321 435 b 525 179 321 231 388 179 b 715 251 599 179 660 197 b 882 797 813 350 882 664 b 632 1007 882 965 792 1007 b 336 889 521 1007 421 975 b 68 163 188 740 68 375 b 357 -110 68 -33 168 -110 b 571 -85 424 -110 485 -101 z m 500 582 b 636 635 536 618 582 635 l 789 635 b 664 313 763 511 715 364 b 525 260 625 272 579 260 b 415 353 453 260 415 283 b 500 582 415 429 453 535 z "},"℗":{"ha":853,"x_min":0,"x_max":0,"o":"m 807 431 b 865 758 846 567 865 675 b 606 1007 865 943 768 1007 b 122 481 403 1007 238 882 b 65 154 83 346 65 238 b 322 -97 65 -32 161 -97 b 807 431 526 -97 692 28 z m 186 456 b 601 944 297 842 433 944 b 797 760 724 944 797 899 b 743 456 797 683 781 586 b 326 -35 632 69 497 -35 b 132 154 206 -35 132 11 b 186 456 132 228 149 326 z m 417 764 l 239 146 l 325 146 l 386 357 l 432 357 b 613 419 510 357 569 376 b 692 642 664 471 692 569 b 554 764 692 728 644 764 z m 531 688 b 606 632 581 688 606 675 b 549 468 606 589 579 499 b 454 438 526 444 494 438 l 408 438 l 481 688 z "},"©":{"ha":853,"x_min":0,"x_max":0,"o":"m 807 431 b 865 758 846 567 865 675 b 606 1007 865 943 768 1007 b 122 481 403 1007 238 882 b 65 154 83 346 65 238 b 322 -97 65 -32 161 -97 b 807 431 526 -97 692 28 z m 186 456 b 601 944 297 842 433 944 b 797 760 724 944 797 899 b 743 456 797 683 781 586 b 326 -35 632 69 497 -35 b 132 154 206 -35 132 11 b 186 456 132 231 149 326 z m 392 135 b 589 246 447 135 497 149 l 535 294 b 404 210 464 219 433 210 b 347 303 368 210 347 239 b 546 700 347 453 451 700 b 635 617 581 700 597 688 l 703 653 b 553 775 656 756 615 775 b 261 297 396 775 261 504 b 392 135 261 192 304 135 z "},"®":{"ha":853,"x_min":0,"x_max":0,"o":"m 450 289 b 869 746 713 289 869 532 b 588 1007 869 910 767 1007 b 169 550 326 1007 169 764 b 450 289 169 386 271 289 z m 586 957 b 814 743 733 957 814 881 b 449 338 814 558 672 338 b 226 553 306 338 226 415 b 586 957 226 738 367 957 z m 649 479 l 599 568 b 544 629 578 604 565 617 l 544 633 b 707 753 660 640 707 683 b 597 839 707 806 668 839 l 449 839 l 344 476 l 411 476 l 453 624 b 521 569 489 621 500 608 l 569 476 l 649 476 z m 579 782 b 636 742 618 782 636 767 b 507 672 636 704 603 675 l 467 669 l 499 782 z "},"℠":{"ha":853,"x_min":0,"x_max":0,"o":"m 293 613 b 147 654 246 613 197 629 l 121 596 b 293 550 176 568 228 550 b 449 685 388 550 449 600 b 369 800 449 740 428 768 l 315 828 b 279 876 288 843 279 856 b 358 933 279 908 303 933 b 483 908 399 933 438 925 l 504 967 b 358 994 451 986 415 994 b 208 872 258 994 208 938 b 276 771 208 828 228 796 l 331 742 b 379 682 368 721 379 707 b 293 613 379 639 349 613 z m 956 986 l 856 986 l 738 814 l 717 986 l 626 986 l 488 560 l 554 560 l 668 928 l 696 685 l 714 685 l 885 938 l 783 560 l 850 560 z "},"™":{"ha":853,"x_min":0,"x_max":0,"o":"m 956 986 l 856 986 l 738 814 l 717 986 l 626 986 l 488 560 l 554 560 l 668 928 l 696 685 l 714 685 l 885 938 l 783 560 l 850 560 z m 217 918 l 340 918 l 238 560 l 313 560 l 415 918 l 533 918 l 553 985 l 236 985 z "},"*":{"ha":853,"x_min":0,"x_max":0,"o":"m 144 319 l 231 222 b 476 489 310 292 385 407 b 565 222 517 407 525 290 l 699 310 b 521 514 658 378 571 439 b 843 574 629 544 751 543 l 824 710 b 519 563 733 681 625 600 b 656 875 551 667 629 783 l 511 875 b 471 563 485 783 497 668 b 239 713 385 600 315 682 l 154 578 b 443 522 231 549 353 553 b 144 319 350 444 224 389 z "},"†":{"ha":853,"x_min":0,"x_max":0,"o":"m 822 597 l 858 725 b 563 689 763 725 660 696 b 683 986 597 788 656 889 l 542 986 b 493 689 514 889 517 788 b 214 725 399 694 304 725 l 178 597 b 479 638 267 597 381 631 b 258 0 417 425 318 211 l 400 0 b 547 638 460 211 489 425 b 822 597 640 631 728 597 z "},"‡":{"ha":853,"x_min":0,"x_max":0,"o":"m 706 264 l 742 392 b 465 356 653 392 556 363 l 546 638 b 822 597 640 631 732 597 l 858 725 b 561 689 765 725 660 696 b 683 986 596 788 654 888 l 542 986 b 493 689 513 888 517 788 b 214 725 400 694 313 725 l 178 597 b 479 638 274 597 381 631 l 399 356 b 140 392 311 363 232 392 l 104 264 b 383 304 196 264 293 297 b 263 0 351 203 290 101 l 396 0 b 451 304 424 101 426 203 b 706 264 538 296 615 264 z "},"§":{"ha":853,"x_min":0,"x_max":0,"o":"m 60 260 b 226 57 60 188 88 143 l 349 -17 b 457 -137 443 -75 457 -97 b 257 -233 457 -197 413 -233 b 3 -196 172 -233 92 -221 l -26 -297 b 256 -333 61 -319 157 -333 b 576 -128 481 -333 576 -250 b 464 50 576 -56 551 -8 b 776 336 742 179 776 242 b 610 539 776 408 749 454 l 488 613 b 378 733 392 671 378 693 b 578 829 378 792 424 829 b 833 792 663 829 743 817 l 861 893 b 579 929 775 914 678 929 b 258 724 356 929 258 844 b 372 546 258 651 285 604 b 60 260 94 417 60 354 z m 329 133 b 181 279 196 215 181 236 b 456 494 181 335 203 367 l 507 463 b 654 317 639 381 654 360 b 381 101 654 263 633 229 z "},"¶":{"ha":853,"x_min":0,"x_max":0,"o":"m 475 389 l 600 821 l 740 821 l 506 0 l 618 0 l 879 910 l 600 910 b 194 586 313 910 194 768 b 469 389 194 457 288 389 z "},"+":{"ha":853,"x_min":0,"x_max":0,"o":"m 121 406 l 393 406 l 311 121 l 424 121 l 506 406 l 779 406 l 808 504 l 533 504 l 615 788 l 503 788 l 421 504 l 149 504 z "},"÷":{"ha":853,"x_min":0,"x_max":0,"o":"m 533 656 b 649 761 607 656 649 701 b 564 822 649 800 621 822 b 447 715 486 822 447 772 b 533 656 447 676 476 656 z m 121 406 l 779 406 l 808 504 l 149 504 z m 368 88 b 483 194 442 88 483 135 b 399 256 483 233 456 256 b 282 149 321 256 282 204 b 368 88 282 108 311 88 z "},"−":{"ha":853,"x_min":0,"x_max":0,"o":"m 121 406 l 779 406 l 808 504 l 149 504 z "},"=":{"ha":853,"x_min":0,"x_max":0,"o":"m 182 542 l 796 542 l 824 640 l 210 640 z m 104 269 l 718 269 l 746 369 l 132 369 z "},"≠":{"ha":853,"x_min":0,"x_max":0,"o":"m 104 269 l 264 269 l 94 69 l 203 69 l 364 269 l 718 269 l 746 369 l 440 365 l 521 465 l 589 544 l 796 542 l 824 640 l 669 640 l 851 853 l 743 853 l 571 640 l 210 640 l 182 542 l 494 546 l 431 467 l 346 367 l 132 369 z "},"~":{"ha":853,"x_min":0,"x_max":0,"o":"m 476 518 b 314 613 381 599 354 613 b 67 353 247 613 206 586 l 156 299 b 311 496 258 464 279 496 b 439 408 331 496 343 489 b 601 314 533 328 561 314 b 847 574 668 314 710 340 l 758 628 b 604 431 657 463 636 431 b 476 518 585 431 571 438 z "},"≈":{"ha":853,"x_min":0,"x_max":0,"o":"m 494 697 b 332 790 400 778 372 790 b 93 544 268 790 226 768 l 182 492 b 329 675 276 646 299 675 b 457 588 349 675 363 668 b 619 493 553 507 579 493 b 867 753 686 493 728 519 l 778 806 b 622 610 676 642 654 610 b 494 697 603 610 590 617 z m 443 328 b 281 422 349 408 321 422 b 33 163 214 422 172 396 l 122 108 b 278 306 225 274 246 306 b 406 218 297 306 310 299 b 568 124 500 138 528 124 b 807 369 632 124 675 146 l 718 424 b 571 240 624 269 601 240 b 443 328 551 240 538 247 z "},"×":{"ha":853,"x_min":0,"x_max":0,"o":"m 151 150 l 450 385 l 621 143 l 708 210 l 533 449 l 835 681 l 772 761 l 476 528 l 314 761 l 224 696 l 394 463 l 93 232 z "},"<":{"ha":853,"x_min":0,"x_max":0,"o":"m 146 501 l 115 392 l 686 110 l 717 213 l 233 439 l 846 664 l 879 782 z "},">":{"ha":853,"x_min":0,"x_max":0,"o":"m 778 392 l 808 500 l 238 782 l 207 679 l 689 454 l 78 228 l 44 110 z "},"≤":{"ha":853,"x_min":0,"x_max":0,"o":"m 219 661 l 189 553 l 708 283 l 738 388 l 310 601 l 860 813 l 893 931 z m 31 0 l 628 0 l 656 99 l 58 99 z "},"≥":{"ha":853,"x_min":0,"x_max":0,"o":"m 792 551 l 821 661 l 301 931 l 272 826 l 701 613 l 150 400 l 117 283 z m 633 0 l 661 99 l 64 99 l 35 0 z "},"±":{"ha":853,"x_min":0,"x_max":0,"o":"m 164 556 l 436 556 l 363 297 l 475 297 l 549 556 l 822 556 l 851 654 l 576 654 l 650 910 l 538 910 l 464 654 l 192 654 z m 663 0 l 692 99 l 33 99 l 4 0 z "},"^":{"ha":853,"x_min":0,"x_max":0,"o":"m 86 376 l 219 376 l 575 821 l 674 376 l 794 376 l 663 910 l 526 910 z "},"µ":{"ha":853,"x_min":0,"x_max":0,"o":"m 251 -11 b 567 188 336 -11 392 21 l 517 0 l 628 0 l 814 646 l 694 646 l 604 329 b 289 99 394 128 349 99 b 208 164 233 99 208 121 b 217 217 208 181 211 197 l 340 646 l 221 646 l -56 -319 l 67 -319 l 72 -299 l 147 46 b 251 -11 168 7 208 -11 z "},"#":{"ha":853,"x_min":0,"x_max":0,"o":"m 61 239 l 204 239 l 103 -17 l 189 -17 l 292 243 l 468 243 l 364 -17 l 453 -17 l 554 239 l 760 239 l 760 346 l 597 346 l 686 571 l 869 571 l 869 679 l 731 679 l 828 925 l 740 925 l 640 675 l 465 675 l 564 925 l 476 925 l 379 679 l 171 679 l 171 571 l 336 571 l 247 346 l 61 346 z m 507 318 l 314 318 l 426 599 l 618 599 z "},"%":{"ha":853,"x_min":0,"x_max":0,"o":"m 315 442 b 578 775 479 442 578 611 b 417 931 578 874 526 931 b 153 596 251 931 153 761 b 315 442 153 497 206 442 z m 606 524 l 994 908 l 996 917 l 847 917 l 550 524 z m 410 853 b 490 771 467 853 490 824 b 321 518 490 667 428 518 b 240 601 265 518 240 549 b 410 853 240 706 303 853 z m 511 -21 b 775 314 676 -21 775 149 b 614 468 775 413 722 468 b 350 135 449 468 350 299 b 511 -21 350 36 403 -21 z m 607 392 b 688 308 664 392 688 361 b 518 57 688 204 625 57 b 438 139 461 57 438 86 b 607 392 438 243 500 392 z m 322 386 l -65 1 l -67 -7 l 82 -7 l 379 386 z "},"\"":{"ha":853,"x_min":0,"x_max":0,"o":"m 610 563 l 721 563 l 871 986 l 706 986 z m 256 563 l 365 563 l 515 986 l 350 986 z "},"'":{"ha":853,"x_min":0,"x_max":0,"o":"m 424 563 l 543 563 l 692 986 l 518 986 z "},"ª":{"ha":853,"x_min":0,"x_max":0,"o":"m 699 592 l 765 793 b 776 854 774 817 776 836 b 581 961 776 925 714 961 b 368 944 514 961 450 956 l 346 861 b 554 881 440 876 514 881 b 678 832 646 881 678 864 b 669 790 678 821 675 811 l 661 764 l 504 750 b 272 686 361 739 308 722 b 222 553 239 654 222 601 b 347 451 222 496 256 451 b 590 526 431 451 500 472 l 596 526 b 693 458 607 486 635 464 l 749 453 l 769 522 l 726 529 b 692 556 703 533 692 538 b 699 592 692 564 693 574 z m 386 529 b 321 574 336 529 321 546 b 351 649 321 599 332 629 b 517 685 371 669 421 676 l 640 696 l 610 600 b 386 529 528 547 446 529 z m 174 328 l 150 249 l 681 249 l 703 328 z "},"º":{"ha":853,"x_min":0,"x_max":0,"o":"m 582 961 b 263 654 404 961 263 828 b 490 449 263 526 360 449 b 810 756 667 449 810 582 b 582 961 810 883 713 961 z m 497 531 b 360 658 408 531 360 586 b 575 878 360 783 463 878 b 713 751 664 878 713 824 b 497 531 713 626 610 531 z m 176 328 l 154 249 l 665 249 l 688 328 z "},"°":{"ha":853,"x_min":0,"x_max":0,"o":"m 493 403 b 826 736 686 403 826 561 b 567 961 826 869 728 961 b 233 629 374 961 233 804 b 493 403 233 496 332 403 z m 569 876 b 726 733 667 876 726 818 b 490 488 726 606 621 488 b 333 631 393 488 333 546 b 569 876 333 758 438 876 z "},"$":{"ha":853,"x_min":0,"x_max":0,"o":"m 288 -197 l 353 1 b 407 0 371 0 389 0 b 733 257 607 0 733 94 b 540 501 733 346 710 411 l 643 804 b 824 753 701 794 760 778 l 857 853 b 686 899 794 874 742 890 l 753 1107 l 664 1107 l 599 908 b 551 910 583 910 568 910 b 235 672 343 910 235 797 b 417 436 235 583 272 511 l 307 110 b 89 189 236 124 163 153 l 46 90 b 267 14 119 56 190 28 l 199 -197 z m 356 679 b 550 813 356 754 415 813 l 574 813 l 478 529 b 356 679 372 588 356 635 z m 407 99 b 376 100 397 99 386 99 l 479 408 b 611 249 599 344 611 294 b 407 99 611 156 540 99 z "},"£":{"ha":853,"x_min":0,"x_max":0,"o":"m 13 0 l 678 0 l 707 100 l 190 100 b 446 350 364 233 425 297 l 718 350 l 739 429 l 457 429 b 367 668 450 518 367 575 b 572 831 367 749 439 831 b 804 689 678 831 739 788 l 892 760 b 578 931 810 875 728 931 b 243 668 357 931 243 797 b 344 424 243 539 326 492 l 144 424 l 121 346 l 329 346 b 13 65 299 297 217 221 z "},"¥":{"ha":853,"x_min":0,"x_max":0,"o":"m 76 188 l 332 188 l 278 0 l 388 0 l 442 188 l 699 188 l 721 267 l 464 267 l 499 385 l 754 385 l 776 463 l 546 463 l 965 910 l 822 910 l 471 517 l 350 910 l 225 910 l 386 463 l 154 463 l 132 385 l 388 385 l 354 267 l 97 267 z "},"€":{"ha":853,"x_min":0,"x_max":0,"o":"m 49 311 l 172 311 b 164 224 165 278 164 250 b 428 -21 164 74 251 -21 b 700 43 515 -21 604 -3 l 693 143 b 447 79 579 93 511 79 b 283 229 336 79 285 132 b 293 314 283 253 286 279 l 589 314 l 611 392 l 314 392 l 350 518 l 647 518 l 669 596 l 374 596 b 646 829 428 756 519 829 b 867 769 706 829 763 818 l 906 868 b 643 929 807 914 738 929 b 251 599 464 929 321 821 l 129 599 l 107 518 l 228 518 l 192 392 l 71 392 z "},"₦":{"ha":853,"x_min":0,"x_max":0,"o":"m 158 0 l 244 310 l 429 310 l 444 0 l 613 0 l 700 306 l 826 306 l 850 385 l 724 385 l 765 533 l 892 533 l 915 613 l 789 613 l 874 910 l 769 910 l 686 608 l 503 608 l 488 910 l 317 910 l 232 613 l 104 613 l 82 533 l 208 533 l 167 385 l 39 385 l 17 306 l 143 306 l 56 0 z m 390 836 l 401 836 l 425 369 l 261 369 z m 529 79 l 506 549 l 669 549 l 540 79 z "},"₱":{"ha":853,"x_min":0,"x_max":0,"o":"m 96 579 l 222 579 l 56 0 l 176 0 l 267 318 l 381 318 b 804 579 607 318 760 417 l 908 579 l 931 658 l 817 658 b 818 683 818 667 818 675 b 553 910 818 818 722 910 l 317 910 l 244 658 l 118 658 z m 525 810 b 692 683 640 810 692 763 b 690 647 692 671 692 658 l 361 647 l 408 810 z m 392 417 l 296 417 l 344 589 l 676 589 b 392 417 640 483 540 417 z "},"₺":{"ha":853,"x_min":0,"x_max":0,"o":"m -8 183 l 149 260 l 74 0 l 300 0 b 811 389 590 0 742 139 l 704 408 b 306 99 646 197 508 99 l 222 99 l 286 319 l 583 463 l 610 557 l 313 410 l 351 546 l 649 692 l 675 785 l 378 638 l 456 910 l 335 910 l 240 579 l 83 503 l 56 410 l 214 486 l 175 351 l 18 275 z "},"₽":{"ha":853,"x_min":0,"x_max":0,"o":"m -10 179 l 126 179 l 75 0 l 194 0 l 246 179 l 560 179 l 582 258 l 268 258 l 308 394 l 486 394 b 831 499 656 394 765 432 b 908 696 883 551 908 617 b 646 910 908 825 815 910 l 336 910 l 211 474 l 75 474 l 51 394 l 189 394 l 149 258 l 13 258 z m 617 810 b 779 682 728 810 779 764 b 494 474 779 556 672 474 l 331 474 l 426 810 z "},"₹":{"ha":853,"x_min":0,"x_max":0,"o":"m 164 569 l 575 569 b 342 389 536 453 472 389 l 113 389 l 88 304 l 471 0 l 642 0 l 642 3 l 269 293 l 269 296 l 310 296 b 697 569 551 296 635 367 l 838 569 l 861 651 l 721 651 l 774 831 l 913 831 l 936 910 l 261 910 l 239 831 l 651 831 l 599 651 l 188 651 z "},"฿":{"ha":853,"x_min":0,"x_max":0,"o":"m 332 -197 l 389 0 b 767 271 653 0 767 122 b 586 461 767 367 706 436 l 586 467 b 867 732 793 511 867 617 b 651 910 867 831 797 903 l 708 1107 l 614 1107 l 558 910 l 300 910 l 39 0 l 296 0 l 239 -197 z m 451 517 l 303 508 l 390 815 l 542 815 l 456 517 z m 736 708 b 529 525 736 629 672 551 l 613 815 b 736 708 699 810 736 769 z m 428 417 l 335 94 l 185 94 l 279 424 z m 644 278 b 407 94 644 182 567 94 l 406 94 l 497 411 b 644 278 600 396 644 344 z "},"₩":{"ha":853,"x_min":0,"x_max":0,"o":"m 496 597 l 511 597 l 446 0 l 590 0 l 744 428 l 864 428 l 886 510 l 775 510 l 919 910 l 842 910 l 696 503 l 567 503 l 588 690 l 471 690 l 383 503 l 256 503 l 344 910 l 269 910 l 185 510 l 72 510 l 50 428 l 167 428 l 76 0 l 222 0 z m 550 96 l 522 96 l 560 438 l 672 438 z m 167 96 l 242 438 l 353 438 l 194 96 z "},"¢":{"ha":853,"x_min":0,"x_max":0,"o":"m 238 -197 l 331 -197 l 400 1 b 707 89 489 6 581 25 l 667 182 b 425 103 553 131 483 108 l 588 575 b 760 494 633 564 683 540 l 817 589 b 631 669 746 632 689 657 l 703 878 l 608 878 l 539 681 l 517 681 b 214 553 400 681 293 632 b 88 249 125 464 88 354 b 307 4 88 108 171 21 z m 218 261 b 315 490 218 338 254 428 b 517 581 368 542 440 576 l 353 103 b 218 261 269 114 218 175 z "},"₫":{"ha":853,"x_min":0,"x_max":0,"o":"m 531 0 l 622 0 l 824 701 l 939 701 l 963 781 l 846 781 l 883 910 l 764 910 l 726 781 l 481 781 l 458 701 l 704 701 l 664 561 b 500 586 614 576 560 586 b 64 206 232 586 64 415 b 286 -11 64 68 157 -11 b 543 111 371 -11 446 22 z m 189 219 b 504 493 189 347 290 493 b 636 467 556 493 600 483 l 565 218 b 321 86 443 108 388 86 b 189 219 244 86 189 138 z m -36 -211 l 549 -211 l 574 -128 l -11 -128 z "},"½":{"ha":853,"x_min":0,"x_max":0,"o":"m 38 382 l 410 382 l 431 457 l 278 457 l 442 910 l 404 910 l 175 813 l 150 724 l 313 792 l 190 457 l 58 457 z m 440 263 l 853 575 l 783 658 l 415 293 l 0 -19 l 69 -103 z m 311 -319 l 718 -319 l 740 -244 l 460 -244 l 460 -240 l 663 -99 b 821 106 804 3 821 56 b 665 226 821 178 751 226 b 421 122 592 226 529 206 l 463 60 b 657 151 574 139 614 151 b 726 99 700 151 726 131 b 588 -67 726 58 703 19 l 311 -268 z "},"⅓":{"ha":853,"x_min":0,"x_max":0,"o":"m 38 382 l 410 382 l 431 457 l 278 457 l 442 910 l 404 910 l 175 813 l 150 724 l 313 792 l 190 457 l 58 457 z m 440 263 l 853 575 l 783 658 l 415 293 l 0 -19 l 69 -103 z m 479 135 l 736 135 l 736 132 l 532 -36 l 535 -75 b 717 -142 683 -76 717 -97 b 493 -249 717 -192 657 -237 l 378 -257 l 363 -333 l 485 -326 b 810 -133 722 -312 810 -239 b 657 -15 810 -65 761 -26 l 879 165 l 879 208 l 501 208 z "},"⅔":{"ha":853,"x_min":0,"x_max":0,"o":"m 46 382 l 453 382 l 475 457 l 194 457 l 194 461 l 397 603 b 556 807 539 704 556 757 b 400 928 556 879 486 928 b 156 824 326 928 264 907 l 197 761 b 392 853 308 840 349 853 b 461 800 435 853 461 832 b 322 635 461 760 438 721 l 46 433 z m 440 263 l 853 575 l 783 658 l 415 293 l 0 -19 l 69 -103 z m 479 135 l 736 135 l 736 132 l 532 -36 l 535 -75 b 717 -142 683 -76 717 -97 b 493 -249 717 -192 657 -237 l 378 -257 l 363 -333 l 485 -326 b 810 -133 722 -312 810 -239 b 657 -15 810 -65 761 -26 l 879 165 l 879 208 l 501 208 z "},"¼":{"ha":853,"x_min":0,"x_max":0,"o":"m 38 382 l 410 382 l 431 457 l 278 457 l 442 910 l 404 910 l 175 813 l 150 724 l 313 792 l 190 457 l 58 457 z m 440 263 l 853 575 l 783 658 l 415 293 l 0 -19 l 69 -103 z m 285 -183 l 546 -183 l 501 -319 l 586 -319 l 632 -183 l 746 -183 l 765 -112 l 656 -112 l 764 208 l 649 208 l 301 -122 z m 667 151 l 572 -121 l 385 -121 l 385 -117 z "},"¾":{"ha":853,"x_min":0,"x_max":0,"o":"m 179 836 l 436 836 l 436 833 l 232 665 l 235 626 b 417 560 383 625 417 604 b 193 453 417 510 357 464 l 78 444 l 63 368 l 185 375 b 510 568 422 389 510 463 b 357 686 510 636 461 675 l 579 867 l 579 910 l 201 910 z m 440 263 l 853 575 l 783 658 l 415 293 l 0 -19 l 69 -103 z m 285 -183 l 546 -183 l 501 -319 l 586 -319 l 632 -183 l 746 -183 l 765 -112 l 656 -112 l 764 208 l 649 208 l 301 -122 z m 667 151 l 572 -121 l 385 -121 l 385 -117 z "},"⅕":{"ha":853,"x_min":0,"x_max":0,"o":"m 38 382 l 410 382 l 431 457 l 278 457 l 442 910 l 404 910 l 175 813 l 150 724 l 313 792 l 190 457 l 58 457 z m 440 263 l 853 575 l 783 658 l 415 293 l 0 -19 l 69 -103 z m 518 208 l 418 -74 l 419 -78 l 475 -90 b 615 -50 531 -60 576 -50 b 700 -111 669 -50 700 -74 b 465 -247 700 -174 644 -232 l 351 -257 l 338 -333 l 460 -324 b 790 -99 707 -306 790 -215 b 646 19 790 -22 731 19 b 518 -10 604 19 564 13 l 571 136 l 826 136 l 849 208 z "},"⅖":{"ha":853,"x_min":0,"x_max":0,"o":"m 46 382 l 453 382 l 475 457 l 194 457 l 194 461 l 397 603 b 556 807 539 704 556 757 b 400 928 556 879 486 928 b 156 824 326 928 264 907 l 197 761 b 392 853 308 840 349 853 b 461 800 435 853 461 832 b 322 635 461 760 438 721 l 46 433 z m 440 263 l 853 575 l 783 658 l 415 293 l 0 -19 l 69 -103 z m 518 208 l 418 -74 l 419 -78 l 475 -90 b 615 -50 531 -60 576 -50 b 700 -111 669 -50 700 -74 b 465 -247 700 -174 644 -232 l 351 -257 l 338 -333 l 460 -324 b 790 -99 707 -306 790 -215 b 646 19 790 -22 731 19 b 518 -10 604 19 564 13 l 571 136 l 826 136 l 849 208 z "},"⅗":{"ha":853,"x_min":0,"x_max":0,"o":"m 179 836 l 436 836 l 436 833 l 232 665 l 235 626 b 417 560 383 625 417 604 b 193 453 417 510 357 464 l 78 444 l 63 368 l 185 375 b 510 568 422 389 510 463 b 357 686 510 636 461 675 l 579 867 l 579 910 l 201 910 z m 440 263 l 853 575 l 783 658 l 415 293 l 0 -19 l 69 -103 z m 518 208 l 418 -74 l 419 -78 l 475 -90 b 615 -50 531 -60 576 -50 b 700 -111 669 -50 700 -74 b 465 -247 700 -174 644 -232 l 351 -257 l 338 -333 l 460 -324 b 790 -99 707 -306 790 -215 b 646 19 790 -22 731 19 b 518 -10 604 19 564 13 l 571 136 l 826 136 l 849 208 z "},"⅘":{"ha":853,"x_min":0,"x_max":0,"o":"m 67 518 l 328 518 l 283 382 l 368 382 l 414 518 l 528 518 l 547 589 l 438 589 l 546 910 l 431 910 l 83 579 z m 449 853 l 354 581 l 167 581 l 167 585 z m 440 263 l 853 575 l 783 658 l 415 293 l 0 -19 l 69 -103 z m 518 208 l 418 -74 l 419 -78 l 475 -90 b 615 -50 531 -60 576 -50 b 700 -111 669 -50 700 -74 b 465 -247 700 -174 644 -232 l 351 -257 l 338 -333 l 460 -324 b 790 -99 707 -306 790 -215 b 646 19 790 -22 731 19 b 518 -10 604 19 564 13 l 571 136 l 826 136 l 849 208 z "},"⅙":{"ha":853,"x_min":0,"x_max":0,"o":"m 38 382 l 410 382 l 431 457 l 278 457 l 442 910 l 404 910 l 175 813 l 150 724 l 313 792 l 190 457 l 58 457 z m 440 263 l 853 575 l 783 658 l 415 293 l 0 -19 l 69 -103 z m 625 101 l 761 207 l 761 208 l 646 208 l 542 126 b 319 -189 378 -6 319 -93 b 493 -340 319 -285 386 -340 b 736 -126 636 -340 736 -233 b 538 28 736 -46 688 4 b 625 101 561 51 590 75 z m 408 -182 b 486 -21 408 -133 428 -85 b 646 -132 610 -39 646 -71 b 500 -267 646 -196 583 -267 b 408 -182 444 -267 408 -237 z "},"⅚":{"ha":853,"x_min":0,"x_max":0,"o":"m 238 910 l 138 628 l 139 624 l 194 611 b 335 651 250 642 296 651 b 419 590 389 651 419 628 b 185 454 419 528 364 469 l 71 444 l 57 368 l 179 378 b 510 603 426 396 510 486 b 365 721 510 679 450 721 b 238 692 324 721 283 714 l 290 838 l 546 838 l 568 910 z m 440 263 l 853 575 l 783 658 l 415 293 l 0 -19 l 69 -103 z m 625 101 l 761 207 l 761 208 l 646 208 l 542 126 b 319 -189 378 -6 319 -93 b 493 -340 319 -285 386 -340 b 736 -126 636 -340 736 -233 b 538 28 736 -46 688 4 b 625 101 561 51 590 75 z m 408 -182 b 486 -21 408 -133 428 -85 b 646 -132 610 -39 646 -71 b 500 -267 646 -196 583 -267 b 408 -182 444 -267 408 -237 z "},"⅛":{"ha":853,"x_min":0,"x_max":0,"o":"m 38 382 l 410 382 l 431 457 l 278 457 l 442 910 l 404 910 l 175 813 l 150 724 l 313 792 l 190 457 l 58 457 z m 440 263 l 853 575 l 783 658 l 415 293 l 0 -19 l 69 -103 z m 551 -339 b 775 -169 676 -339 775 -269 b 685 -56 775 -118 742 -76 l 685 -53 b 833 96 779 -36 833 24 b 653 229 833 174 768 229 b 450 68 528 229 450 147 b 528 -39 450 21 479 -17 l 528 -42 b 358 -200 422 -58 358 -124 b 551 -339 358 -289 436 -339 z m 533 53 b 654 158 533 113 586 158 b 747 89 713 158 747 133 b 621 -18 747 33 690 -18 b 533 53 568 -18 533 10 z m 447 -192 b 586 -79 447 -132 506 -79 b 692 -157 650 -79 692 -111 b 551 -271 692 -221 629 -271 b 447 -192 489 -271 447 -242 z "},"⅜":{"ha":853,"x_min":0,"x_max":0,"o":"m 179 836 l 436 836 l 436 833 l 232 665 l 235 626 b 417 560 383 625 417 604 b 193 453 417 510 357 464 l 78 444 l 63 368 l 185 375 b 510 568 422 389 510 463 b 357 686 510 636 461 675 l 579 867 l 579 910 l 201 910 z m 440 263 l 853 575 l 783 658 l 415 293 l 0 -19 l 69 -103 z m 551 -339 b 775 -169 676 -339 775 -269 b 685 -56 775 -118 742 -76 l 685 -53 b 833 96 779 -36 833 24 b 653 229 833 174 768 229 b 450 68 528 229 450 147 b 528 -39 450 21 479 -17 l 528 -42 b 358 -200 422 -58 358 -124 b 551 -339 358 -289 436 -339 z m 533 53 b 654 158 533 113 586 158 b 747 89 713 158 747 133 b 621 -18 747 33 690 -18 b 533 53 568 -18 533 10 z m 447 -192 b 586 -79 447 -132 506 -79 b 692 -157 650 -79 692 -111 b 551 -271 692 -221 629 -271 b 447 -192 489 -271 447 -242 z "},"⅝":{"ha":853,"x_min":0,"x_max":0,"o":"m 238 910 l 138 628 l 139 624 l 194 611 b 335 651 250 642 296 651 b 419 590 389 651 419 628 b 185 454 419 528 364 469 l 71 444 l 57 368 l 179 378 b 510 603 426 396 510 486 b 365 721 510 679 450 721 b 238 692 324 721 283 714 l 290 838 l 546 838 l 568 910 z m 440 263 l 853 575 l 783 658 l 415 293 l 0 -19 l 69 -103 z m 551 -339 b 775 -169 676 -339 775 -269 b 685 -56 775 -118 742 -76 l 685 -53 b 833 96 779 -36 833 24 b 653 229 833 174 768 229 b 450 68 528 229 450 147 b 528 -39 450 21 479 -17 l 528 -42 b 358 -200 422 -58 358 -124 b 551 -339 358 -289 436 -339 z m 533 53 b 654 158 533 113 586 158 b 747 89 713 158 747 133 b 621 -18 747 33 690 -18 b 533 53 568 -18 533 10 z m 447 -192 b 586 -79 447 -132 506 -79 b 692 -157 650 -79 692 -111 b 551 -271 692 -221 629 -271 b 447 -192 489 -271 447 -242 z "},"⅞":{"ha":853,"x_min":0,"x_max":0,"o":"m 264 382 l 628 842 l 644 910 l 236 910 l 214 833 l 526 833 l 526 829 l 161 385 l 161 382 z m 440 263 l 853 575 l 783 658 l 415 293 l 0 -19 l 69 -103 z m 551 -339 b 775 -169 676 -339 775 -269 b 685 -56 775 -118 742 -76 l 685 -53 b 833 96 779 -36 833 24 b 653 229 833 174 768 229 b 450 68 528 229 450 147 b 528 -39 450 21 479 -17 l 528 -42 b 358 -200 422 -58 358 -124 b 551 -339 358 -289 436 -339 z m 533 53 b 654 158 533 113 586 158 b 747 89 713 158 747 133 b 621 -18 747 33 690 -18 b 533 53 568 -18 533 10 z m 447 -192 b 586 -79 447 -132 506 -79 b 692 -157 650 -79 692 -111 b 551 -271 692 -221 629 -271 b 447 -192 489 -271 447 -242 z "},"⁰":{"ha":853,"x_min":0,"x_max":0,"o":"m 488 438 b 653 506 553 438 610 463 b 788 847 732 585 788 725 b 617 1007 788 954 725 1007 b 451 939 551 1007 494 982 b 317 597 372 860 317 719 b 488 438 317 490 379 438 z m 611 933 b 701 831 667 933 701 906 l 410 675 b 510 889 426 753 464 842 b 611 933 538 917 572 933 z m 594 556 b 493 511 567 528 532 511 b 403 606 436 511 403 539 l 692 761 b 594 556 676 686 639 601 z "},"¹":{"ha":853,"x_min":0,"x_max":0,"o":"m 296 458 l 668 458 l 689 533 l 536 533 l 700 986 l 663 986 l 433 889 l 408 800 l 571 868 l 449 533 l 317 533 z "},"²":{"ha":853,"x_min":0,"x_max":0,"o":"m 275 458 l 682 458 l 704 533 l 424 533 l 424 538 l 626 679 b 785 883 768 781 785 833 b 629 1004 785 956 715 1004 b 385 900 556 1004 493 983 l 426 838 b 621 929 538 917 578 929 b 690 876 664 929 690 908 b 551 711 690 836 667 797 l 275 510 z "},"³":{"ha":853,"x_min":0,"x_max":0,"o":"m 399 913 l 656 913 l 656 910 l 451 742 l 454 703 b 636 636 603 701 636 681 b 413 529 636 586 576 540 l 297 521 l 282 444 l 404 451 b 729 644 642 465 729 539 b 576 763 729 713 681 751 l 799 943 l 799 986 l 421 986 z "},"⁴":{"ha":853,"x_min":0,"x_max":0,"o":"m 290 594 l 551 594 l 507 458 l 592 458 l 638 594 l 751 594 l 771 665 l 661 665 l 769 986 l 654 986 l 307 656 z m 672 929 l 578 657 l 390 657 l 390 661 z "},"⁵":{"ha":853,"x_min":0,"x_max":0,"o":"m 457 986 l 357 704 l 358 700 l 414 688 b 554 728 469 718 515 728 b 639 667 608 728 639 704 b 404 531 639 604 583 546 l 290 521 l 276 444 l 399 454 b 729 679 646 472 729 563 b 585 797 729 756 669 797 b 457 768 543 797 503 790 l 510 914 l 765 914 l 788 986 z "},"⁶":{"ha":853,"x_min":0,"x_max":0,"o":"m 617 879 l 753 985 l 753 986 l 638 986 l 533 904 b 311 589 369 772 311 685 b 485 438 311 493 378 438 b 728 651 628 438 728 544 b 529 806 728 732 679 782 b 617 879 553 829 582 853 z m 400 596 b 478 757 400 644 419 693 b 638 646 601 739 638 707 b 492 511 638 582 575 511 b 400 596 436 511 400 540 z "},"⁷":{"ha":853,"x_min":0,"x_max":0,"o":"m 438 458 l 801 918 l 818 986 l 410 986 l 388 910 l 700 910 l 700 906 l 335 461 l 335 458 z "},"⁸":{"ha":853,"x_min":0,"x_max":0,"o":"m 504 439 b 728 608 629 439 728 508 b 638 722 728 660 694 701 l 638 725 b 786 874 732 742 786 801 b 606 1007 786 951 721 1007 b 403 846 481 1007 403 925 b 481 739 403 799 432 761 l 481 736 b 311 578 375 719 311 654 b 504 439 311 489 389 439 z m 486 831 b 607 936 486 890 539 936 b 700 867 665 936 700 911 b 574 760 700 811 643 760 b 486 831 521 760 486 788 z m 400 586 b 539 699 400 646 458 699 b 644 621 603 699 644 667 b 504 507 644 557 582 507 b 400 586 442 507 400 536 z "},"⁹":{"ha":853,"x_min":0,"x_max":0,"o":"m 471 565 l 335 460 l 335 458 l 450 458 l 554 540 b 776 856 718 674 776 760 b 601 1007 776 951 710 1007 b 360 793 460 1007 360 900 b 560 639 360 713 408 663 b 471 565 535 617 506 592 z m 450 799 b 596 933 450 864 511 933 b 688 849 651 933 688 904 b 610 689 688 801 668 753 b 450 799 486 706 450 738 z "},"₀":{"ha":853,"x_min":0,"x_max":0,"o":"m 267 -340 b 432 -272 332 -340 389 -315 b 567 69 511 -193 567 -53 b 396 229 567 176 504 229 b 231 161 331 229 274 204 b 96 -181 151 82 96 -58 b 267 -340 96 -287 158 -340 z m 390 156 b 481 53 446 156 481 128 l 189 -103 b 289 111 206 -25 243 64 b 390 156 317 139 351 156 z m 374 -222 b 272 -267 346 -250 311 -267 b 182 -172 215 -267 182 -239 l 471 -17 b 374 -222 456 -92 418 -176 z "},"₁":{"ha":853,"x_min":0,"x_max":0,"o":"m 75 -319 l 447 -319 l 468 -244 l 315 -244 l 479 208 l 442 208 l 213 111 l 188 22 l 350 90 l 228 -244 l 96 -244 z "},"₂":{"ha":853,"x_min":0,"x_max":0,"o":"m 54 -319 l 461 -319 l 483 -244 l 203 -244 l 203 -240 l 406 -99 b 564 106 547 3 564 56 b 408 226 564 178 494 226 b 164 122 335 226 272 206 l 206 60 b 400 151 317 139 357 151 b 469 99 443 151 469 131 b 331 -67 469 58 446 19 l 54 -268 z "},"₃":{"ha":853,"x_min":0,"x_max":0,"o":"m 178 135 l 435 135 l 435 132 l 231 -36 l 233 -75 b 415 -142 382 -76 415 -97 b 192 -249 415 -192 356 -237 l 76 -257 l 61 -333 l 183 -326 b 508 -133 421 -312 508 -239 b 356 -15 508 -65 460 -26 l 578 165 l 578 208 l 200 208 z "},"₄":{"ha":853,"x_min":0,"x_max":0,"o":"m 69 -183 l 331 -183 l 286 -319 l 371 -319 l 417 -183 l 531 -183 l 550 -112 l 440 -112 l 549 208 l 433 208 l 86 -122 z m 451 151 l 357 -121 l 169 -121 l 169 -117 z "},"₅":{"ha":853,"x_min":0,"x_max":0,"o":"m 236 208 l 136 -74 l 138 -78 l 193 -90 b 333 -50 249 -60 294 -50 b 418 -111 388 -50 418 -74 b 183 -247 418 -174 363 -232 l 69 -257 l 56 -333 l 178 -324 b 508 -99 425 -306 508 -215 b 364 19 508 -22 449 19 b 236 -10 322 19 282 13 l 289 136 l 544 136 l 567 208 z "},"₆":{"ha":853,"x_min":0,"x_max":0,"o":"m 396 101 l 532 207 l 532 208 l 417 208 l 313 126 b 90 -189 149 -6 90 -93 b 264 -340 90 -285 157 -340 b 507 -126 407 -340 507 -233 b 308 28 507 -46 458 4 b 396 101 332 51 361 75 z m 179 -182 b 257 -21 179 -133 199 -85 b 417 -132 381 -39 417 -71 b 271 -267 417 -196 354 -267 b 179 -182 215 -267 179 -237 z "},"₇":{"ha":853,"x_min":0,"x_max":0,"o":"m 217 -319 l 581 140 l 597 208 l 189 208 l 167 132 l 479 132 l 479 128 l 114 -317 l 114 -319 z "},"₈":{"ha":853,"x_min":0,"x_max":0,"o":"m 283 -339 b 507 -169 408 -339 507 -269 b 417 -56 507 -118 474 -76 l 417 -53 b 565 96 511 -36 565 24 b 385 229 565 174 500 229 b 182 68 260 229 182 147 b 260 -39 182 21 211 -17 l 260 -42 b 90 -200 154 -58 90 -124 b 283 -339 90 -289 168 -339 z m 265 53 b 386 158 265 113 318 158 b 479 89 444 158 479 133 b 353 -18 479 33 422 -18 b 265 53 300 -18 265 10 z m 179 -192 b 318 -79 179 -132 238 -79 b 424 -157 382 -79 424 -111 b 283 -271 424 -221 361 -271 b 179 -192 221 -271 179 -242 z "},"₉":{"ha":853,"x_min":0,"x_max":0,"o":"m 250 -212 l 114 -318 l 114 -319 l 229 -319 l 333 -237 b 556 78 497 -104 556 -18 b 381 229 556 174 489 229 b 139 15 239 229 139 122 b 339 -139 139 -65 188 -115 b 250 -212 314 -161 285 -186 z m 229 21 b 375 156 229 86 290 156 b 467 71 431 156 467 126 b 389 -89 467 24 447 -25 b 229 21 265 -72 229 -40 z "},"ʹ":{"ha":853,"x_min":0,"x_max":0,"o":"m 424 563 l 543 563 l 692 986 l 518 986 z "},"ʺ":{"ha":853,"x_min":0,"x_max":0,"o":"m 610 563 l 721 563 l 871 986 l 706 986 z m 256 563 l 365 563 l 515 986 l 350 986 z "},"ʻ":{"ha":853,"x_min":0,"x_max":0,"o":"m 806 986 l 689 986 b 360 601 506 868 422 774 l 544 601 b 804 983 590 743 649 836 z "},"ʼ":{"ha":853,"x_min":0,"x_max":0,"o":"m 313 601 l 429 601 b 763 986 614 719 700 813 l 579 986 b 314 604 532 843 471 753 z "},"ʿ":{"ha":853,"x_min":0,"x_max":0,"o":"m 776 1007 b 400 894 583 1007 474 969 b 314 667 342 836 314 757 b 613 438 314 535 393 438 l 643 540 b 440 665 492 540 440 592 b 747 904 440 808 515 904 z "},"ʾ":{"ha":853,"x_min":0,"x_max":0,"o":"m 264 438 b 642 550 457 438 567 475 b 728 778 700 608 728 688 b 428 1007 728 910 647 1007 l 399 904 b 601 779 550 904 601 853 b 294 540 601 636 525 540 z "},"ˈ":{"ha":853,"x_min":0,"x_max":0,"o":"m 525 449 l 682 993 l 556 993 l 400 449 z "},"ˌ":{"ha":853,"x_min":0,"x_max":0,"o":"m 304 -319 l 461 225 l 335 225 l 179 -319 z "},"´":{"ha":853,"x_min":0,"x_max":0,"o":"m 435 815 l 471 751 l 835 954 l 789 1036 z "},"˝":{"ha":853,"x_min":0,"x_max":0,"o":"m 324 799 l 371 751 l 606 969 l 533 1031 z m 639 799 l 686 751 l 919 969 l 849 1031 z "},"`":{"ha":853,"x_min":0,"x_max":0,"o":"m 678 807 l 450 1028 l 379 953 l 628 751 z "},"ˆ":{"ha":853,"x_min":0,"x_max":0,"o":"m 303 806 l 343 751 l 603 936 l 757 751 l 815 793 l 650 1036 l 589 1036 z "},"ˇ":{"ha":853,"x_min":0,"x_max":0,"o":"m 360 996 l 524 751 l 585 751 l 871 982 l 832 1036 l 572 853 l 417 1036 z "},"˘":{"ha":853,"x_min":0,"x_max":0,"o":"m 569 840 b 442 1025 488 840 449 893 l 367 1004 b 563 751 367 824 435 751 b 881 996 689 751 782 819 l 803 1025 b 569 840 721 894 651 840 z "},"˜":{"ha":853,"x_min":0,"x_max":0,"o":"m 553 849 b 667 751 607 767 635 751 b 892 986 718 751 761 778 l 821 1022 b 681 850 721 868 701 850 b 614 922 665 850 656 860 b 500 1019 560 1006 532 1019 b 276 788 449 1019 407 994 l 346 749 b 486 922 446 904 465 922 b 553 849 501 922 511 913 z "},"¯":{"ha":853,"x_min":0,"x_max":0,"o":"m 335 807 l 796 807 l 822 897 l 361 897 z "},"¨":{"ha":853,"x_min":0,"x_max":0,"o":"m 401 779 b 503 881 467 779 503 826 b 432 936 503 919 472 936 b 331 835 371 936 331 885 b 401 779 331 800 353 779 z m 728 779 b 828 881 788 779 828 822 b 758 936 828 915 801 936 b 657 835 701 936 657 889 b 728 779 657 799 682 779 z "},"˙":{"ha":853,"x_min":0,"x_max":0,"o":"m 565 779 b 671 886 628 779 671 822 b 596 943 671 925 643 943 b 490 838 532 943 490 890 b 565 779 490 796 522 779 z "},"˚":{"ha":853,"x_min":0,"x_max":0,"o":"m 628 1097 b 392 894 483 1097 392 1003 b 571 751 392 800 469 751 b 807 954 717 751 807 846 b 628 1097 807 1049 729 1097 z m 589 828 b 476 899 517 828 476 850 b 611 1021 476 967 532 1021 b 722 950 682 1021 722 999 b 589 828 722 882 667 828 z "},"ꞈ":{"ha":853,"x_min":0,"x_max":0,"o":"m 483 -349 l 319 -104 l 258 -104 l -28 -335 l 11 -389 l 271 -206 l 425 -389 z "},"ˍ":{"ha":853,"x_min":0,"x_max":0,"o":"m 28 -251 l 490 -251 l 517 -161 l 54 -161 z "},"¸":{"ha":853,"x_min":0,"x_max":0,"o":"m 318 29 l 213 -135 l 217 -149 b 396 -208 363 -162 396 -178 b 93 -293 396 -249 369 -269 l 93 -368 b 499 -199 467 -335 499 -281 b 318 -83 499 -139 468 -107 l 386 29 z "},"˛":{"ha":853,"x_min":0,"x_max":0,"o":"m 115 -235 b 247 -321 115 -287 144 -315 l 350 -326 l 382 -244 l 296 -239 b 228 -203 240 -236 228 -225 b 383 14 228 -172 238 -133 l 344 38 b 115 -235 143 -131 115 -181 z "},"Á":{"ha":853,"x_min":0,"x_max":0,"o":"m 494 1083 l 528 1015 l 901 1193 l 861 1281 z m 93 0 l 242 247 l 579 247 l 588 0 l 706 0 l 668 910 l 521 910 l -36 0 z m 299 344 l 565 792 l 579 344 z "},"À":{"ha":853,"x_min":0,"x_max":0,"o":"m 729 1074 l 472 1272 l 413 1193 l 683 1015 z m 93 0 l 242 247 l 579 247 l 588 0 l 706 0 l 668 910 l 521 910 l -36 0 z m 299 344 l 565 792 l 579 344 z "},"Â":{"ha":853,"x_min":0,"x_max":0,"o":"m 353 1061 l 388 1003 l 647 1164 l 817 1003 l 874 1056 l 686 1265 l 633 1265 z m 93 0 l 242 247 l 579 247 l 588 0 l 706 0 l 668 910 l 521 910 l -36 0 z m 299 344 l 565 792 l 579 344 z "},"Ậ":{"ha":853,"x_min":0,"x_max":0,"o":"m 353 1061 l 388 1003 l 647 1164 l 817 1003 l 874 1056 l 686 1265 l 633 1265 z m 93 0 l 242 247 l 579 247 l 588 0 l 706 0 l 668 910 l 521 910 l -36 0 z m 299 344 l 565 792 l 579 344 z m 307 -289 b 413 -183 369 -289 413 -246 b 338 -125 413 -144 385 -125 b 232 -232 274 -125 232 -178 b 307 -289 232 -274 263 -289 z "},"Ấ":{"ha":853,"x_min":0,"x_max":0,"o":"m 803 1290 l 838 1226 l 1089 1343 l 1047 1426 z m 357 1064 l 386 1003 l 642 1143 l 817 1003 l 874 1054 l 683 1242 l 631 1242 z m 93 0 l 242 247 l 579 247 l 588 0 l 706 0 l 668 910 l 521 910 l -36 0 z m 299 344 l 565 792 l 579 344 z "},"Ầ":{"ha":853,"x_min":0,"x_max":0,"o":"m 999 1290 l 821 1433 l 754 1353 l 951 1228 z m 356 1064 l 388 1003 l 642 1143 l 817 1003 l 874 1054 l 683 1242 l 631 1242 z m 93 0 l 242 247 l 579 247 l 588 0 l 706 0 l 668 910 l 521 910 l -36 0 z m 299 344 l 565 792 l 579 344 z "},"Ẩ":{"ha":853,"x_min":0,"x_max":0,"o":"m 804 1229 b 1088 1368 1026 1260 1088 1300 b 843 1485 1088 1419 1031 1456 l 771 1419 l 771 1417 b 975 1354 939 1389 975 1375 b 794 1288 975 1331 951 1314 l 793 1285 z m 356 1064 l 388 1003 l 642 1143 l 817 1003 l 874 1054 l 683 1242 l 631 1242 z m 93 0 l 242 247 l 579 247 l 588 0 l 706 0 l 668 910 l 521 910 l -36 0 z m 299 344 l 565 792 l 579 344 z "},"Ẫ":{"ha":853,"x_min":0,"x_max":0,"o":"m 744 1428 b 636 1493 689 1486 668 1493 b 457 1317 593 1493 557 1471 l 519 1282 b 636 1403 594 1392 615 1403 b 706 1350 653 1403 664 1394 b 817 1285 761 1292 785 1285 b 1007 1469 863 1285 901 1307 l 946 1508 b 815 1375 861 1386 839 1375 b 744 1428 799 1375 788 1383 z m 356 1064 l 388 1003 l 642 1143 l 817 1003 l 874 1054 l 683 1242 l 631 1242 z m 93 0 l 242 247 l 579 247 l 588 0 l 706 0 l 668 910 l 521 910 l -36 0 z m 299 344 l 565 792 l 579 344 z "},"Ǎ":{"ha":853,"x_min":0,"x_max":0,"o":"m 396 1225 l 582 1015 l 635 1015 l 917 1219 l 881 1278 l 621 1115 l 451 1278 z m 93 0 l 242 247 l 579 247 l 588 0 l 706 0 l 668 910 l 521 910 l -36 0 z m 299 344 l 565 792 l 579 344 z "},"Ă":{"ha":853,"x_min":0,"x_max":0,"o":"m 626 1104 b 493 1268 544 1104 500 1149 l 419 1249 b 619 1015 419 1081 488 1015 b 929 1238 742 1015 840 1078 l 854 1268 b 626 1104 778 1150 708 1104 z m 93 0 l 242 247 l 579 247 l 588 0 l 706 0 l 668 910 l 521 910 l -36 0 z m 299 344 l 565 792 l 579 344 z "},"Ặ":{"ha":853,"x_min":0,"x_max":0,"o":"m 626 1104 b 493 1268 544 1104 500 1149 l 419 1249 b 619 1015 419 1081 488 1015 b 929 1238 742 1015 840 1078 l 854 1268 b 626 1104 778 1150 708 1104 z m 93 0 l 242 247 l 579 247 l 588 0 l 706 0 l 668 910 l 521 910 l -36 0 z m 299 344 l 565 792 l 579 344 z m 307 -289 b 413 -183 369 -289 413 -246 b 338 -125 413 -144 385 -125 b 232 -232 274 -125 232 -178 b 307 -289 232 -274 263 -289 z "},"Ắ":{"ha":853,"x_min":0,"x_max":0,"o":"m 604 1242 l 982 1399 l 946 1486 l 575 1310 z m 626 1104 b 488 1250 544 1104 494 1142 l 415 1228 b 622 1015 415 1072 489 1015 b 922 1211 744 1015 843 1071 l 847 1246 b 626 1104 781 1142 708 1104 z m 93 0 l 242 247 l 579 247 l 588 0 l 706 0 l 668 910 l 521 910 l -36 0 z m 299 344 l 565 792 l 579 344 z "},"Ằ":{"ha":853,"x_min":0,"x_max":0,"o":"m 765 1304 l 492 1483 l 438 1399 l 725 1242 z m 626 1104 b 488 1250 544 1104 494 1142 l 415 1228 b 622 1015 415 1072 489 1015 b 922 1211 744 1015 843 1071 l 846 1246 b 626 1104 781 1142 708 1104 z m 93 0 l 242 247 l 579 247 l 588 0 l 706 0 l 668 910 l 521 910 l -36 0 z m 299 344 l 565 792 l 579 344 z "},"Ẳ":{"ha":853,"x_min":0,"x_max":0,"o":"m 575 1243 b 860 1382 799 1274 860 1314 b 615 1499 860 1433 803 1469 l 542 1433 l 542 1431 b 746 1368 711 1403 746 1389 b 567 1301 746 1344 724 1328 l 565 1299 z m 628 1104 b 489 1250 546 1104 496 1142 l 417 1228 b 624 1015 417 1072 490 1015 b 924 1211 746 1015 844 1071 l 847 1246 b 628 1104 782 1142 710 1104 z m 93 0 l 242 247 l 579 247 l 588 0 l 706 0 l 668 910 l 521 910 l -36 0 z m 299 344 l 565 792 l 579 344 z "},"Ẵ":{"ha":853,"x_min":0,"x_max":0,"o":"m 729 1439 b 622 1504 675 1499 653 1504 b 443 1328 579 1504 543 1482 l 504 1294 b 621 1414 581 1403 600 1414 b 692 1363 639 1414 649 1406 b 801 1297 747 1303 771 1297 b 992 1482 847 1297 886 1318 l 931 1519 b 800 1388 847 1397 824 1388 b 729 1439 783 1388 772 1396 z m 626 1104 b 488 1250 544 1104 494 1142 l 415 1228 b 622 1015 415 1072 489 1015 b 922 1211 744 1015 843 1071 l 846 1246 b 626 1104 781 1142 708 1104 z m 93 0 l 242 247 l 579 247 l 588 0 l 706 0 l 668 910 l 521 910 l -36 0 z m 299 344 l 565 792 l 579 344 z "},"Ã":{"ha":853,"x_min":0,"x_max":0,"o":"m 933 1221 l 867 1257 b 732 1106 772 1121 753 1106 b 657 1169 717 1106 704 1113 b 546 1256 603 1238 579 1256 b 333 1051 497 1256 453 1232 l 400 1013 b 535 1164 494 1149 513 1164 b 608 1100 550 1164 561 1157 b 719 1015 663 1032 686 1015 b 933 1221 769 1015 814 1040 z m 93 0 l 242 247 l 579 247 l 588 0 l 706 0 l 668 910 l 521 910 l -36 0 z m 299 344 l 565 792 l 579 344 z "},"Ā":{"ha":853,"x_min":0,"x_max":0,"o":"m 392 1071 l 851 1071 l 878 1163 l 417 1163 z m 93 0 l 242 247 l 579 247 l 588 0 l 706 0 l 668 910 l 521 910 l -36 0 z m 299 344 l 565 792 l 579 344 z "},"Ä":{"ha":853,"x_min":0,"x_max":0,"o":"m 442 1043 b 546 1147 503 1043 546 1085 b 472 1206 546 1189 518 1206 b 368 1100 410 1206 368 1154 b 442 1043 368 1063 399 1043 z m 806 1043 b 910 1147 865 1043 910 1086 b 836 1206 910 1189 882 1206 b 731 1100 772 1206 731 1154 b 806 1043 731 1064 758 1043 z m 93 0 l 242 247 l 579 247 l 588 0 l 706 0 l 668 910 l 521 910 l -36 0 z m 299 344 l 565 792 l 579 344 z "},"Ȧ":{"ha":853,"x_min":0,"x_max":0,"o":"m 625 1043 b 733 1153 693 1043 733 1092 b 656 1213 733 1193 703 1213 b 546 1104 589 1213 546 1156 b 625 1043 546 1064 575 1043 z m 93 0 l 242 247 l 579 247 l 588 0 l 706 0 l 668 910 l 521 910 l -36 0 z m 299 344 l 565 792 l 579 344 z "},"Å":{"ha":853,"x_min":0,"x_max":0,"o":"m 93 0 l 242 247 l 579 247 l 588 0 l 706 0 l 672 826 b 836 1008 785 850 836 928 b 635 1151 836 1097 756 1151 b 393 961 468 1151 393 1060 b 478 840 393 906 425 864 l -36 0 z m 622 1076 b 747 1004 706 1076 747 1049 b 608 894 747 949 701 894 b 483 965 525 894 483 921 b 622 1076 483 1021 528 1076 z m 299 344 l 565 792 l 579 344 z "},"Ả":{"ha":853,"x_min":0,"x_max":0,"o":"m 504 1015 b 849 1174 810 1050 849 1117 b 606 1299 849 1229 792 1271 l 532 1236 l 532 1232 b 735 1163 700 1206 735 1188 b 494 1075 735 1135 710 1111 l 493 1072 z m 93 0 l 242 247 l 579 247 l 588 0 l 706 0 l 668 910 l 521 910 l -36 0 z m 299 344 l 565 792 l 579 344 z "},"Ạ":{"ha":853,"x_min":0,"x_max":0,"o":"m 93 0 l 242 247 l 579 247 l 588 0 l 706 0 l 668 910 l 521 910 l -36 0 z m 299 344 l 565 792 l 579 344 z m 307 -289 b 413 -183 369 -289 413 -246 b 338 -125 413 -144 385 -125 b 232 -232 274 -125 232 -178 b 307 -289 232 -274 263 -289 z "},"Ą":{"ha":853,"x_min":0,"x_max":0,"o":"m 93 0 l 242 247 l 579 247 l 588 0 l 607 0 b 424 -235 447 -139 424 -185 b 554 -321 424 -287 453 -315 l 658 -326 l 689 -244 l 603 -239 b 535 -203 549 -236 535 -225 b 678 0 535 -174 544 -136 l 706 0 l 668 910 l 521 910 l -36 0 z m 299 344 l 565 792 l 579 344 z "},"Æ":{"ha":853,"x_min":0,"x_max":0,"o":"m 17 0 l 171 253 l 393 253 l 321 0 l 721 0 l 749 97 l 465 97 l 556 413 l 807 413 l 833 507 l 583 507 l 671 813 l 954 813 l 982 910 l 469 910 l -101 0 z m 228 346 l 514 813 l 554 813 l 419 346 z "},"Ḇ":{"ha":853,"x_min":0,"x_max":0,"o":"m 300 910 l 39 0 l 382 0 b 767 271 653 0 767 122 b 586 461 767 367 706 436 l 586 467 b 867 732 793 511 867 617 b 626 910 867 836 790 910 z m 594 815 b 736 708 693 815 736 774 b 451 517 736 617 650 525 l 303 508 l 390 815 z m 442 417 b 644 278 585 411 644 356 b 407 94 644 182 567 94 l 185 94 l 279 424 z m 31 -251 l 493 -251 l 519 -161 l 57 -161 z "},"Ć":{"ha":853,"x_min":0,"x_max":0,"o":"m 551 1086 l 585 1018 l 958 1196 l 918 1283 z m 376 -21 b 731 104 486 -21 582 8 l 675 192 b 382 79 539 108 461 79 b 217 283 289 79 217 146 b 615 831 217 561 388 831 b 844 719 689 831 743 813 l 915 807 b 622 931 807 904 732 931 b 92 279 299 931 92 599 b 376 -21 92 82 192 -21 z "},"Ĉ":{"ha":853,"x_min":0,"x_max":0,"o":"m 411 1071 l 446 1013 l 706 1174 l 875 1013 l 932 1065 l 744 1275 l 692 1275 z m 376 -21 b 731 104 486 -21 582 8 l 675 192 b 382 79 539 108 461 79 b 217 283 289 79 217 146 b 615 831 217 561 388 831 b 844 719 689 831 743 813 l 915 807 b 622 931 807 904 732 931 b 92 279 299 931 92 599 b 376 -21 92 82 192 -21 z "},"Č":{"ha":853,"x_min":0,"x_max":0,"o":"m 453 1228 l 639 1018 l 692 1018 l 974 1222 l 938 1281 l 678 1118 l 508 1281 z m 376 -21 b 731 104 486 -21 582 8 l 675 192 b 382 79 539 108 461 79 b 217 283 289 79 217 146 b 615 831 217 561 388 831 b 844 719 689 831 743 813 l 915 807 b 622 931 807 904 732 931 b 92 279 299 931 92 599 b 376 -21 92 82 192 -21 z "},"Ċ":{"ha":853,"x_min":0,"x_max":0,"o":"m 681 1046 b 789 1156 749 1046 789 1094 b 711 1215 789 1196 758 1215 b 601 1107 644 1215 601 1158 b 681 1046 601 1067 631 1046 z m 376 -21 b 731 104 486 -21 582 8 l 675 192 b 382 79 539 108 461 79 b 217 283 289 79 217 146 b 615 831 217 561 388 831 b 844 719 689 831 743 813 l 915 807 b 622 931 807 904 732 931 b 92 279 299 931 92 599 b 376 -21 92 82 192 -21 z "},"Ç":{"ha":853,"x_min":0,"x_max":0,"o":"m 529 -206 b 349 -90 529 -146 499 -114 l 390 -21 b 731 104 494 -18 589 13 l 675 192 b 382 79 539 108 461 79 b 217 283 289 79 217 146 b 615 831 217 561 388 831 b 844 719 689 831 743 813 l 915 807 b 622 931 807 904 732 931 b 92 279 299 931 92 599 b 324 -18 92 101 172 1 l 244 -142 l 249 -156 b 426 -215 394 -169 426 -185 b 125 -300 426 -256 401 -276 l 125 -375 b 529 -206 499 -342 529 -287 z "},"Ď":{"ha":853,"x_min":0,"x_max":0,"o":"m 371 1225 l 557 1015 l 610 1015 l 892 1219 l 856 1278 l 596 1115 l 426 1278 z m 297 910 l 36 0 l 146 0 b 682 182 397 0 569 71 b 843 586 789 290 843 431 b 763 808 843 682 815 756 b 424 910 700 871 590 910 z m 718 589 b 185 100 718 325 519 104 l 389 810 l 406 810 b 718 589 647 810 718 729 z "},"Ḓ":{"ha":853,"x_min":0,"x_max":0,"o":"m 297 910 l 36 0 l 146 0 b 682 182 397 0 569 71 b 843 586 789 290 843 431 b 763 808 843 682 815 756 b 424 910 700 871 590 910 z m 718 589 b 185 100 718 325 519 104 l 389 810 l 406 810 b 718 589 647 810 718 729 z m 443 -349 l 279 -104 l 218 -104 l -68 -335 l -29 -389 l 231 -206 l 385 -389 z "},"Ḏ":{"ha":853,"x_min":0,"x_max":0,"o":"m 297 910 l 36 0 l 146 0 b 682 182 397 0 569 71 b 843 586 789 290 843 431 b 763 808 843 682 815 756 b 424 910 700 871 590 910 z m 718 589 b 185 100 718 325 519 104 l 389 810 l 406 810 b 718 589 647 810 718 729 z m -12 -251 l 450 -251 l 476 -161 l 14 -161 z "},"Ḍ":{"ha":853,"x_min":0,"x_max":0,"o":"m 297 910 l 36 0 l 146 0 b 682 182 397 0 569 71 b 843 586 789 290 843 431 b 763 808 843 682 815 756 b 424 910 700 871 590 910 z m 718 589 b 185 100 718 325 519 104 l 389 810 l 406 810 b 718 589 647 810 718 729 z m 217 -296 b 322 -190 279 -296 322 -253 b 247 -132 322 -151 294 -132 b 142 -239 183 -132 142 -185 b 217 -296 142 -281 172 -296 z "},"Đ":{"ha":853,"x_min":0,"x_max":0,"o":"m 69 421 l 186 421 l 65 0 l 175 0 b 682 182 413 0 574 74 b 844 586 790 290 844 431 b 764 810 844 682 817 757 b 444 910 696 878 594 910 l 326 910 l 207 496 l 92 496 z m 475 421 l 497 496 l 328 496 l 418 810 l 465 810 b 719 589 640 810 719 733 b 214 100 719 325 531 104 l 306 421 z "},"É":{"ha":853,"x_min":0,"x_max":0,"o":"m 543 1083 l 576 1015 l 950 1193 l 910 1281 z m 304 910 l 43 0 l 660 0 l 689 100 l 193 100 l 282 410 l 693 410 l 722 510 l 310 510 l 396 810 l 883 810 l 913 910 z "},"È":{"ha":853,"x_min":0,"x_max":0,"o":"m 778 1074 l 521 1272 l 461 1193 l 732 1015 z m 304 910 l 43 0 l 660 0 l 689 100 l 193 100 l 282 410 l 693 410 l 722 510 l 310 510 l 396 810 l 883 810 l 913 910 z "},"Ê":{"ha":853,"x_min":0,"x_max":0,"o":"m 406 1075 l 440 1017 l 700 1178 l 869 1017 l 926 1069 l 739 1279 l 686 1279 z m 304 910 l 43 0 l 660 0 l 689 100 l 193 100 l 282 410 l 693 410 l 722 510 l 310 510 l 396 810 l 883 810 l 913 910 z "},"Ệ":{"ha":853,"x_min":0,"x_max":0,"o":"m 406 1075 l 440 1017 l 700 1178 l 869 1017 l 926 1069 l 739 1279 l 686 1279 z m 304 910 l 43 0 l 660 0 l 689 100 l 193 100 l 282 410 l 693 410 l 722 510 l 310 510 l 396 810 l 883 810 l 913 910 z m 292 -296 b 397 -190 354 -296 397 -253 b 322 -132 397 -151 369 -132 b 217 -239 258 -132 217 -185 b 292 -296 217 -281 247 -296 z "},"Ế":{"ha":853,"x_min":0,"x_max":0,"o":"m 856 1304 l 890 1240 l 1142 1357 l 1100 1440 z m 410 1078 l 439 1017 l 694 1157 l 869 1017 l 926 1068 l 736 1256 l 683 1256 z m 304 910 l 43 0 l 660 0 l 689 100 l 193 100 l 282 410 l 693 410 l 722 510 l 310 510 l 396 810 l 883 810 l 913 910 z "},"Ề":{"ha":853,"x_min":0,"x_max":0,"o":"m 1051 1304 l 874 1447 l 807 1367 l 1004 1242 z m 408 1078 l 440 1017 l 694 1157 l 869 1017 l 926 1068 l 736 1256 l 683 1256 z m 304 910 l 43 0 l 660 0 l 689 100 l 193 100 l 282 410 l 693 410 l 722 510 l 310 510 l 396 810 l 883 810 l 913 910 z "},"Ể":{"ha":853,"x_min":0,"x_max":0,"o":"m 857 1243 b 1140 1382 1079 1274 1140 1314 b 896 1499 1140 1433 1083 1469 l 824 1433 l 824 1431 b 1028 1368 992 1403 1028 1389 b 847 1301 1028 1344 1004 1328 l 846 1299 z m 408 1078 l 440 1017 l 694 1157 l 869 1017 l 926 1068 l 736 1256 l 683 1256 z m 304 910 l 43 0 l 660 0 l 689 100 l 193 100 l 282 410 l 693 410 l 722 510 l 310 510 l 396 810 l 883 810 l 913 910 z "},"Ễ":{"ha":853,"x_min":0,"x_max":0,"o":"m 797 1442 b 689 1507 742 1500 721 1507 b 510 1331 646 1507 610 1485 l 572 1296 b 689 1417 647 1406 668 1417 b 758 1364 706 1417 717 1408 b 869 1299 814 1306 838 1299 b 1060 1483 915 1299 954 1321 l 999 1522 b 868 1389 914 1400 892 1389 b 797 1442 851 1389 840 1397 z m 408 1078 l 440 1017 l 694 1157 l 869 1017 l 926 1068 l 736 1256 l 683 1256 z m 304 910 l 43 0 l 660 0 l 689 100 l 193 100 l 282 410 l 693 410 l 722 510 l 310 510 l 396 810 l 883 810 l 913 910 z "},"Ě":{"ha":853,"x_min":0,"x_max":0,"o":"m 444 1225 l 631 1015 l 683 1015 l 965 1219 l 929 1278 l 669 1115 l 500 1278 z m 304 910 l 43 0 l 660 0 l 689 100 l 193 100 l 282 410 l 693 410 l 722 510 l 310 510 l 396 810 l 883 810 l 913 910 z "},"Ĕ":{"ha":853,"x_min":0,"x_max":0,"o":"m 675 1104 b 542 1268 593 1104 549 1149 l 468 1249 b 668 1015 468 1081 536 1015 b 978 1238 790 1015 889 1078 l 903 1268 b 675 1104 826 1150 757 1104 z m 304 910 l 43 0 l 660 0 l 689 100 l 193 100 l 282 410 l 693 410 l 722 510 l 310 510 l 396 810 l 883 810 l 913 910 z "},"Ẽ":{"ha":853,"x_min":0,"x_max":0,"o":"m 982 1221 l 915 1257 b 781 1106 821 1121 801 1106 b 706 1169 765 1106 753 1113 b 594 1256 651 1238 628 1256 b 382 1051 546 1256 501 1232 l 449 1013 b 583 1164 543 1149 561 1164 b 657 1100 599 1164 610 1157 b 768 1015 711 1032 735 1015 b 982 1221 818 1015 863 1040 z m 304 910 l 43 0 l 660 0 l 689 100 l 193 100 l 282 410 l 693 410 l 722 510 l 310 510 l 396 810 l 883 810 l 913 910 z "},"Ē":{"ha":853,"x_min":0,"x_max":0,"o":"m 440 1071 l 900 1071 l 926 1163 l 465 1163 z m 304 910 l 43 0 l 660 0 l 689 100 l 193 100 l 282 410 l 693 410 l 722 510 l 310 510 l 396 810 l 883 810 l 913 910 z "},"Ë":{"ha":853,"x_min":0,"x_max":0,"o":"m 489 1043 b 593 1147 550 1043 593 1085 b 519 1206 593 1189 565 1206 b 415 1100 457 1206 415 1154 b 489 1043 415 1063 446 1043 z m 853 1043 b 957 1147 913 1043 957 1086 b 883 1206 957 1189 929 1206 b 778 1100 819 1206 778 1154 b 853 1043 778 1064 806 1043 z m 304 910 l 43 0 l 660 0 l 689 100 l 193 100 l 282 410 l 693 410 l 722 510 l 310 510 l 396 810 l 883 810 l 913 910 z "},"Ė":{"ha":853,"x_min":0,"x_max":0,"o":"m 672 1043 b 781 1153 740 1043 781 1092 b 703 1213 781 1193 750 1213 b 593 1104 636 1213 593 1156 b 672 1043 593 1064 622 1043 z m 304 910 l 43 0 l 660 0 l 689 100 l 193 100 l 282 410 l 693 410 l 722 510 l 310 510 l 396 810 l 883 810 l 913 910 z "},"Ẻ":{"ha":853,"x_min":0,"x_max":0,"o":"m 551 1015 b 896 1174 857 1050 896 1117 b 653 1299 896 1229 839 1271 l 579 1236 l 579 1232 b 782 1163 747 1206 782 1188 b 542 1075 782 1135 757 1111 l 540 1072 z m 304 910 l 43 0 l 660 0 l 689 100 l 193 100 l 282 410 l 693 410 l 722 510 l 310 510 l 396 810 l 883 810 l 913 910 z "},"Ẹ":{"ha":853,"x_min":0,"x_max":0,"o":"m 304 910 l 43 0 l 660 0 l 689 100 l 193 100 l 282 410 l 693 410 l 722 510 l 310 510 l 396 810 l 883 810 l 913 910 z m 292 -296 b 397 -190 354 -296 397 -253 b 322 -132 397 -151 369 -132 b 217 -239 258 -132 217 -185 b 292 -296 217 -281 247 -296 z "},"Ę":{"ha":853,"x_min":0,"x_max":0,"o":"m 329 -235 b 461 -321 329 -287 358 -315 l 564 -326 l 594 -244 l 510 -239 b 442 -203 454 -236 442 -225 b 583 0 442 -174 451 -136 l 660 0 l 689 100 l 193 100 l 282 410 l 693 410 l 722 510 l 310 510 l 396 810 l 883 810 l 913 910 l 304 910 l 43 0 l 513 0 b 329 -235 353 -139 329 -185 z "},"Ĝ":{"ha":853,"x_min":0,"x_max":0,"o":"m 428 1072 l 463 1014 l 722 1175 l 892 1014 l 949 1067 l 761 1276 l 708 1276 z m 851 807 l 874 908 b 708 922 804 919 758 922 b 82 310 290 922 82 618 b 435 -21 82 99 194 -21 b 664 11 507 -21 576 -14 l 813 490 l 479 490 l 453 393 l 668 393 l 574 93 b 449 79 529 83 485 79 b 207 311 282 79 207 156 b 703 821 207 579 375 821 b 851 807 754 821 793 818 z "},"Ǧ":{"ha":853,"x_min":0,"x_max":0,"o":"m 469 1229 l 656 1019 l 708 1019 l 990 1224 l 954 1282 l 694 1119 l 525 1282 z m 851 807 l 874 908 b 708 922 804 919 758 922 b 82 310 290 922 82 618 b 435 -21 82 99 194 -21 b 664 11 507 -21 576 -14 l 813 490 l 479 490 l 453 393 l 668 393 l 574 93 b 449 79 529 83 485 79 b 207 311 282 79 207 156 b 703 821 207 579 375 821 b 851 807 754 821 793 818 z "},"Ğ":{"ha":853,"x_min":0,"x_max":0,"o":"m 700 1108 b 567 1272 618 1108 574 1153 l 493 1253 b 693 1019 493 1085 561 1019 b 1003 1242 815 1019 914 1082 l 928 1272 b 700 1108 851 1154 782 1108 z m 851 807 l 874 908 b 708 922 804 919 758 922 b 82 310 290 922 82 618 b 435 -21 82 99 194 -21 b 664 11 507 -21 576 -14 l 813 490 l 479 490 l 453 393 l 668 393 l 574 93 b 449 79 529 83 485 79 b 207 311 282 79 207 156 b 703 821 207 579 375 821 b 851 807 754 821 793 818 z "},"Ḡ":{"ha":853,"x_min":0,"x_max":0,"o":"m 465 1075 l 925 1075 l 951 1167 l 490 1167 z m 851 807 l 874 908 b 708 922 804 919 758 922 b 82 310 290 922 82 618 b 435 -21 82 99 194 -21 b 664 11 507 -21 576 -14 l 813 490 l 479 490 l 453 393 l 668 393 l 574 93 b 449 79 529 83 485 79 b 207 311 282 79 207 156 b 703 821 207 579 375 821 b 851 807 754 821 793 818 z "},"Ġ":{"ha":853,"x_min":0,"x_max":0,"o":"m 697 1047 b 806 1157 765 1047 806 1096 b 728 1217 806 1197 775 1217 b 618 1108 661 1217 618 1160 b 697 1047 618 1068 647 1047 z m 851 807 l 874 908 b 708 922 804 919 758 922 b 82 310 290 922 82 618 b 435 -21 82 99 194 -21 b 664 11 507 -21 576 -14 l 813 490 l 479 490 l 453 393 l 668 393 l 574 93 b 449 79 529 83 485 79 b 207 311 282 79 207 156 b 703 821 207 579 375 821 b 851 807 754 821 793 818 z "},"Ģ":{"ha":853,"x_min":0,"x_max":0,"o":"m 851 807 l 874 908 b 708 922 804 919 758 922 b 82 310 290 922 82 618 b 435 -21 82 99 194 -21 b 664 11 507 -21 576 -14 l 813 490 l 479 490 l 453 393 l 668 393 l 574 93 b 449 79 529 83 485 79 b 207 311 282 79 207 156 b 703 821 207 579 375 821 b 851 807 754 821 793 818 z m 171 -418 b 501 -240 428 -396 501 -322 b 279 -111 501 -182 449 -136 l 211 -168 l 211 -172 b 390 -249 358 -196 390 -221 b 165 -353 390 -286 351 -326 l 164 -354 z "},"Ĥ":{"ha":853,"x_min":0,"x_max":0,"o":"m 376 1075 l 411 1017 l 671 1178 l 840 1017 l 897 1069 l 710 1279 l 657 1279 z m 296 910 l 36 0 l 156 0 l 272 408 l 628 408 l 511 0 l 632 0 l 893 910 l 772 910 l 657 510 l 301 510 l 417 910 z "},"Ḫ":{"ha":853,"x_min":0,"x_max":0,"o":"m 296 910 l 36 0 l 156 0 l 272 408 l 628 408 l 511 0 l 632 0 l 893 910 l 772 910 l 657 510 l 301 510 l 417 910 z m 244 -290 b 117 -106 163 -290 124 -236 l 42 -125 b 236 -378 42 -307 110 -378 b 556 -135 364 -378 457 -311 l 476 -106 b 244 -290 396 -236 326 -290 z "},"Ḥ":{"ha":853,"x_min":0,"x_max":0,"o":"m 296 910 l 36 0 l 156 0 l 272 408 l 628 408 l 511 0 l 632 0 l 893 910 l 772 910 l 657 510 l 301 510 l 417 910 z m 260 -289 b 365 -183 322 -289 365 -246 b 290 -125 365 -144 338 -125 b 185 -232 226 -125 185 -178 b 260 -289 185 -274 215 -289 z "},"Ḩ":{"ha":853,"x_min":0,"x_max":0,"o":"m 296 910 l 36 0 l 63 0 l -24 -135 l -19 -149 b 158 -208 126 -162 158 -178 b -143 -293 158 -249 133 -269 l -143 -368 b 261 -199 231 -335 261 -281 b 81 -83 261 -140 232 -107 l 131 0 l 156 0 l 272 408 l 628 408 l 511 0 l 632 0 l 893 910 l 772 910 l 657 510 l 301 510 l 417 910 z "},"Ħ":{"ha":853,"x_min":0,"x_max":0,"o":"m 138 657 l 253 657 l 65 0 l 183 0 l 289 369 l 590 369 l 485 0 l 603 0 l 792 657 l 907 657 l 928 731 l 813 731 l 864 910 l 746 910 l 693 728 l 392 728 l 444 910 l 325 910 l 274 731 l 158 731 z m 317 467 l 372 658 l 674 658 l 618 467 z "},"Í":{"ha":853,"x_min":0,"x_max":0,"o":"m 514 1083 l 547 1015 l 921 1193 l 881 1281 z m 108 60 l 90 0 l 579 0 l 596 60 l 413 90 l 636 815 l 821 850 l 839 910 l 349 910 l 332 850 l 517 819 l 293 94 z "},"Ì":{"ha":853,"x_min":0,"x_max":0,"o":"m 749 1074 l 492 1272 l 432 1193 l 703 1015 z m 108 60 l 90 0 l 579 0 l 596 60 l 413 90 l 636 815 l 821 850 l 839 910 l 349 910 l 332 850 l 517 819 l 293 94 z "},"Î":{"ha":853,"x_min":0,"x_max":0,"o":"m 375 1075 l 410 1017 l 669 1178 l 839 1017 l 896 1069 l 708 1279 l 656 1279 z m 108 60 l 90 0 l 579 0 l 596 60 l 413 90 l 636 815 l 821 850 l 839 910 l 349 910 l 332 850 l 517 819 l 293 94 z "},"Ǐ":{"ha":853,"x_min":0,"x_max":0,"o":"m 415 1225 l 601 1015 l 654 1015 l 936 1219 l 900 1278 l 640 1115 l 471 1278 z m 108 60 l 90 0 l 579 0 l 596 60 l 413 90 l 636 815 l 821 850 l 839 910 l 349 910 l 332 850 l 517 819 l 293 94 z "},"Ĭ":{"ha":853,"x_min":0,"x_max":0,"o":"m 646 1104 b 513 1268 564 1104 519 1149 l 439 1249 b 639 1015 439 1081 507 1015 b 949 1238 761 1015 860 1078 l 874 1268 b 646 1104 797 1150 728 1104 z m 108 60 l 90 0 l 579 0 l 596 60 l 413 90 l 636 815 l 821 850 l 839 910 l 349 910 l 332 850 l 517 819 l 293 94 z "},"Ĩ":{"ha":853,"x_min":0,"x_max":0,"o":"m 953 1221 l 886 1257 b 751 1106 792 1121 772 1106 b 676 1169 736 1106 724 1113 b 565 1256 622 1238 599 1256 b 353 1051 517 1256 472 1232 l 419 1013 b 554 1164 514 1149 532 1164 b 628 1100 569 1164 581 1157 b 739 1015 682 1032 706 1015 b 953 1221 789 1015 833 1040 z m 108 60 l 90 0 l 579 0 l 596 60 l 413 90 l 636 815 l 821 850 l 839 910 l 349 910 l 332 850 l 517 819 l 293 94 z "},"Ī":{"ha":853,"x_min":0,"x_max":0,"o":"m 411 1071 l 871 1071 l 897 1163 l 436 1163 z m 108 60 l 90 0 l 579 0 l 596 60 l 413 90 l 636 815 l 821 850 l 839 910 l 349 910 l 332 850 l 517 819 l 293 94 z "},"Ï":{"ha":853,"x_min":0,"x_max":0,"o":"m 460 1043 b 564 1147 521 1043 564 1085 b 490 1206 564 1189 536 1206 b 386 1100 428 1206 386 1154 b 460 1043 386 1063 417 1043 z m 824 1043 b 928 1147 883 1043 928 1086 b 854 1206 928 1189 900 1206 b 749 1100 790 1206 749 1154 b 824 1043 749 1064 776 1043 z m 108 60 l 90 0 l 579 0 l 596 60 l 413 90 l 636 815 l 821 850 l 839 910 l 349 910 l 332 850 l 517 819 l 293 94 z "},"İ":{"ha":853,"x_min":0,"x_max":0,"o":"m 643 1043 b 751 1153 711 1043 751 1092 b 674 1213 751 1193 721 1213 b 564 1104 607 1213 564 1156 b 643 1043 564 1064 593 1043 z m 108 60 l 90 0 l 579 0 l 596 60 l 413 90 l 636 815 l 821 850 l 839 910 l 349 910 l 332 850 l 517 819 l 293 94 z "},"Ỉ":{"ha":853,"x_min":0,"x_max":0,"o":"m 522 1015 b 867 1174 828 1050 867 1117 b 624 1299 867 1229 810 1271 l 550 1236 l 550 1232 b 753 1163 718 1206 753 1188 b 513 1075 753 1135 728 1111 l 511 1072 z m 108 60 l 90 0 l 579 0 l 596 60 l 413 90 l 636 815 l 821 850 l 839 910 l 349 910 l 332 850 l 517 819 l 293 94 z "},"Ị":{"ha":853,"x_min":0,"x_max":0,"o":"m 108 60 l 90 0 l 579 0 l 596 60 l 413 90 l 636 815 l 821 850 l 839 910 l 349 910 l 332 850 l 517 819 l 293 94 z m 257 -296 b 363 -190 319 -296 363 -253 b 288 -132 363 -151 335 -132 b 182 -239 224 -132 182 -185 b 257 -296 182 -281 213 -296 z "},"Į":{"ha":853,"x_min":0,"x_max":0,"o":"m 108 60 l 90 0 l 299 0 b 117 -233 140 -139 117 -183 b 247 -319 117 -287 146 -315 l 350 -325 l 382 -244 l 296 -239 b 228 -201 240 -235 228 -224 b 369 0 228 -174 238 -136 l 579 0 l 596 60 l 413 90 l 636 815 l 821 850 l 839 910 l 349 910 l 332 850 l 517 819 l 293 94 z "},"Ĵ":{"ha":853,"x_min":0,"x_max":0,"o":"m 600 1061 l 635 1003 l 894 1164 l 1064 1003 l 1121 1056 l 933 1265 l 881 1265 z m 376 -17 b 699 261 554 -17 649 86 l 885 910 l 764 910 l 581 271 b 378 89 544 146 478 89 b 125 267 306 89 247 113 l 40 192 b 376 -17 175 24 261 -17 z "},"Ḵ":{"ha":853,"x_min":0,"x_max":0,"o":"m 421 910 l 300 910 l 40 0 l 161 0 l 289 446 l 583 0 l 728 0 l 728 3 l 429 453 l 974 907 l 974 910 l 813 910 l 296 471 z m 86 -251 l 549 -251 l 575 -161 l 113 -161 z "},"Ķ":{"ha":853,"x_min":0,"x_max":0,"o":"m 421 910 l 300 910 l 40 0 l 161 0 l 289 446 l 583 0 l 728 0 l 728 3 l 429 453 l 974 907 l 974 910 l 813 910 l 296 471 z m 146 -411 b 476 -233 403 -389 476 -315 b 254 -104 476 -175 424 -129 l 186 -161 l 186 -165 b 365 -242 333 -189 365 -214 b 140 -346 365 -279 326 -319 l 139 -347 z "},"Ḳ":{"ha":853,"x_min":0,"x_max":0,"o":"m 421 910 l 300 910 l 40 0 l 161 0 l 289 446 l 583 0 l 728 0 l 728 3 l 429 453 l 974 907 l 974 910 l 813 910 l 296 471 z m 315 -296 b 421 -190 378 -296 421 -253 b 346 -132 421 -151 393 -132 b 240 -239 282 -132 240 -185 b 315 -296 240 -281 271 -296 z "},"Ĺ":{"ha":853,"x_min":0,"x_max":0,"o":"m 290 1083 l 324 1015 l 697 1193 l 657 1281 z m 304 910 l 43 0 l 663 0 l 690 99 l 192 99 l 425 910 z "},"Ľ":{"ha":853,"x_min":0,"x_max":0,"o":"m 304 910 l 43 0 l 663 0 l 690 99 l 192 99 l 425 910 z m 563 599 l 640 599 l 769 910 l 651 910 z "},"Ļ":{"ha":853,"x_min":0,"x_max":0,"o":"m 304 910 l 43 0 l 663 0 l 690 99 l 192 99 l 425 910 z m 122 -411 b 453 -233 379 -389 453 -315 b 231 -104 453 -175 400 -129 l 163 -161 l 163 -165 b 342 -242 310 -189 342 -214 b 117 -346 342 -279 303 -319 l 115 -347 z "},"Ḽ":{"ha":853,"x_min":0,"x_max":0,"o":"m 304 910 l 43 0 l 663 0 l 690 99 l 192 99 l 425 910 z m 518 -349 l 354 -104 l 293 -104 l 7 -335 l 46 -389 l 306 -206 l 460 -389 z "},"Ḻ":{"ha":853,"x_min":0,"x_max":0,"o":"m 304 910 l 43 0 l 663 0 l 690 99 l 192 99 l 425 910 z m 63 -251 l 525 -251 l 551 -161 l 89 -161 z "},"Ḹ":{"ha":853,"x_min":0,"x_max":0,"o":"m 188 1071 l 647 1071 l 674 1163 l 213 1163 z m 304 910 l 43 0 l 663 0 l 690 99 l 192 99 l 425 910 z m 292 -296 b 397 -190 354 -296 397 -253 b 322 -132 397 -151 369 -132 b 217 -239 258 -132 217 -185 b 292 -296 217 -281 247 -296 z "},"Ḷ":{"ha":853,"x_min":0,"x_max":0,"o":"m 304 910 l 43 0 l 663 0 l 690 99 l 192 99 l 425 910 z m 292 -296 b 397 -190 354 -296 397 -253 b 322 -132 397 -151 369 -132 b 217 -239 258 -132 217 -185 b 292 -296 217 -281 247 -296 z "},"Ŀ":{"ha":853,"x_min":0,"x_max":0,"o":"m 304 910 l 43 0 l 663 0 l 690 99 l 192 99 l 425 910 z m 657 396 b 790 547 735 396 790 465 b 703 621 790 590 764 621 b 568 469 626 621 568 550 b 657 396 568 424 599 396 z "},"Ł":{"ha":853,"x_min":0,"x_max":0,"o":"m 43 268 l 181 347 l 82 0 l 663 0 l 690 99 l 231 99 l 322 417 l 654 608 l 682 707 l 350 515 l 463 910 l 342 910 l 210 447 l 71 368 z "},"Ḿ":{"ha":853,"x_min":0,"x_max":0,"o":"m 506 1079 l 539 1011 l 913 1189 l 872 1276 z m 899 910 l 757 910 l 460 456 l 422 910 l 293 910 l -6 0 l 107 0 l 349 757 l 390 249 l 419 249 l 758 771 l 560 0 l 674 0 z "},"Ṁ":{"ha":853,"x_min":0,"x_max":0,"o":"m 635 1039 b 743 1149 703 1039 743 1088 b 665 1208 743 1189 713 1208 b 556 1100 599 1208 556 1151 b 635 1039 556 1060 585 1039 z m 899 910 l 757 910 l 460 456 l 422 910 l 293 910 l -6 0 l 107 0 l 349 757 l 390 249 l 419 249 l 758 771 l 560 0 l 674 0 z "},"Ṃ":{"ha":853,"x_min":0,"x_max":0,"o":"m 899 910 l 757 910 l 460 456 l 422 910 l 293 910 l -6 0 l 107 0 l 349 757 l 390 249 l 419 249 l 758 771 l 560 0 l 674 0 z m 278 -296 b 383 -190 340 -296 383 -253 b 308 -132 383 -151 356 -132 b 203 -239 244 -132 203 -185 b 278 -296 203 -281 233 -296 z "},"Ń":{"ha":853,"x_min":0,"x_max":0,"o":"m 519 1076 l 553 1008 l 926 1186 l 886 1274 z m 144 0 l 358 771 l 497 0 l 636 0 l 896 910 l 785 910 l 575 153 l 439 910 l 293 910 l 32 0 z "},"Ǹ":{"ha":853,"x_min":0,"x_max":0,"o":"m 754 1067 l 497 1265 l 438 1186 l 708 1008 z m 144 0 l 358 771 l 497 0 l 636 0 l 896 910 l 785 910 l 575 153 l 439 910 l 293 910 l 32 0 z "},"Ň":{"ha":853,"x_min":0,"x_max":0,"o":"m 421 1218 l 607 1008 l 660 1008 l 942 1213 l 906 1271 l 646 1108 l 476 1271 z m 144 0 l 358 771 l 497 0 l 636 0 l 896 910 l 785 910 l 575 153 l 439 910 l 293 910 l 32 0 z "},"Ñ":{"ha":853,"x_min":0,"x_max":0,"o":"m 960 1221 l 893 1257 b 758 1106 799 1121 779 1106 b 683 1169 743 1106 731 1113 b 572 1256 629 1238 606 1256 b 360 1051 524 1256 479 1232 l 426 1013 b 561 1164 521 1149 539 1164 b 635 1100 576 1164 588 1157 b 746 1015 689 1032 713 1015 b 960 1221 796 1015 840 1040 z m 144 0 l 358 771 l 497 0 l 636 0 l 896 910 l 785 910 l 575 153 l 439 910 l 293 910 l 32 0 z "},"Ṅ":{"ha":853,"x_min":0,"x_max":0,"o":"m 647 1036 b 756 1146 715 1036 756 1085 b 678 1206 756 1186 725 1206 b 568 1097 611 1206 568 1149 b 647 1036 568 1057 597 1036 z m 144 0 l 358 771 l 497 0 l 636 0 l 896 910 l 785 910 l 575 153 l 439 910 l 293 910 l 32 0 z "},"Ṋ":{"ha":853,"x_min":0,"x_max":0,"o":"m 144 0 l 358 771 l 497 0 l 636 0 l 896 910 l 785 910 l 575 153 l 439 910 l 293 910 l 32 0 z m 496 -342 l 332 -97 l 271 -97 l -15 -328 l 24 -382 l 283 -199 l 438 -382 z "},"Ņ":{"ha":853,"x_min":0,"x_max":0,"o":"m 144 0 l 358 771 l 497 0 l 636 0 l 896 910 l 785 910 l 575 153 l 439 910 l 293 910 l 32 0 z m 100 -404 b 431 -226 357 -382 431 -308 b 208 -97 431 -168 378 -122 l 140 -154 l 140 -158 b 319 -235 288 -182 319 -207 b 94 -339 319 -272 281 -312 l 93 -340 z "},"Ṇ":{"ha":853,"x_min":0,"x_max":0,"o":"m 144 0 l 358 771 l 497 0 l 636 0 l 896 910 l 785 910 l 575 153 l 439 910 l 293 910 l 32 0 z m 269 -289 b 375 -183 332 -289 375 -246 b 300 -125 375 -144 347 -125 b 194 -232 236 -125 194 -178 b 269 -289 194 -274 225 -289 z "},"Ṉ":{"ha":853,"x_min":0,"x_max":0,"o":"m 144 0 l 358 771 l 497 0 l 636 0 l 896 910 l 785 910 l 575 153 l 439 910 l 293 910 l 32 0 z m 39 -251 l 501 -251 l 528 -161 l 65 -161 z "},"Ŋ":{"ha":853,"x_min":0,"x_max":0,"o":"m 144 0 l 358 771 l 510 -74 b 308 -222 474 -178 415 -214 l 124 -235 l 124 -331 l 296 -319 b 617 -68 486 -307 568 -240 l 897 910 l 785 910 l 574 154 l 439 910 l 293 910 l 32 0 z "},"Ó":{"ha":853,"x_min":0,"x_max":0,"o":"m 503 1090 l 536 1022 l 910 1200 l 869 1288 z m 565 931 b 114 507 354 931 186 757 b 82 281 89 418 82 347 b 365 -21 82 78 190 -21 b 817 403 576 -21 744 153 b 849 629 842 492 849 563 b 565 931 849 832 740 931 z m 372 79 b 206 279 271 79 206 142 b 239 499 206 340 215 417 b 558 831 296 697 413 831 b 725 631 660 831 725 768 b 692 411 725 569 715 493 b 372 79 635 213 518 79 z "},"Ő":{"ha":853,"x_min":0,"x_max":0,"o":"m 401 1075 l 446 1022 l 690 1215 l 622 1288 z m 738 1075 l 782 1022 l 1026 1215 l 958 1288 z m 565 931 b 114 507 354 931 186 757 b 82 281 89 418 82 347 b 365 -21 82 78 190 -21 b 817 403 576 -21 744 153 b 849 629 842 492 849 563 b 565 931 849 832 740 931 z m 372 79 b 206 279 271 79 206 142 b 239 499 206 340 215 417 b 558 831 296 697 413 831 b 725 631 660 831 725 768 b 692 411 725 569 715 493 b 372 79 635 213 518 79 z "},"Ò":{"ha":853,"x_min":0,"x_max":0,"o":"m 738 1081 l 481 1279 l 421 1200 l 692 1022 z m 565 931 b 114 507 354 931 186 757 b 82 281 89 418 82 347 b 365 -21 82 78 190 -21 b 817 403 576 -21 744 153 b 849 629 842 492 849 563 b 565 931 849 832 740 931 z m 372 79 b 206 279 271 79 206 142 b 239 499 206 340 215 417 b 558 831 296 697 413 831 b 725 631 660 831 725 768 b 692 411 725 569 715 493 b 372 79 635 213 518 79 z "},"Ô":{"ha":853,"x_min":0,"x_max":0,"o":"m 363 1075 l 397 1017 l 657 1178 l 826 1017 l 883 1069 l 696 1279 l 643 1279 z m 565 931 b 114 507 354 931 186 757 b 82 281 89 418 82 347 b 365 -21 82 78 190 -21 b 817 403 576 -21 744 153 b 849 629 842 492 849 563 b 565 931 849 832 740 931 z m 372 79 b 206 279 271 79 206 142 b 239 499 206 340 215 417 b 558 831 296 697 413 831 b 725 631 660 831 725 768 b 692 411 725 569 715 493 b 372 79 635 213 518 79 z "},"Ộ":{"ha":853,"x_min":0,"x_max":0,"o":"m 363 1075 l 397 1017 l 657 1178 l 826 1017 l 883 1069 l 696 1279 l 643 1279 z m 565 931 b 114 507 354 931 186 757 b 82 281 89 418 82 347 b 365 -21 82 78 190 -21 b 817 403 576 -21 744 153 b 849 629 842 492 849 563 b 565 931 849 832 740 931 z m 372 79 b 206 279 271 79 206 142 b 239 499 206 340 215 417 b 558 831 296 697 413 831 b 725 631 660 831 725 768 b 692 411 725 569 715 493 b 372 79 635 213 518 79 z m 279 -303 b 385 -197 342 -303 385 -260 b 310 -139 385 -158 357 -139 b 204 -246 246 -139 204 -192 b 279 -303 204 -287 235 -303 z "},"Ố":{"ha":853,"x_min":0,"x_max":0,"o":"m 813 1304 l 847 1240 l 1099 1357 l 1057 1440 z m 367 1078 l 396 1017 l 651 1157 l 826 1017 l 883 1068 l 693 1256 l 640 1256 z m 565 931 b 114 507 354 931 186 757 b 82 281 89 418 82 347 b 365 -21 82 78 190 -21 b 817 403 576 -21 744 153 b 849 629 842 492 849 563 b 565 931 849 832 740 931 z m 372 79 b 206 279 271 79 206 142 b 239 499 206 340 215 417 b 558 831 296 697 413 831 b 725 631 660 831 725 768 b 692 411 725 569 715 493 b 372 79 635 213 518 79 z "},"Ồ":{"ha":853,"x_min":0,"x_max":0,"o":"m 1008 1304 l 831 1447 l 764 1367 l 961 1242 z m 365 1078 l 397 1017 l 651 1157 l 826 1017 l 883 1068 l 693 1256 l 640 1256 z m 565 931 b 114 507 354 931 186 757 b 82 281 89 418 82 347 b 365 -21 82 78 190 -21 b 817 403 576 -21 744 153 b 849 629 842 492 849 563 b 565 931 849 832 740 931 z m 372 79 b 206 279 271 79 206 142 b 239 499 206 340 215 417 b 558 831 296 697 413 831 b 725 631 660 831 725 768 b 692 411 725 569 715 493 b 372 79 635 213 518 79 z "},"Ổ":{"ha":853,"x_min":0,"x_max":0,"o":"m 814 1243 b 1097 1382 1036 1274 1097 1314 b 853 1499 1097 1433 1040 1469 l 781 1433 l 781 1431 b 985 1368 949 1403 985 1389 b 804 1301 985 1344 961 1328 l 803 1299 z m 365 1078 l 397 1017 l 651 1157 l 826 1017 l 883 1068 l 693 1256 l 640 1256 z m 565 931 b 114 507 354 931 186 757 b 82 281 89 418 82 347 b 365 -21 82 78 190 -21 b 817 403 576 -21 744 153 b 849 629 842 492 849 563 b 565 931 849 832 740 931 z m 372 79 b 206 279 271 79 206 142 b 239 499 206 340 215 417 b 558 831 296 697 413 831 b 725 631 660 831 725 768 b 692 411 725 569 715 493 b 372 79 635 213 518 79 z "},"Ỗ":{"ha":853,"x_min":0,"x_max":0,"o":"m 754 1442 b 646 1507 699 1500 678 1507 b 467 1331 603 1507 567 1485 l 529 1296 b 646 1417 604 1406 625 1417 b 715 1364 663 1417 674 1408 b 826 1299 771 1306 794 1299 b 1017 1483 872 1299 911 1321 l 956 1522 b 825 1389 871 1400 849 1389 b 754 1442 808 1389 797 1397 z m 365 1078 l 397 1017 l 651 1157 l 826 1017 l 883 1068 l 693 1256 l 640 1256 z m 565 931 b 114 507 354 931 186 757 b 82 281 89 418 82 347 b 365 -21 82 78 190 -21 b 817 403 576 -21 744 153 b 849 629 842 492 849 563 b 565 931 849 832 740 931 z m 372 79 b 206 279 271 79 206 142 b 239 499 206 340 215 417 b 558 831 296 697 413 831 b 725 631 660 831 725 768 b 692 411 725 569 715 493 b 372 79 635 213 518 79 z "},"Ǒ":{"ha":853,"x_min":0,"x_max":0,"o":"m 404 1232 l 590 1022 l 643 1022 l 925 1226 l 889 1285 l 629 1122 l 460 1285 z m 565 931 b 114 507 354 931 186 757 b 82 281 89 418 82 347 b 365 -21 82 78 190 -21 b 817 403 576 -21 744 153 b 849 629 842 492 849 563 b 565 931 849 832 740 931 z m 372 79 b 206 279 271 79 206 142 b 239 499 206 340 215 417 b 558 831 296 697 413 831 b 725 631 660 831 725 768 b 692 411 725 569 715 493 b 372 79 635 213 518 79 z "},"Ŏ":{"ha":853,"x_min":0,"x_max":0,"o":"m 635 1111 b 501 1275 553 1111 508 1156 l 428 1256 b 628 1022 428 1088 496 1022 b 938 1244 750 1022 849 1085 l 863 1275 b 635 1111 786 1157 717 1111 z m 565 931 b 114 507 354 931 186 757 b 82 281 89 418 82 347 b 365 -21 82 78 190 -21 b 817 403 576 -21 744 153 b 849 629 842 492 849 563 b 565 931 849 832 740 931 z m 372 79 b 206 279 271 79 206 142 b 239 499 206 340 215 417 b 558 831 296 697 413 831 b 725 631 660 831 725 768 b 692 411 725 569 715 493 b 372 79 635 213 518 79 z "},"Õ":{"ha":853,"x_min":0,"x_max":0,"o":"m 942 1228 l 875 1264 b 740 1113 781 1128 761 1113 b 665 1176 725 1113 713 1119 b 554 1263 611 1244 588 1263 b 342 1058 506 1263 461 1239 l 408 1019 b 543 1171 503 1156 521 1171 b 617 1107 558 1171 569 1164 b 728 1022 671 1039 694 1022 b 942 1228 778 1022 822 1047 z m 565 931 b 114 507 354 931 186 757 b 82 281 89 418 82 347 b 365 -21 82 78 190 -21 b 817 403 576 -21 744 153 b 849 629 842 492 849 563 b 565 931 849 832 740 931 z m 372 79 b 206 279 271 79 206 142 b 239 499 206 340 215 417 b 558 831 296 697 413 831 b 725 631 660 831 725 768 b 692 411 725 569 715 493 b 372 79 635 213 518 79 z "},"Ō":{"ha":853,"x_min":0,"x_max":0,"o":"m 400 1078 l 860 1078 l 886 1169 l 425 1169 z m 565 931 b 114 507 354 931 186 757 b 82 281 89 418 82 347 b 365 -21 82 78 190 -21 b 817 403 576 -21 744 153 b 849 629 842 492 849 563 b 565 931 849 832 740 931 z m 372 79 b 206 279 271 79 206 142 b 239 499 206 340 215 417 b 558 831 296 697 413 831 b 725 631 660 831 725 768 b 692 411 725 569 715 493 b 372 79 635 213 518 79 z "},"Ö":{"ha":853,"x_min":0,"x_max":0,"o":"m 449 1050 b 553 1154 510 1050 553 1092 b 479 1213 553 1196 525 1213 b 375 1107 417 1213 375 1161 b 449 1050 375 1069 406 1050 z m 813 1050 b 917 1154 872 1050 917 1093 b 843 1213 917 1196 889 1213 b 738 1107 779 1213 738 1161 b 813 1050 738 1071 765 1050 z m 565 931 b 114 507 354 931 186 757 b 82 281 89 418 82 347 b 365 -21 82 78 190 -21 b 817 403 576 -21 744 153 b 849 629 842 492 849 563 b 565 931 849 832 740 931 z m 372 79 b 206 279 271 79 206 142 b 239 499 206 340 215 417 b 558 831 296 697 413 831 b 725 631 660 831 725 768 b 692 411 725 569 715 493 b 372 79 635 213 518 79 z "},"Ȯ":{"ha":853,"x_min":0,"x_max":0,"o":"m 632 1050 b 740 1160 700 1050 740 1099 b 663 1219 740 1200 710 1219 b 553 1111 596 1219 553 1163 b 632 1050 553 1071 582 1050 z m 565 931 b 114 507 354 931 186 757 b 82 281 89 418 82 347 b 365 -21 82 78 190 -21 b 817 403 576 -21 744 153 b 849 629 842 492 849 563 b 565 931 849 832 740 931 z m 372 79 b 206 279 271 79 206 142 b 239 499 206 340 215 417 b 558 831 296 697 413 831 b 725 631 660 831 725 768 b 692 411 725 569 715 493 b 372 79 635 213 518 79 z "},"Ỏ":{"ha":853,"x_min":0,"x_max":0,"o":"m 511 1022 b 856 1181 817 1057 856 1124 b 613 1306 856 1236 799 1278 l 539 1243 l 539 1239 b 742 1169 707 1213 742 1194 b 501 1082 742 1142 717 1118 l 500 1079 z m 565 931 b 114 507 354 931 186 757 b 82 281 89 418 82 347 b 365 -21 82 78 190 -21 b 817 403 576 -21 744 153 b 849 629 842 492 849 563 b 565 931 849 832 740 931 z m 372 79 b 206 279 271 79 206 142 b 239 499 206 340 215 417 b 558 831 296 697 413 831 b 725 631 660 831 725 768 b 692 411 725 569 715 493 b 372 79 635 213 518 79 z "},"Ọ":{"ha":853,"x_min":0,"x_max":0,"o":"m 565 931 b 114 507 354 931 186 757 b 82 281 89 418 82 347 b 365 -21 82 78 190 -21 b 817 403 576 -21 744 153 b 849 629 842 492 849 563 b 565 931 849 832 740 931 z m 372 79 b 206 279 271 79 206 142 b 239 499 206 340 215 417 b 558 831 296 697 413 831 b 725 631 660 831 725 768 b 692 411 725 569 715 493 b 372 79 635 213 518 79 z m 279 -303 b 385 -197 342 -303 385 -260 b 310 -139 385 -158 357 -139 b 204 -246 246 -139 204 -192 b 279 -303 204 -287 235 -303 z "},"Ǫ":{"ha":853,"x_min":0,"x_max":0,"o":"m 128 -242 b 258 -328 128 -294 157 -322 l 363 -333 l 393 -251 l 307 -246 b 239 -210 253 -243 239 -232 b 368 -21 239 -181 247 -146 b 817 403 576 -21 744 153 b 849 629 842 492 849 563 b 565 931 849 832 740 931 b 114 507 354 931 186 757 b 82 281 89 418 82 347 b 301 -15 82 104 164 6 b 128 -242 150 -147 128 -193 z m 372 79 b 206 279 271 79 206 142 b 239 499 206 340 215 417 b 558 831 296 697 413 831 b 725 631 660 831 725 768 b 692 411 725 569 715 493 b 372 79 635 213 518 79 z "},"Ø":{"ha":853,"x_min":0,"x_max":0,"o":"m 565 931 b 114 507 354 931 186 757 b 82 281 89 418 82 347 b 119 115 82 215 96 160 l -78 -99 l 40 -99 l 167 53 b 365 -21 217 4 286 -21 b 817 403 576 -21 744 153 b 849 629 842 492 849 563 b 811 797 849 696 835 753 l 1007 1008 l 888 1008 l 764 858 b 565 931 714 906 646 931 z m 206 279 b 239 499 206 340 215 417 b 558 831 296 697 413 831 b 689 771 614 831 660 811 l 211 213 b 206 279 208 232 206 254 z m 372 79 b 242 140 315 79 269 99 l 718 700 b 725 631 722 679 725 657 b 692 411 725 569 715 493 b 372 79 635 213 518 79 z "},"Œ":{"ha":853,"x_min":0,"x_max":0,"o":"m 319 0 l 724 0 l 751 97 l 468 97 l 558 413 l 808 413 l 835 507 l 586 507 l 674 813 l 956 813 l 985 910 l 615 910 b 226 775 440 910 331 879 b 40 264 115 663 40 419 b 319 0 40 94 129 0 z m 160 267 b 325 718 160 393 224 617 b 558 817 388 781 457 813 l 350 93 l 336 93 b 160 267 210 93 160 147 z "},"Ơ":{"ha":853,"x_min":0,"x_max":0,"o":"m 564 910 b 114 497 353 910 185 742 b 82 272 89 408 82 339 b 365 -21 82 75 190 -21 b 817 393 576 -21 746 149 b 849 613 842 482 849 544 b 739 835 849 722 811 789 l 743 840 b 778 838 756 839 768 838 b 1053 1067 942 838 1001 882 l 940 1067 b 728 910 899 940 864 910 z m 372 79 b 206 271 271 79 206 139 b 239 489 206 332 215 407 b 557 810 294 679 411 810 b 725 621 658 810 725 751 b 692 401 725 560 715 485 b 372 79 636 208 518 79 z "},"Ớ":{"ha":853,"x_min":0,"x_max":0,"o":"m 503 1090 l 536 1022 l 910 1200 l 869 1288 z m 564 910 b 114 497 353 910 185 742 b 82 272 89 408 82 339 b 365 -21 82 75 190 -21 b 817 393 576 -21 746 149 b 849 613 842 482 849 544 b 739 835 849 722 811 789 l 743 840 b 778 838 756 839 768 838 b 1053 1067 942 838 1001 882 l 940 1067 b 728 910 899 940 864 910 z m 372 79 b 206 271 271 79 206 139 b 239 489 206 332 215 407 b 557 810 294 679 411 810 b 725 621 658 810 725 751 b 692 401 725 560 715 485 b 372 79 636 208 518 79 z "},"Ờ":{"ha":853,"x_min":0,"x_max":0,"o":"m 738 1081 l 481 1279 l 421 1200 l 692 1022 z m 564 910 b 114 497 353 910 185 742 b 82 272 89 408 82 339 b 365 -21 82 75 190 -21 b 817 393 576 -21 746 149 b 849 613 842 482 849 544 b 739 835 849 722 811 789 l 743 840 b 778 838 756 839 768 838 b 1053 1067 942 838 1001 882 l 940 1067 b 728 910 899 940 864 910 z m 372 79 b 206 271 271 79 206 139 b 239 489 206 332 215 407 b 557 810 294 679 411 810 b 725 621 658 810 725 751 b 692 401 725 560 715 485 b 372 79 636 208 518 79 z "},"Ỡ":{"ha":853,"x_min":0,"x_max":0,"o":"m 942 1228 l 875 1264 b 740 1113 781 1128 761 1113 b 665 1176 725 1113 713 1119 b 554 1263 611 1244 588 1263 b 342 1058 506 1263 461 1239 l 408 1019 b 543 1171 503 1156 521 1171 b 617 1107 558 1171 569 1164 b 728 1022 671 1039 694 1022 b 942 1228 778 1022 822 1047 z m 564 910 b 114 497 353 910 185 742 b 82 272 89 408 82 339 b 365 -21 82 75 190 -21 b 817 393 576 -21 746 149 b 849 613 842 482 849 544 b 739 835 849 722 811 789 l 743 840 b 778 838 756 839 768 838 b 1053 1067 942 838 1001 882 l 940 1067 b 728 910 899 940 864 910 z m 372 79 b 206 271 271 79 206 139 b 239 489 206 332 215 407 b 557 810 294 679 411 810 b 725 621 658 810 725 751 b 692 401 725 560 715 485 b 372 79 636 208 518 79 z "},"Ở":{"ha":853,"x_min":0,"x_max":0,"o":"m 511 1022 b 856 1181 817 1057 856 1124 b 613 1306 856 1236 799 1278 l 539 1243 l 539 1239 b 742 1169 707 1213 742 1194 b 501 1082 742 1142 717 1118 l 500 1079 z m 564 910 b 114 497 353 910 185 742 b 82 272 89 408 82 339 b 365 -21 82 75 190 -21 b 817 393 576 -21 746 149 b 849 613 842 482 849 544 b 739 835 849 722 811 789 l 743 840 b 778 838 756 839 768 838 b 1053 1067 942 838 1001 882 l 940 1067 b 728 910 899 940 864 910 z m 372 79 b 206 271 271 79 206 139 b 239 489 206 332 215 407 b 557 810 294 679 411 810 b 725 621 658 810 725 751 b 692 401 725 560 715 485 b 372 79 636 208 518 79 z "},"Ợ":{"ha":853,"x_min":0,"x_max":0,"o":"m 564 910 b 114 497 353 910 185 742 b 82 272 89 408 82 339 b 365 -21 82 75 190 -21 b 817 393 576 -21 746 149 b 849 613 842 482 849 544 b 739 835 849 722 811 789 l 743 840 b 778 838 756 839 768 838 b 1053 1067 942 838 1001 882 l 940 1067 b 728 910 899 940 864 910 z m 372 79 b 206 271 271 79 206 139 b 239 489 206 332 215 407 b 557 810 294 679 411 810 b 725 621 658 810 725 751 b 692 401 725 560 715 485 b 372 79 636 208 518 79 z m 279 -303 b 385 -197 342 -303 385 -260 b 310 -139 385 -158 357 -139 b 204 -246 246 -139 204 -192 b 279 -303 204 -287 235 -303 z "},"Ŕ":{"ha":853,"x_min":0,"x_max":0,"o":"m 524 1083 l 557 1015 l 931 1193 l 890 1281 z m 715 6 l 588 228 b 456 383 535 321 504 351 l 456 390 b 860 710 744 410 860 526 b 608 910 860 829 775 910 l 300 910 l 40 0 l 160 0 l 265 368 b 449 238 363 364 393 338 l 578 0 l 714 0 z m 586 813 b 732 701 685 813 732 772 b 403 465 732 571 649 478 l 292 460 l 393 813 z "},"Ř":{"ha":853,"x_min":0,"x_max":0,"o":"m 425 1225 l 611 1015 l 664 1015 l 946 1219 l 910 1278 l 650 1115 l 481 1278 z m 715 6 l 588 228 b 456 383 535 321 504 351 l 456 390 b 860 710 744 410 860 526 b 608 910 860 829 775 910 l 300 910 l 40 0 l 160 0 l 265 368 b 449 238 363 364 393 338 l 578 0 l 714 0 z m 586 813 b 732 701 685 813 732 772 b 403 465 732 571 649 478 l 292 460 l 393 813 z "},"Ṙ":{"ha":853,"x_min":0,"x_max":0,"o":"m 653 1043 b 761 1153 721 1043 761 1092 b 683 1213 761 1193 731 1213 b 574 1104 617 1213 574 1156 b 653 1043 574 1064 603 1043 z m 715 6 l 588 228 b 456 383 535 321 504 351 l 456 390 b 860 710 744 410 860 526 b 608 910 860 829 775 910 l 300 910 l 40 0 l 160 0 l 265 368 b 449 238 363 364 393 338 l 578 0 l 714 0 z m 586 813 b 732 701 685 813 732 772 b 403 465 732 571 649 478 l 292 460 l 393 813 z "},"Ṝ":{"ha":853,"x_min":0,"x_max":0,"o":"m 421 1071 l 881 1071 l 907 1163 l 446 1163 z m 715 6 l 588 228 b 456 383 535 321 504 351 l 456 390 b 860 710 744 410 860 526 b 608 910 860 829 775 910 l 300 910 l 40 0 l 160 0 l 265 368 b 449 238 363 364 393 338 l 578 0 l 714 0 z m 586 813 b 732 701 685 813 732 772 b 403 465 732 571 649 478 l 292 460 l 393 813 z m 292 -296 b 397 -190 354 -296 397 -253 b 322 -132 397 -151 369 -132 b 217 -239 258 -132 217 -185 b 292 -296 217 -281 247 -296 z "},"Ŗ":{"ha":853,"x_min":0,"x_max":0,"o":"m 715 6 l 588 228 b 456 383 535 321 504 351 l 456 390 b 860 710 744 410 860 526 b 608 910 860 829 775 910 l 300 910 l 40 0 l 160 0 l 265 368 b 449 238 363 364 393 338 l 578 0 l 714 0 z m 586 813 b 732 701 685 813 732 772 b 403 465 732 571 649 478 l 292 460 l 393 813 z m 122 -411 b 453 -233 379 -389 453 -315 b 231 -104 453 -175 400 -129 l 163 -161 l 163 -165 b 342 -242 310 -189 342 -214 b 117 -346 342 -279 303 -319 l 115 -347 z "},"Ṛ":{"ha":853,"x_min":0,"x_max":0,"o":"m 715 6 l 588 228 b 456 383 535 321 504 351 l 456 390 b 860 710 744 410 860 526 b 608 910 860 829 775 910 l 300 910 l 40 0 l 160 0 l 265 368 b 449 238 363 364 393 338 l 578 0 l 714 0 z m 586 813 b 732 701 685 813 732 772 b 403 465 732 571 649 478 l 292 460 l 393 813 z m 292 -296 b 397 -190 354 -296 397 -253 b 322 -132 397 -151 369 -132 b 217 -239 258 -132 217 -185 b 292 -296 217 -281 247 -296 z "},"Ṟ":{"ha":853,"x_min":0,"x_max":0,"o":"m 715 6 l 588 228 b 456 383 535 321 504 351 l 456 390 b 860 710 744 410 860 526 b 608 910 860 829 775 910 l 300 910 l 40 0 l 160 0 l 265 368 b 449 238 363 364 393 338 l 578 0 l 714 0 z m 586 813 b 732 701 685 813 732 772 b 403 465 732 571 649 478 l 292 460 l 393 813 z m 63 -251 l 525 -251 l 551 -161 l 89 -161 z "},"Ś":{"ha":853,"x_min":0,"x_max":0,"o":"m 526 1090 l 560 1022 l 933 1200 l 893 1288 z m 406 85 b 79 178 299 85 192 124 l 36 76 b 407 -18 156 18 267 -18 b 739 250 610 -18 739 81 b 564 488 739 346 710 406 l 456 549 b 353 688 372 596 353 636 b 553 824 353 765 414 824 b 833 763 643 824 733 801 l 867 867 b 554 926 756 906 671 926 b 231 679 340 926 231 808 b 388 454 231 582 275 517 l 496 394 b 617 240 597 338 617 292 b 406 85 617 143 544 85 z "},"Ŝ":{"ha":853,"x_min":0,"x_max":0,"o":"m 388 1075 l 422 1017 l 682 1178 l 851 1017 l 908 1069 l 721 1279 l 668 1279 z m 406 85 b 79 178 299 85 192 124 l 36 76 b 407 -18 156 18 267 -18 b 739 250 610 -18 739 81 b 564 488 739 346 710 406 l 456 549 b 353 688 372 596 353 636 b 553 824 353 765 414 824 b 833 763 643 824 733 801 l 867 867 b 554 926 756 906 671 926 b 231 679 340 926 231 808 b 388 454 231 582 275 517 l 496 394 b 617 240 597 338 617 292 b 406 85 617 143 544 85 z "},"Š":{"ha":853,"x_min":0,"x_max":0,"o":"m 428 1232 l 614 1022 l 667 1022 l 949 1226 l 913 1285 l 653 1122 l 483 1285 z m 406 85 b 79 178 299 85 192 124 l 36 76 b 407 -18 156 18 267 -18 b 739 250 610 -18 739 81 b 564 488 739 346 710 406 l 456 549 b 353 688 372 596 353 636 b 553 824 353 765 414 824 b 833 763 643 824 733 801 l 867 867 b 554 926 756 906 671 926 b 231 679 340 926 231 808 b 388 454 231 582 275 517 l 496 394 b 617 240 597 338 617 292 b 406 85 617 143 544 85 z "},"Ș":{"ha":853,"x_min":0,"x_max":0,"o":"m 406 85 b 79 178 299 85 192 124 l 36 76 b 407 -18 156 18 267 -18 b 739 250 610 -18 739 81 b 564 488 739 346 710 406 l 456 549 b 353 688 372 596 353 636 b 553 824 353 765 414 824 b 833 763 643 824 733 801 l 867 867 b 554 926 756 906 671 926 b 231 679 340 926 231 808 b 388 454 231 582 275 517 l 496 394 b 617 240 597 338 617 292 b 406 85 617 143 544 85 z m 108 -414 b 439 -236 365 -392 439 -318 b 217 -107 439 -178 386 -132 l 149 -164 l 149 -168 b 328 -244 296 -192 328 -217 b 103 -349 328 -282 289 -322 l 101 -350 z "},"Ṣ":{"ha":853,"x_min":0,"x_max":0,"o":"m 406 85 b 79 178 299 85 192 124 l 36 76 b 407 -18 156 18 267 -18 b 739 250 610 -18 739 81 b 564 488 739 346 710 406 l 456 549 b 353 688 372 596 353 636 b 553 824 353 765 414 824 b 833 763 643 824 733 801 l 867 867 b 554 926 756 906 671 926 b 231 679 340 926 231 808 b 388 454 231 582 275 517 l 496 394 b 617 240 597 338 617 292 b 406 85 617 143 544 85 z m 278 -299 b 383 -193 340 -299 383 -256 b 308 -135 383 -154 356 -135 b 203 -242 244 -135 203 -187 b 278 -299 203 -283 233 -299 z "},"Ş":{"ha":853,"x_min":0,"x_max":0,"o":"m 406 85 b 79 178 299 85 192 124 l 36 76 b 317 -12 129 31 217 -1 l 235 -142 l 239 -156 b 417 -215 385 -169 417 -185 b 114 -300 417 -256 390 -276 l 115 -375 b 519 -206 489 -342 519 -287 b 339 -90 519 -146 489 -114 l 382 -18 l 407 -18 b 739 250 610 -18 739 81 b 564 488 739 346 710 406 l 456 549 b 353 688 372 596 353 636 b 553 824 353 765 414 824 b 833 763 643 824 733 801 l 867 867 b 554 926 756 906 671 926 b 231 679 340 926 231 808 b 388 454 231 582 275 517 l 496 394 b 617 240 597 339 617 292 b 406 85 617 143 544 85 z "},"ẞ":{"ha":853,"x_min":0,"x_max":0,"o":"m 489 450 b 646 244 607 349 646 299 b 488 90 646 161 588 90 b 382 103 454 90 422 93 l 357 6 b 478 -8 389 -3 428 -8 b 767 242 664 -8 767 103 b 618 475 765 310 735 371 l 885 785 l 883 810 b 578 931 782 897 682 931 b 204 610 388 931 267 832 l 29 0 l 150 0 l 322 601 b 578 831 368 761 457 831 b 749 775 636 831 686 817 l 500 486 z "},"Ť":{"ha":853,"x_min":0,"x_max":0,"o":"m 406 1225 l 592 1015 l 644 1015 l 926 1219 l 890 1278 l 631 1115 l 461 1278 z m 206 810 l 501 810 l 269 0 l 390 0 l 622 810 l 917 810 l 946 910 l 235 910 z "},"Ṱ":{"ha":853,"x_min":0,"x_max":0,"o":"m 206 810 l 501 810 l 269 0 l 390 0 l 622 810 l 917 810 l 946 910 l 235 910 z m 485 -349 l 321 -104 l 260 -104 l -26 -335 l 13 -389 l 272 -206 l 426 -389 z "},"Ț":{"ha":853,"x_min":0,"x_max":0,"o":"m 206 810 l 501 810 l 269 0 l 390 0 l 622 810 l 917 810 l 946 910 l 235 910 z m 89 -411 b 419 -233 346 -389 419 -315 b 197 -104 419 -175 367 -129 l 129 -161 l 129 -165 b 308 -242 276 -189 308 -214 b 83 -346 308 -279 269 -319 l 82 -347 z "},"Ṭ":{"ha":853,"x_min":0,"x_max":0,"o":"m 206 810 l 501 810 l 269 0 l 390 0 l 622 810 l 917 810 l 946 910 l 235 910 z m 258 -296 b 364 -190 321 -296 364 -253 b 289 -132 364 -151 336 -132 b 183 -239 225 -132 183 -185 b 258 -296 183 -281 214 -296 z "},"Ṯ":{"ha":853,"x_min":0,"x_max":0,"o":"m 206 810 l 501 810 l 269 0 l 390 0 l 622 810 l 917 810 l 946 910 l 235 910 z m 29 -251 l 492 -251 l 518 -161 l 56 -161 z "},"Ţ":{"ha":853,"x_min":0,"x_max":0,"o":"m 206 810 l 501 810 l 269 0 l 299 0 l 213 -135 l 217 -149 b 396 -208 363 -162 396 -178 b 93 -293 396 -249 369 -268 l 93 -368 b 499 -197 467 -335 499 -279 b 317 -83 499 -139 468 -106 l 368 0 l 390 0 l 622 810 l 917 810 l 946 910 l 235 910 z "},"Ŧ":{"ha":853,"x_min":0,"x_max":0,"o":"m 186 408 l 386 408 l 269 0 l 390 0 l 507 408 l 713 408 l 733 483 l 529 483 l 622 810 l 917 810 l 946 910 l 235 910 l 206 810 l 501 810 l 408 483 l 207 483 z "},"Ú":{"ha":853,"x_min":0,"x_max":0,"o":"m 511 1076 l 544 1008 l 918 1186 l 878 1274 z m 618 296 b 388 86 575 149 500 86 b 215 233 271 86 215 142 b 239 363 215 261 221 299 l 397 910 l 276 910 l 128 397 b 96 228 104 317 96 269 b 371 -21 96 60 203 -21 b 733 286 561 -21 672 71 l 914 910 l 794 910 z "},"Ű":{"ha":853,"x_min":0,"x_max":0,"o":"m 413 1068 l 457 1015 l 701 1208 l 633 1281 z m 749 1068 l 793 1015 l 1038 1208 l 969 1281 z m 618 296 b 388 86 575 149 500 86 b 215 233 271 86 215 142 b 239 363 215 261 221 299 l 397 910 l 276 910 l 128 397 b 96 228 104 317 96 269 b 371 -21 96 60 203 -21 b 733 286 561 -21 672 71 l 914 910 l 794 910 z "},"Ù":{"ha":853,"x_min":0,"x_max":0,"o":"m 746 1067 l 489 1265 l 429 1186 l 700 1008 z m 618 296 b 388 86 575 149 500 86 b 215 233 271 86 215 142 b 239 363 215 261 221 299 l 397 910 l 276 910 l 128 397 b 96 228 104 317 96 269 b 371 -21 96 60 203 -21 b 733 286 561 -21 672 71 l 914 910 l 794 910 z "},"Û":{"ha":853,"x_min":0,"x_max":0,"o":"m 376 1075 l 411 1017 l 671 1178 l 840 1017 l 897 1069 l 710 1279 l 657 1279 z m 618 296 b 388 86 575 149 500 86 b 215 233 271 86 215 142 b 239 363 215 261 221 299 l 397 910 l 276 910 l 128 397 b 96 228 104 317 96 269 b 371 -21 96 60 203 -21 b 733 286 561 -21 672 71 l 914 910 l 794 910 z "},"Ǔ":{"ha":853,"x_min":0,"x_max":0,"o":"m 413 1218 l 599 1008 l 651 1008 l 933 1213 l 897 1271 l 638 1108 l 468 1271 z m 618 296 b 388 86 575 149 500 86 b 215 233 271 86 215 142 b 239 363 215 261 221 299 l 397 910 l 276 910 l 128 397 b 96 228 104 317 96 269 b 371 -21 96 60 203 -21 b 733 286 561 -21 672 71 l 914 910 l 794 910 z "},"Ŭ":{"ha":853,"x_min":0,"x_max":0,"o":"m 643 1097 b 510 1261 561 1097 517 1142 l 436 1242 b 636 1008 436 1074 504 1008 b 946 1231 758 1008 857 1071 l 871 1261 b 643 1097 794 1143 725 1097 z m 618 296 b 388 86 575 149 500 86 b 215 233 271 86 215 142 b 239 363 215 261 221 299 l 397 910 l 276 910 l 128 397 b 96 228 104 317 96 269 b 371 -21 96 60 203 -21 b 733 286 561 -21 672 71 l 914 910 l 794 910 z "},"Ũ":{"ha":853,"x_min":0,"x_max":0,"o":"m 953 1221 l 886 1257 b 751 1106 792 1121 772 1106 b 676 1169 736 1106 724 1113 b 565 1256 622 1238 599 1256 b 353 1051 517 1256 472 1232 l 419 1013 b 554 1164 514 1149 532 1164 b 628 1100 569 1164 581 1157 b 739 1015 682 1032 706 1015 b 953 1221 789 1015 833 1040 z m 618 296 b 388 86 575 149 500 86 b 215 233 271 86 215 142 b 239 363 215 261 221 299 l 397 910 l 276 910 l 128 397 b 96 228 104 317 96 269 b 371 -21 96 60 203 -21 b 733 286 561 -21 672 71 l 914 910 l 794 910 z "},"Ū":{"ha":853,"x_min":0,"x_max":0,"o":"m 411 1071 l 871 1071 l 897 1163 l 436 1163 z m 618 296 b 388 86 575 149 500 86 b 215 233 271 86 215 142 b 239 363 215 261 221 299 l 397 910 l 276 910 l 128 397 b 96 228 104 317 96 269 b 371 -21 96 60 203 -21 b 733 286 561 -21 672 71 l 914 910 l 794 910 z "},"Ü":{"ha":853,"x_min":0,"x_max":0,"o":"m 460 1043 b 564 1147 521 1043 564 1085 b 490 1206 564 1189 536 1206 b 386 1100 428 1206 386 1154 b 460 1043 386 1063 417 1043 z m 824 1043 b 928 1147 883 1043 928 1086 b 854 1206 928 1189 900 1206 b 749 1100 790 1206 749 1154 b 824 1043 749 1064 776 1043 z m 618 296 b 388 86 575 149 500 86 b 215 233 271 86 215 142 b 239 363 215 261 221 299 l 397 910 l 276 910 l 128 397 b 96 228 104 317 96 269 b 371 -21 96 60 203 -21 b 733 286 561 -21 672 71 l 914 910 l 794 910 z "},"Ǘ":{"ha":853,"x_min":0,"x_max":0,"o":"m 629 1244 l 1006 1401 l 971 1488 l 600 1311 z m 460 1043 b 561 1142 519 1043 561 1085 b 489 1196 561 1179 536 1196 b 388 1097 425 1196 388 1146 b 460 1043 388 1063 414 1043 z m 824 1043 b 925 1142 883 1043 925 1085 b 853 1196 925 1179 899 1196 b 750 1097 789 1196 750 1146 b 824 1043 750 1063 778 1043 z m 618 296 b 388 86 575 149 500 86 b 215 233 271 86 215 142 b 239 363 215 261 221 299 l 397 910 l 276 910 l 128 397 b 96 228 104 317 96 269 b 371 -21 96 60 203 -21 b 733 286 561 -21 672 71 l 914 910 l 794 910 z "},"Ǜ":{"ha":853,"x_min":0,"x_max":0,"o":"m 796 1308 l 522 1486 l 468 1401 l 754 1244 z m 460 1043 b 561 1142 519 1043 561 1085 b 489 1196 561 1179 536 1196 b 388 1097 425 1196 388 1146 b 460 1043 388 1063 414 1043 z m 824 1043 b 925 1142 883 1043 925 1085 b 853 1196 925 1179 899 1196 b 750 1097 789 1196 750 1146 b 824 1043 750 1063 778 1043 z m 618 296 b 388 86 575 149 500 86 b 215 233 271 86 215 142 b 239 363 215 261 221 299 l 397 910 l 276 910 l 128 397 b 96 228 104 317 96 269 b 371 -21 96 60 203 -21 b 733 286 561 -21 672 71 l 914 910 l 794 910 z "},"Ǚ":{"ha":853,"x_min":0,"x_max":0,"o":"m 488 1443 l 668 1240 l 721 1240 l 1003 1433 l 968 1492 l 708 1336 l 539 1492 z m 460 1043 b 561 1142 519 1043 561 1085 b 489 1196 561 1179 536 1196 b 388 1097 425 1196 388 1146 b 460 1043 388 1063 414 1043 z m 824 1043 b 925 1142 883 1043 925 1085 b 853 1196 925 1179 899 1196 b 750 1097 789 1196 750 1146 b 824 1043 750 1063 778 1043 z m 618 296 b 388 86 575 149 500 86 b 215 233 271 86 215 142 b 239 363 215 261 221 299 l 397 910 l 276 910 l 128 397 b 96 228 104 317 96 269 b 371 -21 96 60 203 -21 b 733 286 561 -21 672 71 l 914 910 l 794 910 z "},"Ǖ":{"ha":853,"x_min":0,"x_max":0,"o":"m 485 1326 l 944 1326 l 971 1418 l 511 1418 z m 460 1043 b 561 1142 519 1043 561 1085 b 489 1196 561 1179 536 1196 b 388 1097 425 1196 388 1146 b 460 1043 388 1063 414 1043 z m 824 1043 b 925 1142 883 1043 925 1085 b 853 1196 925 1179 899 1196 b 750 1097 789 1196 750 1146 b 824 1043 750 1063 778 1043 z m 618 296 b 388 86 575 149 500 86 b 215 233 271 86 215 142 b 239 363 215 261 221 299 l 397 910 l 276 910 l 128 397 b 96 228 104 317 96 269 b 371 -21 96 60 203 -21 b 733 286 561 -21 672 71 l 914 910 l 794 910 z "},"Ů":{"ha":853,"x_min":0,"x_max":0,"o":"m 650 1008 b 892 1199 817 1008 892 1100 b 690 1342 892 1288 811 1342 b 449 1151 524 1342 449 1249 b 650 1008 449 1063 529 1008 z m 663 1085 b 538 1156 579 1085 538 1111 b 676 1265 538 1211 582 1265 b 801 1194 760 1265 801 1239 b 663 1085 801 1139 757 1085 z m 618 296 b 388 86 575 149 500 86 b 215 233 271 86 215 142 b 239 363 215 261 221 299 l 397 910 l 276 910 l 128 397 b 96 228 104 317 96 269 b 371 -21 96 60 203 -21 b 733 286 561 -21 672 71 l 914 910 l 794 910 z "},"Ủ":{"ha":853,"x_min":0,"x_max":0,"o":"m 519 1008 b 864 1167 825 1043 864 1110 b 621 1292 864 1222 807 1264 l 547 1229 l 547 1225 b 750 1156 715 1199 750 1181 b 510 1068 750 1128 725 1104 l 508 1065 z m 618 296 b 388 86 575 149 500 86 b 215 233 271 86 215 142 b 239 363 215 261 221 299 l 397 910 l 276 910 l 128 397 b 96 228 104 317 96 269 b 371 -21 96 60 203 -21 b 733 286 561 -21 672 71 l 914 910 l 794 910 z "},"Ụ":{"ha":853,"x_min":0,"x_max":0,"o":"m 618 296 b 388 86 575 149 500 86 b 215 233 271 86 215 142 b 239 363 215 261 221 299 l 397 910 l 276 910 l 128 397 b 96 228 104 317 96 269 b 371 -21 96 60 203 -21 b 733 286 561 -21 672 71 l 914 910 l 794 910 z m 256 -303 b 361 -197 318 -303 361 -260 b 286 -139 361 -158 333 -139 b 181 -246 222 -139 181 -192 b 256 -303 181 -287 211 -303 z "},"Ų":{"ha":853,"x_min":0,"x_max":0,"o":"m 133 -242 b 265 -328 133 -294 163 -322 l 368 -333 l 400 -251 l 314 -246 b 246 -210 258 -243 246 -232 b 374 -21 246 -181 254 -146 b 733 286 561 -21 672 71 l 914 910 l 794 910 l 618 296 b 388 86 575 149 500 86 b 215 233 271 86 215 142 b 239 363 215 261 221 299 l 397 910 l 276 910 l 128 397 b 96 228 104 317 96 269 b 307 -17 96 82 176 3 b 133 -242 156 -147 133 -193 z "},"Ư":{"ha":853,"x_min":0,"x_max":0,"o":"m 618 296 b 388 86 575 149 500 86 b 215 233 271 86 215 142 b 239 363 215 261 221 299 l 397 910 l 276 910 l 128 397 b 96 228 104 317 96 269 b 371 -21 96 60 203 -21 b 733 286 561 -21 672 71 l 892 832 b 1158 1067 1039 832 1106 876 l 1046 1067 b 853 910 1004 935 979 910 l 794 910 z "},"Ứ":{"ha":853,"x_min":0,"x_max":0,"o":"m 511 1076 l 544 1008 l 918 1186 l 878 1274 z m 618 296 b 388 86 575 149 500 86 b 215 233 271 86 215 142 b 239 363 215 261 221 299 l 397 910 l 276 910 l 128 397 b 96 228 104 317 96 269 b 371 -21 96 60 203 -21 b 733 286 561 -21 672 71 l 892 832 b 1158 1067 1039 832 1106 876 l 1046 1067 b 853 910 1004 935 979 910 l 794 910 z "},"Ừ":{"ha":853,"x_min":0,"x_max":0,"o":"m 746 1067 l 489 1265 l 429 1186 l 700 1008 z m 618 296 b 388 86 575 149 500 86 b 215 233 271 86 215 142 b 239 363 215 261 221 299 l 397 910 l 276 910 l 128 397 b 96 228 104 317 96 269 b 371 -21 96 60 203 -21 b 733 286 561 -21 672 71 l 892 832 b 1158 1067 1039 832 1106 876 l 1046 1067 b 853 910 1004 935 979 910 l 794 910 z "},"Ữ":{"ha":853,"x_min":0,"x_max":0,"o":"m 953 1221 l 886 1257 b 751 1106 792 1121 772 1106 b 676 1169 736 1106 724 1113 b 565 1256 622 1238 599 1256 b 353 1051 517 1256 472 1232 l 419 1013 b 554 1164 514 1149 532 1164 b 628 1100 569 1164 581 1157 b 739 1015 682 1032 706 1015 b 953 1221 789 1015 833 1040 z m 618 296 b 388 86 575 149 500 86 b 215 233 271 86 215 142 b 239 363 215 261 221 299 l 397 910 l 276 910 l 128 397 b 96 228 104 317 96 269 b 371 -21 96 60 203 -21 b 733 286 561 -21 672 71 l 892 832 b 1158 1067 1039 832 1106 876 l 1046 1067 b 853 910 1004 935 979 910 l 794 910 z "},"Ử":{"ha":853,"x_min":0,"x_max":0,"o":"m 519 1008 b 864 1167 825 1043 864 1110 b 621 1292 864 1222 807 1264 l 547 1229 l 547 1225 b 750 1156 715 1199 750 1181 b 510 1068 750 1128 725 1104 l 508 1065 z m 618 296 b 388 86 575 149 500 86 b 215 233 271 86 215 142 b 239 363 215 261 221 299 l 397 910 l 276 910 l 128 397 b 96 228 104 317 96 269 b 371 -21 96 60 203 -21 b 733 286 561 -21 672 71 l 892 832 b 1158 1067 1039 832 1106 876 l 1046 1067 b 853 910 1004 935 979 910 l 794 910 z "},"Ự":{"ha":853,"x_min":0,"x_max":0,"o":"m 618 296 b 388 86 575 149 500 86 b 215 233 271 86 215 142 b 239 363 215 261 221 299 l 397 910 l 276 910 l 128 397 b 96 228 104 317 96 269 b 371 -21 96 60 203 -21 b 733 286 561 -21 672 71 l 892 832 b 1158 1067 1039 832 1106 876 l 1046 1067 b 853 910 1004 935 979 910 l 794 910 z m 256 -303 b 361 -197 318 -303 361 -260 b 286 -139 361 -158 333 -139 b 181 -246 222 -139 181 -192 b 256 -303 181 -287 211 -303 z "},"Ṿ":{"ha":853,"x_min":0,"x_max":0,"o":"m 225 910 l 261 0 l 407 0 l 965 910 l 838 910 l 368 136 l 342 910 z m 260 -296 b 365 -190 322 -296 365 -253 b 290 -132 365 -151 338 -132 b 185 -239 226 -132 185 -185 b 260 -296 185 -281 215 -296 z "},"Ẃ":{"ha":853,"x_min":0,"x_max":0,"o":"m 508 1069 l 542 1001 l 915 1179 l 875 1267 z m 574 0 l 957 910 l 836 910 l 539 168 l 557 738 l 524 738 l 225 185 l 347 910 l 233 910 l 94 0 l 215 0 l 469 483 l 449 0 z "},"Ẁ":{"ha":853,"x_min":0,"x_max":0,"o":"m 743 1060 l 486 1258 l 426 1179 l 697 1001 z m 574 0 l 957 910 l 836 910 l 539 168 l 557 738 l 524 738 l 225 185 l 347 910 l 233 910 l 94 0 l 215 0 l 469 483 l 449 0 z "},"Ŵ":{"ha":853,"x_min":0,"x_max":0,"o":"m 376 1075 l 411 1017 l 671 1178 l 840 1017 l 897 1069 l 710 1279 l 657 1279 z m 574 0 l 957 910 l 836 910 l 539 168 l 557 738 l 524 738 l 225 185 l 347 910 l 233 910 l 94 0 l 215 0 l 469 483 l 449 0 z "},"Ẅ":{"ha":853,"x_min":0,"x_max":0,"o":"m 460 1043 b 564 1147 521 1043 564 1085 b 490 1206 564 1189 536 1206 b 386 1100 428 1206 386 1154 b 460 1043 386 1063 417 1043 z m 824 1043 b 928 1147 883 1043 928 1086 b 854 1206 928 1189 900 1206 b 749 1100 790 1206 749 1154 b 824 1043 749 1064 776 1043 z m 574 0 l 957 910 l 836 910 l 539 168 l 557 738 l 524 738 l 225 185 l 347 910 l 233 910 l 94 0 l 215 0 l 469 483 l 449 0 z "},"Ẍ":{"ha":853,"x_min":0,"x_max":0,"o":"m 460 1043 b 564 1147 521 1043 564 1085 b 490 1206 564 1189 536 1206 b 386 1100 428 1206 386 1154 b 460 1043 386 1063 417 1043 z m 824 1043 b 928 1147 883 1043 928 1086 b 854 1206 928 1189 900 1206 b 749 1100 790 1206 749 1154 b 824 1043 749 1064 776 1043 z m -28 0 l 110 0 l 440 378 l 560 0 l 696 0 l 528 461 l 931 910 l 785 910 l 488 560 l 381 910 l 251 910 l 400 476 z "},"Ý":{"ha":853,"x_min":0,"x_max":0,"o":"m 490 1076 l 524 1008 l 897 1186 l 857 1274 z m 964 910 l 818 910 l 474 500 l 354 910 l 225 910 l 388 396 l 274 0 l 394 0 l 501 375 z "},"Ỳ":{"ha":853,"x_min":0,"x_max":0,"o":"m 725 1067 l 468 1265 l 408 1186 l 679 1008 z m 964 910 l 818 910 l 474 500 l 354 910 l 225 910 l 388 396 l 274 0 l 394 0 l 501 375 z "},"Ŷ":{"ha":853,"x_min":0,"x_max":0,"o":"m 354 1075 l 389 1017 l 649 1178 l 818 1017 l 875 1069 l 688 1279 l 635 1279 z m 964 910 l 818 910 l 474 500 l 354 910 l 225 910 l 388 396 l 274 0 l 394 0 l 501 375 z "},"Ỹ":{"ha":853,"x_min":0,"x_max":0,"o":"m 931 1221 l 864 1257 b 729 1106 769 1121 750 1106 b 654 1169 714 1106 701 1113 b 543 1256 600 1238 576 1256 b 331 1051 494 1256 450 1232 l 397 1013 b 532 1164 492 1149 510 1164 b 606 1100 547 1164 558 1157 b 717 1015 660 1032 683 1015 b 931 1221 767 1015 811 1040 z m 964 910 l 818 910 l 474 500 l 354 910 l 225 910 l 388 396 l 274 0 l 394 0 l 501 375 z "},"Ȳ":{"ha":853,"x_min":0,"x_max":0,"o":"m 389 1071 l 849 1071 l 875 1163 l 414 1163 z m 964 910 l 818 910 l 474 500 l 354 910 l 225 910 l 388 396 l 274 0 l 394 0 l 501 375 z "},"Ÿ":{"ha":853,"x_min":0,"x_max":0,"o":"m 438 1043 b 542 1147 499 1043 542 1085 b 468 1206 542 1189 514 1206 b 364 1100 406 1206 364 1154 b 438 1043 364 1063 394 1043 z m 801 1043 b 906 1147 861 1043 906 1086 b 832 1206 906 1189 878 1206 b 726 1100 768 1206 726 1154 b 801 1043 726 1064 754 1043 z m 964 910 l 818 910 l 474 500 l 354 910 l 225 910 l 388 396 l 274 0 l 394 0 l 501 375 z "},"Ẏ":{"ha":853,"x_min":0,"x_max":0,"o":"m 618 1036 b 726 1146 686 1036 726 1085 b 649 1206 726 1186 696 1206 b 539 1097 582 1206 539 1149 b 618 1036 539 1057 568 1036 z m 964 910 l 818 910 l 474 500 l 354 910 l 225 910 l 388 396 l 274 0 l 394 0 l 501 375 z "},"Ỷ":{"ha":853,"x_min":0,"x_max":0,"o":"m 497 1008 b 842 1167 803 1043 842 1110 b 599 1292 842 1222 785 1264 l 525 1229 l 525 1225 b 728 1156 693 1199 728 1181 b 488 1068 728 1128 703 1104 l 486 1065 z m 964 910 l 818 910 l 474 500 l 354 910 l 225 910 l 388 396 l 274 0 l 394 0 l 501 375 z "},"Ỵ":{"ha":853,"x_min":0,"x_max":0,"o":"m 964 910 l 818 910 l 474 500 l 354 910 l 225 910 l 388 396 l 274 0 l 394 0 l 501 375 z m 260 -296 b 365 -190 322 -296 365 -253 b 290 -132 365 -151 338 -132 b 185 -239 226 -132 185 -185 b 260 -296 185 -281 215 -296 z "},"Ź":{"ha":853,"x_min":0,"x_max":0,"o":"m 507 1083 l 540 1015 l 914 1193 l 874 1281 z m 19 0 l 675 0 l 703 99 l 203 99 l 203 103 l 889 851 l 889 910 l 261 910 l 232 810 l 701 810 l 701 806 l 19 58 z "},"Ẑ":{"ha":853,"x_min":0,"x_max":0,"o":"m 369 1075 l 404 1017 l 664 1178 l 833 1017 l 890 1069 l 703 1279 l 650 1279 z m 19 0 l 675 0 l 703 99 l 203 99 l 203 103 l 889 851 l 889 910 l 261 910 l 232 810 l 701 810 l 701 806 l 19 58 z "},"Ž":{"ha":853,"x_min":0,"x_max":0,"o":"m 408 1225 l 594 1015 l 647 1015 l 929 1219 l 893 1278 l 633 1115 l 464 1278 z m 19 0 l 675 0 l 703 99 l 203 99 l 203 103 l 889 851 l 889 910 l 261 910 l 232 810 l 701 810 l 701 806 l 19 58 z "},"Ż":{"ha":853,"x_min":0,"x_max":0,"o":"m 636 1043 b 744 1153 704 1043 744 1092 b 667 1213 744 1193 714 1213 b 557 1104 600 1213 557 1156 b 636 1043 557 1064 586 1043 z m 19 0 l 675 0 l 703 99 l 203 99 l 203 103 l 889 851 l 889 910 l 261 910 l 232 810 l 701 810 l 701 806 l 19 58 z "},"Ẓ":{"ha":853,"x_min":0,"x_max":0,"o":"m 19 0 l 675 0 l 703 99 l 203 99 l 203 103 l 889 851 l 889 910 l 261 910 l 232 810 l 701 810 l 701 806 l 19 58 z m 261 -296 b 367 -190 324 -296 367 -253 b 292 -132 367 -151 339 -132 b 186 -239 228 -132 186 -185 b 261 -296 186 -281 217 -296 z "},"Ẕ":{"ha":853,"x_min":0,"x_max":0,"o":"m 19 0 l 675 0 l 703 99 l 203 99 l 203 103 l 889 851 l 889 910 l 261 910 l 232 810 l 701 810 l 701 806 l 19 58 z m 32 -251 l 494 -251 l 521 -161 l 58 -161 z "},"Ð":{"ha":853,"x_min":0,"x_max":0,"o":"m 69 421 l 186 421 l 65 0 l 175 0 b 682 182 413 0 574 74 b 844 586 790 290 844 431 b 764 810 844 682 817 757 b 444 910 696 878 594 910 l 326 910 l 207 496 l 92 496 z m 475 421 l 497 496 l 328 496 l 418 810 l 465 810 b 719 589 640 810 719 733 b 214 100 719 325 531 104 l 306 421 z "},"Þ":{"ha":853,"x_min":0,"x_max":0,"o":"m 301 910 l 40 0 l 161 0 l 219 206 l 438 206 b 761 304 586 206 689 231 b 839 500 813 354 839 425 b 585 704 839 617 758 704 l 364 704 l 422 910 z m 568 603 b 714 496 664 603 714 568 b 467 304 714 396 639 304 l 249 304 l 335 603 z "},"Ə":{"ha":853,"x_min":0,"x_max":0,"o":"m 797 410 b 839 654 825 507 839 586 b 525 922 839 842 726 922 b 379 908 469 922 433 918 l 339 804 b 507 822 403 817 461 822 b 715 653 643 822 715 783 b 699 521 715 617 710 572 l 149 521 b 81 207 101 397 81 290 b 340 -21 81 53 182 -21 b 797 410 550 -21 708 100 z m 203 224 b 238 425 203 285 215 354 l 672 425 b 344 79 589 154 483 79 b 203 224 257 79 203 115 z "},"á":{"ha":853,"x_min":0,"x_max":0,"o":"m 422 822 l 458 758 l 822 961 l 776 1043 z m 636 175 l 729 436 b 743 517 739 467 743 493 b 506 657 743 610 668 657 b 239 633 422 657 343 650 l 211 533 b 472 560 328 551 422 560 b 624 486 582 560 624 536 b 613 433 624 472 621 458 l 600 397 l 399 379 b 114 297 218 364 158 342 b 44 124 67 251 44 182 b 193 -8 44 50 85 -8 b 497 89 299 -8 385 21 l 506 89 b 638 0 519 38 557 7 l 703 -7 l 731 86 l 675 94 b 625 128 640 100 625 106 b 636 175 625 139 628 153 z m 243 83 b 168 144 188 83 168 107 b 210 244 168 182 179 214 b 415 301 236 271 276 289 l 572 317 l 529 190 b 243 83 419 115 321 83 z "},"à":{"ha":853,"x_min":0,"x_max":0,"o":"m 665 814 l 438 1035 l 367 960 l 615 758 z m 636 175 l 729 436 b 743 517 739 467 743 493 b 506 657 743 610 668 657 b 239 633 422 657 343 650 l 211 533 b 472 560 328 551 422 560 b 624 486 582 560 624 536 b 613 433 624 472 621 458 l 600 397 l 399 379 b 114 297 218 364 158 342 b 44 124 67 251 44 182 b 193 -8 44 50 85 -8 b 497 89 299 -8 385 21 l 506 89 b 638 0 519 38 557 7 l 703 -7 l 731 86 l 675 94 b 625 128 640 100 625 106 b 636 175 625 139 628 153 z m 243 83 b 168 144 188 83 168 107 b 210 244 168 182 179 214 b 415 301 236 271 276 289 l 572 317 l 529 190 b 243 83 419 115 321 83 z "},"â":{"ha":853,"x_min":0,"x_max":0,"o":"m 289 806 l 329 751 l 589 936 l 743 751 l 801 793 l 636 1036 l 575 1036 z m 636 175 l 729 436 b 743 517 739 467 743 493 b 506 657 743 610 668 657 b 239 633 422 657 343 650 l 211 533 b 472 560 328 551 422 560 b 624 486 582 560 624 536 b 613 433 624 472 621 458 l 600 397 l 399 379 b 114 297 218 364 158 342 b 44 124 67 251 44 182 b 193 -8 44 50 85 -8 b 497 89 299 -8 385 21 l 506 89 b 638 0 519 38 557 7 l 703 -7 l 731 86 l 675 94 b 625 128 640 100 625 106 b 636 175 625 139 628 153 z m 243 83 b 168 144 188 83 168 107 b 210 244 168 182 179 214 b 415 301 236 271 276 289 l 572 317 l 529 190 b 243 83 419 115 321 83 z "},"ậ":{"ha":853,"x_min":0,"x_max":0,"o":"m 289 806 l 329 751 l 589 936 l 743 751 l 801 793 l 636 1036 l 575 1036 z m 636 175 l 729 436 b 743 517 739 467 743 493 b 506 657 743 610 668 657 b 239 633 422 657 343 650 l 211 533 b 472 560 328 551 422 560 b 624 486 582 560 624 536 b 613 433 624 472 621 458 l 600 397 l 399 379 b 114 297 218 364 158 342 b 44 124 67 251 44 182 b 193 -8 44 50 85 -8 b 497 89 299 -8 385 21 l 506 89 b 638 0 519 38 557 7 l 703 -7 l 731 86 l 675 94 b 625 128 640 100 625 106 b 636 175 625 139 628 153 z m 243 83 b 168 144 188 83 168 107 b 210 244 168 182 179 214 b 415 301 236 271 276 289 l 572 317 l 529 190 b 243 83 419 115 321 83 z m 247 -296 b 353 -190 310 -296 353 -253 b 278 -132 353 -151 325 -132 b 172 -239 214 -132 172 -185 b 247 -296 172 -281 203 -296 z "},"ấ":{"ha":853,"x_min":0,"x_max":0,"o":"m 744 1049 l 776 989 l 1036 1125 l 993 1204 z m 293 808 l 328 751 l 583 918 l 743 751 l 803 794 l 631 1018 l 569 1018 z m 636 175 l 729 436 b 743 517 739 467 743 493 b 506 657 743 610 668 657 b 239 633 422 657 343 650 l 211 533 b 472 560 328 551 422 560 b 624 486 582 560 624 536 b 613 433 624 472 621 458 l 600 397 l 399 379 b 114 297 218 364 158 342 b 44 124 67 251 44 182 b 193 -8 44 50 85 -8 b 497 89 299 -8 385 21 l 506 89 b 638 0 519 38 557 7 l 703 -7 l 731 86 l 675 94 b 625 128 640 100 625 106 b 636 175 625 139 628 153 z m 243 83 b 168 144 188 83 168 107 b 210 244 168 182 179 214 b 415 301 236 271 276 289 l 572 317 l 529 190 b 243 83 419 115 321 83 z "},"ầ":{"ha":853,"x_min":0,"x_max":0,"o":"m 917 1031 l 765 1199 l 693 1131 l 864 982 z m 293 808 l 328 751 l 583 919 l 743 751 l 803 794 l 631 1018 l 569 1018 z m 636 175 l 729 436 b 743 517 739 467 743 493 b 506 657 743 610 668 657 b 239 633 422 657 343 650 l 211 533 b 472 560 328 551 422 560 b 624 486 582 560 624 536 b 613 433 624 472 621 458 l 600 397 l 399 379 b 114 297 218 364 158 342 b 44 124 67 251 44 182 b 193 -8 44 50 85 -8 b 497 89 299 -8 385 21 l 506 89 b 638 0 519 38 557 7 l 703 -7 l 731 86 l 675 94 b 625 128 640 100 625 106 b 636 175 625 139 628 153 z m 243 83 b 168 144 188 83 168 107 b 210 244 168 182 179 214 b 415 301 236 271 276 289 l 572 317 l 529 190 b 243 83 419 115 321 83 z "},"ẩ":{"ha":853,"x_min":0,"x_max":0,"o":"m 756 990 b 1057 1143 1013 1028 1057 1092 b 831 1264 1057 1200 1003 1236 l 758 1203 l 758 1199 b 942 1133 910 1174 942 1156 b 744 1053 942 1107 914 1088 l 743 1050 z m 293 808 l 328 751 l 583 919 l 743 751 l 803 794 l 631 1018 l 569 1018 z m 636 175 l 729 436 b 743 517 739 467 743 493 b 506 657 743 610 668 657 b 239 633 422 657 343 650 l 211 533 b 472 560 328 551 422 560 b 624 486 582 560 624 536 b 613 433 624 472 621 458 l 600 397 l 399 379 b 114 297 218 364 158 342 b 44 124 67 251 44 182 b 193 -8 44 50 85 -8 b 497 89 299 -8 385 21 l 506 89 b 638 0 519 38 557 7 l 703 -7 l 731 86 l 675 94 b 625 128 640 100 625 106 b 636 175 625 139 628 153 z m 243 83 b 168 144 188 83 168 107 b 210 244 168 182 179 214 b 415 301 236 271 276 289 l 572 317 l 529 190 b 243 83 419 115 321 83 z "},"ẫ":{"ha":853,"x_min":0,"x_max":0,"o":"m 675 1201 b 571 1271 622 1260 601 1271 b 385 1094 522 1271 481 1240 l 450 1058 b 564 1179 524 1171 544 1179 b 632 1125 581 1179 590 1171 b 736 1056 685 1067 704 1056 b 935 1247 788 1056 832 1088 l 868 1281 b 743 1147 785 1157 764 1147 b 675 1201 726 1147 718 1156 z m 293 808 l 328 751 l 583 919 l 743 751 l 803 794 l 631 1018 l 569 1018 z m 636 175 l 729 436 b 743 517 739 467 743 493 b 506 657 743 610 668 657 b 239 633 422 657 343 650 l 211 533 b 472 560 328 551 422 560 b 624 486 582 560 624 536 b 613 433 624 472 621 458 l 600 397 l 399 379 b 114 297 218 364 158 342 b 44 124 67 251 44 182 b 193 -8 44 50 85 -8 b 497 89 299 -8 385 21 l 506 89 b 638 0 519 38 557 7 l 703 -7 l 731 86 l 675 94 b 625 128 640 100 625 106 b 636 175 625 139 628 153 z m 243 83 b 168 144 188 83 168 107 b 210 244 168 182 179 214 b 415 301 236 271 276 289 l 572 317 l 529 190 b 243 83 419 115 321 83 z "},"ǎ":{"ha":853,"x_min":0,"x_max":0,"o":"m 347 1003 l 511 758 l 572 758 l 858 989 l 819 1043 l 560 860 l 404 1043 z m 636 175 l 729 436 b 743 517 739 467 743 493 b 506 657 743 610 668 657 b 239 633 422 657 343 650 l 211 533 b 472 560 328 551 422 560 b 624 486 582 560 624 536 b 613 433 624 472 621 458 l 600 397 l 399 379 b 114 297 218 364 158 342 b 44 124 67 251 44 182 b 193 -8 44 50 85 -8 b 497 89 299 -8 385 21 l 506 89 b 638 0 519 38 557 7 l 703 -7 l 731 86 l 675 94 b 625 128 640 100 625 106 b 636 175 625 139 628 153 z m 243 83 b 168 144 188 83 168 107 b 210 244 168 182 179 214 b 415 301 236 271 276 289 l 572 317 l 529 190 b 243 83 419 115 321 83 z "},"ă":{"ha":853,"x_min":0,"x_max":0,"o":"m 557 847 b 429 1032 475 847 436 900 l 354 1011 b 550 758 354 831 422 758 b 868 1003 676 758 769 826 l 790 1032 b 557 847 708 901 639 847 z m 636 175 l 729 436 b 743 517 739 467 743 493 b 506 657 743 610 668 657 b 239 633 422 657 343 650 l 211 533 b 472 560 328 551 422 560 b 624 486 582 560 624 536 b 613 433 624 472 621 458 l 600 397 l 399 379 b 114 297 218 364 158 342 b 44 124 67 251 44 182 b 193 -8 44 50 85 -8 b 497 89 299 -8 385 21 l 506 89 b 638 0 519 38 557 7 l 703 -7 l 731 86 l 675 94 b 625 128 640 100 625 106 b 636 175 625 139 628 153 z m 243 83 b 168 144 188 83 168 107 b 210 244 168 182 179 214 b 415 301 236 271 276 289 l 572 317 l 529 190 b 243 83 419 115 321 83 z "},"ặ":{"ha":853,"x_min":0,"x_max":0,"o":"m 557 847 b 429 1032 475 847 436 900 l 354 1011 b 550 758 354 831 422 758 b 868 1003 676 758 769 826 l 790 1032 b 557 847 708 901 639 847 z m 636 175 l 729 436 b 743 517 739 467 743 493 b 506 657 743 610 668 657 b 239 633 422 657 343 650 l 211 533 b 472 560 328 551 422 560 b 624 486 582 560 624 536 b 613 433 624 472 621 458 l 600 397 l 399 379 b 114 297 218 364 158 342 b 44 124 67 251 44 182 b 193 -8 44 50 85 -8 b 497 89 299 -8 385 21 l 506 89 b 638 0 519 38 557 7 l 703 -7 l 731 86 l 675 94 b 625 128 640 100 625 106 b 636 175 625 139 628 153 z m 243 83 b 168 144 188 83 168 107 b 210 244 168 182 179 214 b 415 301 236 271 276 289 l 572 317 l 529 190 b 243 83 419 115 321 83 z m 247 -296 b 353 -190 310 -296 353 -253 b 278 -132 353 -151 325 -132 b 172 -239 214 -132 172 -185 b 247 -296 172 -281 203 -296 z "},"ắ":{"ha":853,"x_min":0,"x_max":0,"o":"m 515 1089 l 549 1025 l 918 1189 l 882 1274 z m 557 847 b 425 1018 475 847 432 896 l 353 1001 b 547 758 353 824 418 758 b 863 986 671 758 774 824 l 786 1018 b 557 847 710 896 639 847 z m 636 175 l 729 436 b 743 517 739 467 743 493 b 506 657 743 610 668 657 b 239 633 422 657 343 650 l 211 533 b 472 560 328 551 422 560 b 624 486 582 560 624 536 b 613 433 624 472 621 458 l 600 397 l 399 379 b 114 297 218 364 158 342 b 44 124 67 251 44 182 b 193 -8 44 50 85 -8 b 497 89 299 -8 385 21 l 506 89 b 638 0 519 38 557 7 l 703 -7 l 731 86 l 675 94 b 625 128 640 100 625 106 b 636 175 625 139 628 153 z m 243 83 b 168 144 188 83 168 107 b 210 244 168 182 179 214 b 415 301 236 271 276 289 l 572 317 l 529 190 b 243 83 419 115 321 83 z "},"ằ":{"ha":853,"x_min":0,"x_max":0,"o":"m 713 1083 l 451 1269 l 393 1193 l 671 1026 z m 557 847 b 425 1018 475 847 433 896 l 353 1001 b 547 758 353 824 418 758 b 863 986 671 758 774 824 l 786 1018 b 557 847 710 896 639 847 z m 636 175 l 729 436 b 743 517 739 467 743 493 b 506 657 743 610 668 657 b 239 633 422 657 343 650 l 211 533 b 472 560 328 551 422 560 b 624 486 582 560 624 536 b 613 433 624 472 621 458 l 600 397 l 399 379 b 114 297 218 364 158 342 b 44 124 67 251 44 182 b 193 -8 44 50 85 -8 b 497 89 299 -8 385 21 l 506 89 b 638 0 519 38 557 7 l 703 -7 l 731 86 l 675 94 b 625 128 640 100 625 106 b 636 175 625 139 628 153 z m 243 83 b 168 144 188 83 168 107 b 210 244 168 182 179 214 b 415 301 236 271 276 289 l 572 317 l 529 190 b 243 83 419 115 321 83 z "},"ẳ":{"ha":853,"x_min":0,"x_max":0,"o":"m 517 1024 b 818 1176 774 1061 818 1125 b 592 1297 818 1233 765 1269 l 519 1236 l 519 1232 b 703 1167 671 1207 703 1189 b 506 1083 703 1140 675 1118 l 504 1081 z m 557 847 b 425 1018 475 847 433 896 l 353 1001 b 547 758 353 824 418 758 b 863 986 671 758 774 824 l 786 1018 b 557 847 710 896 639 847 z m 636 175 l 729 436 b 743 517 739 467 743 493 b 506 657 743 610 668 657 b 239 633 422 657 343 650 l 211 533 b 472 560 328 551 422 560 b 624 486 582 560 624 536 b 613 433 624 472 621 458 l 600 397 l 399 379 b 114 297 218 364 158 342 b 44 124 67 251 44 182 b 193 -8 44 50 85 -8 b 497 89 299 -8 385 21 l 506 89 b 638 0 519 38 557 7 l 703 -7 l 731 86 l 675 94 b 625 128 640 100 625 106 b 636 175 625 139 628 153 z m 243 83 b 168 144 188 83 168 107 b 210 244 168 182 179 214 b 415 301 236 271 276 289 l 572 317 l 529 190 b 243 83 419 115 321 83 z "},"ẵ":{"ha":853,"x_min":0,"x_max":0,"o":"m 678 1210 b 574 1281 625 1268 604 1281 b 388 1103 525 1281 483 1250 l 451 1067 b 567 1189 525 1179 547 1189 b 635 1135 583 1189 592 1179 b 738 1065 688 1076 707 1065 b 938 1256 789 1065 833 1097 l 869 1290 b 746 1157 788 1167 765 1157 b 678 1210 729 1157 719 1165 z m 557 847 b 425 1018 475 847 433 896 l 353 1001 b 547 758 353 824 418 758 b 863 986 671 758 774 824 l 786 1018 b 557 847 710 896 639 847 z m 636 175 l 729 436 b 743 517 739 467 743 493 b 506 657 743 610 668 657 b 239 633 422 657 343 650 l 211 533 b 472 560 328 551 422 560 b 624 486 582 560 624 536 b 613 433 624 472 621 458 l 600 397 l 399 379 b 114 297 218 364 158 342 b 44 124 67 251 44 182 b 193 -8 44 50 85 -8 b 497 89 299 -8 385 21 l 506 89 b 638 0 519 38 557 7 l 703 -7 l 731 86 l 675 94 b 625 128 640 100 625 106 b 636 175 625 139 628 153 z m 243 83 b 168 144 188 83 168 107 b 210 244 168 182 179 214 b 415 301 236 271 276 289 l 572 317 l 529 190 b 243 83 419 115 321 83 z "},"ã":{"ha":853,"x_min":0,"x_max":0,"o":"m 540 856 b 654 758 594 774 622 758 b 879 993 706 758 749 785 l 808 1029 b 668 857 708 875 689 857 b 601 929 653 857 643 867 b 488 1026 547 1013 519 1026 b 264 794 436 1026 394 1001 l 333 756 b 474 929 433 911 453 929 b 540 856 489 929 499 919 z m 636 175 l 729 436 b 743 517 739 467 743 493 b 506 657 743 610 668 657 b 239 633 422 657 343 650 l 211 533 b 472 560 328 551 422 560 b 624 486 582 560 624 536 b 613 433 624 472 621 458 l 600 397 l 399 379 b 114 297 218 364 158 342 b 44 124 67 251 44 182 b 193 -8 44 50 85 -8 b 497 89 299 -8 385 21 l 506 89 b 638 0 519 38 557 7 l 703 -7 l 731 86 l 675 94 b 625 128 640 100 625 106 b 636 175 625 139 628 153 z m 243 83 b 168 144 188 83 168 107 b 210 244 168 182 179 214 b 415 301 236 271 276 289 l 572 317 l 529 190 b 243 83 419 115 321 83 z "},"ā":{"ha":853,"x_min":0,"x_max":0,"o":"m 322 814 l 783 814 l 810 904 l 349 904 z m 636 175 l 729 436 b 743 517 739 467 743 493 b 506 657 743 610 668 657 b 239 633 422 657 343 650 l 211 533 b 472 560 328 551 422 560 b 624 486 582 560 624 536 b 613 433 624 472 621 458 l 600 397 l 399 379 b 114 297 218 364 158 342 b 44 124 67 251 44 182 b 193 -8 44 50 85 -8 b 497 89 299 -8 385 21 l 506 89 b 638 0 519 38 557 7 l 703 -7 l 731 86 l 675 94 b 625 128 640 100 625 106 b 636 175 625 139 628 153 z m 243 83 b 168 144 188 83 168 107 b 210 244 168 182 179 214 b 415 301 236 271 276 289 l 572 317 l 529 190 b 243 83 419 115 321 83 z "},"ä":{"ha":853,"x_min":0,"x_max":0,"o":"m 389 786 b 490 888 454 786 490 833 b 419 943 490 926 460 943 b 318 842 358 943 318 892 b 389 786 318 807 340 786 z m 715 786 b 815 888 775 786 815 829 b 746 943 815 922 789 943 b 644 842 689 943 644 896 b 715 786 644 806 669 786 z m 636 175 l 729 436 b 743 517 739 467 743 493 b 506 657 743 610 668 657 b 239 633 422 657 343 650 l 211 533 b 472 560 328 551 422 560 b 624 486 582 560 624 536 b 613 433 624 472 621 458 l 600 397 l 399 379 b 114 297 218 364 158 342 b 44 124 67 251 44 182 b 193 -8 44 50 85 -8 b 497 89 299 -8 385 21 l 506 89 b 638 0 519 38 557 7 l 703 -7 l 731 86 l 675 94 b 625 128 640 100 625 106 b 636 175 625 139 628 153 z m 243 83 b 168 144 188 83 168 107 b 210 244 168 182 179 214 b 415 301 236 271 276 289 l 572 317 l 529 190 b 243 83 419 115 321 83 z "},"ȧ":{"ha":853,"x_min":0,"x_max":0,"o":"m 553 786 b 658 893 615 786 658 829 b 583 950 658 932 631 950 b 478 844 519 950 478 897 b 553 786 478 803 510 786 z m 636 175 l 729 436 b 743 517 739 467 743 493 b 506 657 743 610 668 657 b 239 633 422 657 343 650 l 211 533 b 472 560 328 551 422 560 b 624 486 582 560 624 536 b 613 433 624 472 621 458 l 600 397 l 399 379 b 114 297 218 364 158 342 b 44 124 67 251 44 182 b 193 -8 44 50 85 -8 b 497 89 299 -8 385 21 l 506 89 b 638 0 519 38 557 7 l 703 -7 l 731 86 l 675 94 b 625 128 640 100 625 106 b 636 175 625 139 628 153 z m 243 83 b 168 144 188 83 168 107 b 210 244 168 182 179 214 b 415 301 236 271 276 289 l 572 317 l 529 190 b 243 83 419 115 321 83 z "},"å":{"ha":853,"x_min":0,"x_max":0,"o":"m 615 1104 b 379 901 471 1104 379 1010 b 558 758 379 807 457 758 b 794 961 704 758 794 853 b 615 1104 794 1056 717 1104 z m 576 835 b 464 906 504 835 464 857 b 599 1028 464 974 519 1028 b 710 957 669 1028 710 1006 b 576 835 710 889 654 835 z m 636 175 l 729 436 b 743 517 739 467 743 493 b 506 657 743 610 668 657 b 239 633 422 657 343 650 l 211 533 b 472 560 328 551 422 560 b 624 486 582 560 624 536 b 613 433 624 472 621 458 l 600 397 l 399 379 b 114 297 218 364 158 342 b 44 124 67 251 44 182 b 193 -8 44 50 85 -8 b 497 89 299 -8 385 21 l 506 89 b 638 0 519 38 557 7 l 703 -7 l 731 86 l 675 94 b 625 128 640 100 625 106 b 636 175 625 139 628 153 z m 243 83 b 168 144 188 83 168 107 b 210 244 168 182 179 214 b 415 301 236 271 276 289 l 572 317 l 529 190 b 243 83 419 115 321 83 z "},"ả":{"ha":853,"x_min":0,"x_max":0,"o":"m 407 758 b 738 936 664 781 738 854 b 514 1065 738 994 685 1040 l 447 1008 l 447 1004 b 626 929 593 981 626 956 b 401 824 626 890 588 850 l 400 822 z m 636 175 l 729 436 b 743 517 739 467 743 493 b 506 657 743 610 668 657 b 239 633 422 657 343 650 l 211 533 b 472 560 328 551 422 560 b 624 486 582 560 624 536 b 613 433 624 472 621 458 l 600 397 l 399 379 b 114 297 218 364 158 342 b 44 124 67 251 44 182 b 193 -8 44 50 85 -8 b 497 89 299 -8 385 21 l 506 89 b 638 0 519 38 557 7 l 703 -7 l 731 86 l 675 94 b 625 128 640 100 625 106 b 636 175 625 139 628 153 z m 243 83 b 168 144 188 83 168 107 b 210 244 168 182 179 214 b 415 301 236 271 276 289 l 572 317 l 529 190 b 243 83 419 115 321 83 z "},"ạ":{"ha":853,"x_min":0,"x_max":0,"o":"m 636 175 l 729 436 b 743 517 739 467 743 493 b 506 657 743 610 668 657 b 239 633 422 657 343 650 l 211 533 b 472 560 328 551 422 560 b 624 486 582 560 624 536 b 613 433 624 472 621 458 l 600 397 l 399 379 b 114 297 218 364 158 342 b 44 124 67 251 44 182 b 193 -8 44 50 85 -8 b 497 89 299 -8 385 21 l 506 89 b 638 0 519 38 557 7 l 703 -7 l 731 86 l 675 94 b 625 128 640 100 625 106 b 636 175 625 139 628 153 z m 243 83 b 168 144 188 83 168 107 b 210 244 168 182 179 214 b 415 301 236 271 276 289 l 572 317 l 529 190 b 243 83 419 115 321 83 z m 247 -296 b 353 -190 310 -296 353 -253 b 278 -132 353 -151 325 -132 b 172 -239 214 -132 172 -185 b 247 -296 172 -281 203 -296 z "},"ą":{"ha":853,"x_min":0,"x_max":0,"o":"m 342 -235 b 474 -321 342 -287 371 -315 l 576 -326 l 607 -244 l 522 -239 b 453 -203 467 -236 453 -225 b 601 6 453 -172 463 -135 b 703 -7 613 3 656 -3 l 731 86 l 675 94 b 625 128 640 100 625 106 b 636 175 625 139 628 153 l 729 436 b 743 517 739 467 743 493 b 506 657 743 610 668 657 b 239 633 422 657 343 650 l 211 533 b 472 560 328 551 422 560 b 624 486 582 560 624 536 b 613 433 624 472 621 458 l 600 397 l 399 379 b 114 297 218 364 158 342 b 44 124 67 251 44 182 b 193 -8 44 50 85 -8 b 497 89 299 -8 385 21 l 506 89 b 553 24 513 61 528 39 b 342 -235 368 -133 342 -182 z m 243 83 b 168 144 188 83 168 107 b 210 244 168 182 179 214 b 415 301 236 271 276 289 l 572 317 l 529 190 b 243 83 419 115 321 83 z "},"æ":{"ha":853,"x_min":0,"x_max":0,"o":"m 454 208 b 464 292 454 235 457 263 b 846 522 793 321 846 411 b 699 660 846 610 790 660 b 507 561 638 660 568 629 b 356 660 499 631 463 660 b 179 640 299 660 240 653 l 150 547 b 338 569 233 563 283 569 b 407 507 386 569 407 551 b 374 367 407 492 403 472 b 49 289 151 351 90 331 b -11 128 6 246 -11 183 b 138 -7 -11 54 22 -7 b 357 79 199 -7 244 6 l 365 79 b 632 -7 401 18 479 -7 l 661 82 b 454 208 504 82 454 111 z m 671 568 b 732 510 710 568 732 551 b 486 365 732 451 690 388 b 671 568 526 472 600 568 z m 176 83 b 101 144 117 83 101 106 b 135 235 101 179 111 213 b 351 290 158 258 186 274 b 339 207 343 257 339 232 b 342 153 339 188 340 169 b 176 83 257 99 214 83 z "},"ḇ":{"ha":853,"x_min":0,"x_max":0,"o":"m 439 986 l 319 986 l 50 51 b 321 -11 128 13 231 -11 b 788 417 610 -11 788 182 b 561 660 788 569 689 660 b 310 540 479 660 406 628 z m 526 560 b 663 404 606 560 663 503 b 325 88 663 257 554 88 b 186 113 271 88 225 97 l 276 424 b 526 560 403 538 458 560 z m 33 -251 l 496 -251 l 522 -161 l 60 -161 z "},"ć":{"ha":853,"x_min":0,"x_max":0,"o":"m 460 822 l 496 758 l 860 961 l 814 1043 z m 522 565 b 753 479 588 565 643 544 l 808 575 b 508 667 693 643 615 667 b 208 539 393 667 286 617 b 81 231 118 450 81 338 b 353 -21 81 71 186 -21 b 697 68 454 -21 553 -4 l 657 163 b 375 81 518 97 443 81 b 210 243 274 81 210 143 b 308 475 210 321 247 414 b 522 565 364 531 440 565 z "},"ĉ":{"ha":853,"x_min":0,"x_max":0,"o":"m 326 806 l 367 751 l 626 936 l 781 751 l 839 793 l 674 1036 l 613 1036 z m 522 565 b 753 479 588 565 643 544 l 808 575 b 508 667 693 643 615 667 b 208 539 393 667 286 617 b 81 231 118 450 81 338 b 353 -21 81 71 186 -21 b 697 68 454 -21 553 -4 l 657 163 b 375 81 518 97 443 81 b 210 243 274 81 210 143 b 308 475 210 321 247 414 b 522 565 364 531 440 565 z "},"č":{"ha":853,"x_min":0,"x_max":0,"o":"m 385 1003 l 549 758 l 610 758 l 896 989 l 857 1043 l 597 860 l 442 1043 z m 522 565 b 753 479 588 565 643 544 l 808 575 b 508 667 693 643 615 667 b 208 539 393 667 286 617 b 81 231 118 450 81 338 b 353 -21 81 71 186 -21 b 697 68 454 -21 553 -4 l 657 163 b 375 81 518 97 443 81 b 210 243 274 81 210 143 b 308 475 210 321 247 414 b 522 565 364 531 440 565 z "},"ċ":{"ha":853,"x_min":0,"x_max":0,"o":"m 590 786 b 696 893 653 786 696 829 b 621 950 696 932 668 950 b 515 844 557 950 515 897 b 590 786 515 803 547 786 z m 522 565 b 753 479 588 565 643 544 l 808 575 b 508 667 693 643 615 667 b 208 539 393 667 286 617 b 81 231 118 450 81 338 b 353 -21 81 71 186 -21 b 697 68 454 -21 553 -4 l 657 163 b 375 81 518 97 443 81 b 210 243 274 81 210 143 b 308 475 210 321 247 414 b 522 565 364 531 440 565 z "},"ç":{"ha":853,"x_min":0,"x_max":0,"o":"m 522 565 b 753 479 588 565 643 544 l 808 575 b 508 667 693 643 615 667 b 208 539 393 667 286 617 b 81 231 118 450 81 338 b 290 -17 81 92 160 4 l 210 -142 l 214 -156 b 392 -215 360 -169 392 -185 b 90 -300 392 -256 367 -276 l 90 -375 b 494 -206 464 -342 494 -287 b 314 -90 494 -146 464 -114 l 356 -21 b 697 68 454 -21 553 -4 l 657 163 b 375 81 518 97 443 81 b 210 243 274 81 210 143 b 308 475 210 321 247 414 b 522 565 364 531 440 565 z "},"ď":{"ha":853,"x_min":0,"x_max":0,"o":"m 1010 783 l 1088 783 l 1217 1094 l 1099 1094 z m 540 0 l 633 0 l 915 986 l 797 986 l 697 636 b 540 660 644 653 593 660 b 67 232 247 660 67 467 b 288 -11 67 78 164 -11 b 553 114 374 -11 453 22 z m 192 243 b 540 560 192 390 304 560 b 668 536 585 560 628 553 l 578 224 b 324 88 450 108 392 88 b 192 243 247 88 192 146 z "},"ḓ":{"ha":853,"x_min":0,"x_max":0,"o":"m 540 0 l 633 0 l 915 986 l 797 986 l 697 636 b 540 660 644 653 593 660 b 67 232 247 660 67 467 b 288 -11 67 78 164 -11 b 553 114 374 -11 453 22 z m 192 243 b 540 560 192 390 304 560 b 668 536 585 560 628 553 l 578 224 b 324 88 450 108 392 88 b 192 243 247 88 192 146 z m 490 -349 l 326 -104 l 265 -104 l -21 -335 l 18 -389 l 278 -206 l 432 -389 z "},"ḏ":{"ha":853,"x_min":0,"x_max":0,"o":"m 540 0 l 633 0 l 915 986 l 797 986 l 697 636 b 540 660 644 653 593 660 b 67 232 247 660 67 467 b 288 -11 67 78 164 -11 b 553 114 374 -11 453 22 z m 192 243 b 540 560 192 390 304 560 b 668 536 585 560 628 553 l 578 224 b 324 88 450 108 392 88 b 192 243 247 88 192 146 z m 35 -251 l 497 -251 l 524 -161 l 61 -161 z "},"ḍ":{"ha":853,"x_min":0,"x_max":0,"o":"m 540 0 l 633 0 l 915 986 l 797 986 l 697 636 b 540 660 644 653 593 660 b 67 232 247 660 67 467 b 288 -11 67 78 164 -11 b 553 114 374 -11 453 22 z m 192 243 b 540 560 192 390 304 560 b 668 536 585 560 628 553 l 578 224 b 324 88 450 108 392 88 b 192 243 247 88 192 146 z m 264 -296 b 369 -190 326 -296 369 -253 b 294 -132 369 -151 342 -132 b 189 -239 231 -132 189 -185 b 264 -296 189 -281 219 -296 z "},"đ":{"ha":853,"x_min":0,"x_max":0,"o":"m 514 0 l 607 0 l 818 735 l 933 735 l 956 814 l 840 814 l 890 986 l 771 986 l 721 814 l 475 814 l 451 735 l 699 735 l 651 568 b 510 594 604 586 558 594 b 67 215 236 594 67 422 b 282 -11 67 72 161 -11 b 525 106 363 -11 433 22 z m 192 228 b 511 499 192 353 293 499 b 624 474 550 499 588 490 l 550 214 b 318 88 435 111 382 88 b 192 228 244 88 192 139 z "},"é":{"ha":853,"x_min":0,"x_max":0,"o":"m 451 822 l 488 758 l 851 961 l 806 1043 z m 578 86 b 213 238 286 86 213 118 l 213 254 l 443 274 b 794 493 724 299 794 379 b 558 667 794 596 711 667 b 92 226 293 667 92 446 b 549 -10 92 56 181 -10 z m 551 571 b 674 486 631 571 674 533 b 440 356 674 429 629 375 l 229 335 b 551 571 274 468 407 571 z "},"è":{"ha":853,"x_min":0,"x_max":0,"o":"m 694 814 l 467 1035 l 396 960 l 644 758 z m 578 86 b 213 238 286 86 213 118 l 213 254 l 443 274 b 794 493 724 299 794 379 b 558 667 794 596 711 667 b 92 226 293 667 92 446 b 549 -10 92 56 181 -10 z m 551 571 b 674 486 631 571 674 533 b 440 356 674 429 629 375 l 229 335 b 551 571 274 468 407 571 z "},"ê":{"ha":853,"x_min":0,"x_max":0,"o":"m 318 804 l 358 750 l 618 935 l 772 750 l 831 792 l 665 1035 l 604 1035 z m 578 86 b 213 238 286 86 213 118 l 213 254 l 443 274 b 794 493 724 299 794 379 b 558 667 794 596 711 667 b 92 226 293 667 92 446 b 549 -10 92 56 181 -10 z m 551 571 b 674 486 631 571 674 533 b 440 356 674 429 629 375 l 229 335 b 551 571 274 468 407 571 z "},"ệ":{"ha":853,"x_min":0,"x_max":0,"o":"m 318 804 l 358 750 l 618 935 l 772 750 l 831 792 l 665 1035 l 604 1035 z m 578 86 b 213 238 286 86 213 118 l 213 254 l 443 274 b 794 493 724 299 794 379 b 558 667 794 596 711 667 b 92 226 293 667 92 446 b 549 -10 92 56 181 -10 z m 551 571 b 674 486 631 571 674 533 b 440 356 674 429 629 375 l 229 335 b 551 571 274 468 407 571 z m 274 -299 b 379 -193 336 -299 379 -256 b 304 -135 379 -154 351 -135 b 199 -242 240 -135 199 -187 b 274 -299 199 -283 229 -299 z "},"ế":{"ha":853,"x_min":0,"x_max":0,"o":"m 774 1047 l 806 988 l 1065 1124 l 1022 1203 z m 322 807 l 357 750 l 613 917 l 772 750 l 832 793 l 660 1017 l 599 1017 z m 578 86 b 213 238 286 86 213 118 l 213 254 l 443 274 b 794 493 724 299 794 379 b 558 667 794 596 711 667 b 92 226 293 667 92 446 b 549 -10 92 56 181 -10 z m 551 571 b 674 486 631 571 674 533 b 440 356 674 429 629 375 l 229 335 b 551 571 274 468 407 571 z "},"ề":{"ha":853,"x_min":0,"x_max":0,"o":"m 946 1029 l 794 1197 l 722 1129 l 893 981 z m 322 807 l 357 750 l 613 918 l 772 750 l 832 793 l 660 1017 l 599 1017 z m 578 86 b 213 238 286 86 213 118 l 213 254 l 443 274 b 794 493 724 299 794 379 b 558 667 794 596 711 667 b 92 226 293 667 92 446 b 549 -10 92 56 181 -10 z m 551 571 b 674 486 631 571 674 533 b 440 356 674 429 629 375 l 229 335 b 551 571 274 468 407 571 z "},"ể":{"ha":853,"x_min":0,"x_max":0,"o":"m 785 989 b 1086 1142 1042 1026 1086 1090 b 860 1263 1086 1199 1032 1235 l 788 1201 l 788 1197 b 971 1132 939 1172 971 1154 b 774 1051 971 1106 943 1086 l 772 1049 z m 322 807 l 357 750 l 613 918 l 772 750 l 832 793 l 660 1017 l 599 1017 z m 578 86 b 213 238 286 86 213 118 l 213 254 l 443 274 b 794 493 724 299 794 379 b 558 667 794 596 711 667 b 92 226 293 667 92 446 b 549 -10 92 56 181 -10 z m 551 571 b 674 486 631 571 674 533 b 440 356 674 429 629 375 l 229 335 b 551 571 274 468 407 571 z "},"ễ":{"ha":853,"x_min":0,"x_max":0,"o":"m 704 1200 b 600 1269 651 1258 631 1269 b 414 1093 551 1269 510 1239 l 479 1057 b 593 1178 553 1169 574 1178 b 661 1124 610 1178 619 1169 b 765 1054 714 1065 733 1054 b 964 1246 817 1054 861 1086 l 897 1279 b 772 1146 814 1156 793 1146 b 704 1200 756 1146 747 1154 z m 322 807 l 357 750 l 613 918 l 772 750 l 832 793 l 660 1017 l 599 1017 z m 578 86 b 213 238 286 86 213 118 l 213 254 l 443 274 b 794 493 724 299 794 379 b 558 667 794 596 711 667 b 92 226 293 667 92 446 b 549 -10 92 56 181 -10 z m 551 571 b 674 486 631 571 674 533 b 440 356 674 429 629 375 l 229 335 b 551 571 274 468 407 571 z "},"ě":{"ha":853,"x_min":0,"x_max":0,"o":"m 376 1003 l 540 758 l 601 758 l 888 989 l 849 1043 l 589 860 l 433 1043 z m 578 86 b 213 238 286 86 213 118 l 213 254 l 443 274 b 794 493 724 299 794 379 b 558 667 794 596 711 667 b 92 226 293 667 92 446 b 549 -10 92 56 181 -10 z m 551 571 b 674 486 631 571 674 533 b 440 356 674 429 629 375 l 229 335 b 551 571 274 468 407 571 z "},"ĕ":{"ha":853,"x_min":0,"x_max":0,"o":"m 586 847 b 458 1032 504 847 465 900 l 383 1011 b 579 758 383 831 451 758 b 897 1003 706 758 799 826 l 819 1032 b 586 847 738 901 668 847 z m 578 86 b 213 238 286 86 213 118 l 213 254 l 443 274 b 794 493 724 299 794 379 b 558 667 794 596 711 667 b 92 226 293 667 92 446 b 549 -10 92 56 181 -10 z m 551 571 b 674 486 631 571 674 533 b 440 356 674 429 629 375 l 229 335 b 551 571 274 468 407 571 z "},"ẽ":{"ha":853,"x_min":0,"x_max":0,"o":"m 569 856 b 683 758 624 774 651 758 b 908 993 735 758 778 785 l 838 1029 b 697 857 738 875 718 857 b 631 929 682 857 672 867 b 517 1026 576 1013 549 1026 b 293 794 465 1026 424 1001 l 363 756 b 503 929 463 911 482 929 b 569 856 518 929 528 919 z m 578 86 b 213 238 286 86 213 118 l 213 254 l 443 274 b 794 493 724 299 794 379 b 558 667 794 596 711 667 b 92 226 293 667 92 446 b 549 -10 92 56 181 -10 z m 551 571 b 674 486 631 571 674 533 b 440 356 674 429 629 375 l 229 335 b 551 571 274 468 407 571 z "},"ē":{"ha":853,"x_min":0,"x_max":0,"o":"m 351 814 l 813 814 l 839 904 l 378 904 z m 578 86 b 213 238 286 86 213 118 l 213 254 l 443 274 b 794 493 724 299 794 379 b 558 667 794 596 711 667 b 92 226 293 667 92 446 b 549 -10 92 56 181 -10 z m 551 571 b 674 486 631 571 674 533 b 440 356 674 429 629 375 l 229 335 b 551 571 274 468 407 571 z "},"ë":{"ha":853,"x_min":0,"x_max":0,"o":"m 418 786 b 519 888 483 786 519 833 b 449 943 519 926 489 943 b 347 842 388 943 347 892 b 418 786 347 807 369 786 z m 744 786 b 844 888 804 786 844 829 b 775 943 844 922 818 943 b 674 842 718 943 674 896 b 744 786 674 806 699 786 z m 578 86 b 213 238 286 86 213 118 l 213 254 l 443 274 b 794 493 724 299 794 379 b 558 667 794 596 711 667 b 92 226 293 667 92 446 b 549 -10 92 56 181 -10 z m 551 571 b 674 486 631 571 674 533 b 440 356 674 429 629 375 l 229 335 b 551 571 274 468 407 571 z "},"ė":{"ha":853,"x_min":0,"x_max":0,"o":"m 582 786 b 688 893 644 786 688 829 b 613 950 688 932 660 950 b 507 844 549 950 507 897 b 582 786 507 803 539 786 z m 578 86 b 213 238 286 86 213 118 l 213 254 l 443 274 b 794 493 724 299 794 379 b 558 667 794 596 711 667 b 92 226 293 667 92 446 b 549 -10 92 56 181 -10 z m 551 571 b 674 486 631 571 674 533 b 440 356 674 429 629 375 l 229 335 b 551 571 274 468 407 571 z "},"ẻ":{"ha":853,"x_min":0,"x_max":0,"o":"m 436 758 b 767 936 693 781 767 854 b 543 1065 767 994 714 1040 l 476 1008 l 476 1004 b 656 929 622 981 656 956 b 431 824 656 890 617 850 l 429 822 z m 578 86 b 213 238 286 86 213 118 l 213 254 l 443 274 b 794 493 724 299 794 379 b 558 667 794 596 711 667 b 92 226 293 667 92 446 b 549 -10 92 56 181 -10 z m 551 571 b 674 486 631 571 674 533 b 440 356 674 429 629 375 l 229 335 b 551 571 274 468 407 571 z "},"ẹ":{"ha":853,"x_min":0,"x_max":0,"o":"m 578 86 b 213 238 286 86 213 118 l 213 254 l 443 274 b 794 493 724 299 794 379 b 558 667 794 596 711 667 b 92 226 293 667 92 446 b 549 -10 92 56 181 -10 z m 551 571 b 674 486 631 571 674 533 b 440 356 674 429 629 375 l 229 335 b 551 571 274 468 407 571 z m 274 -299 b 379 -193 336 -299 379 -256 b 304 -135 379 -154 351 -135 b 199 -242 240 -135 199 -187 b 274 -299 199 -283 229 -299 z "},"ę":{"ha":853,"x_min":0,"x_max":0,"o":"m 293 -235 b 425 -321 293 -287 322 -315 l 528 -326 l 558 -244 l 474 -239 b 406 -203 418 -236 406 -225 b 549 -10 406 -175 417 -143 l 578 86 b 213 238 286 86 213 118 l 213 254 l 443 274 b 794 493 724 299 794 379 b 558 667 794 596 711 667 b 92 226 293 667 92 446 b 479 -8 92 67 169 0 b 293 -235 318 -146 293 -187 z m 551 571 b 674 486 631 571 674 533 b 440 356 674 429 629 375 l 229 335 b 551 571 274 468 407 571 z "},"ĝ":{"ha":853,"x_min":0,"x_max":0,"o":"m 307 801 l 347 747 l 607 932 l 761 747 l 819 789 l 654 1032 l 593 1032 z m 529 50 b 175 -222 468 -160 400 -211 l 14 -231 l 14 -332 l 178 -322 b 647 43 483 -306 567 -239 l 804 596 b 540 660 715 639 629 660 b 67 261 249 660 67 478 b 293 22 67 111 167 22 b 557 146 379 22 458 56 z m 192 272 b 542 560 192 407 304 560 b 668 536 586 560 628 553 l 590 263 b 328 121 458 143 397 121 b 192 272 249 121 192 178 z "},"ǧ":{"ha":853,"x_min":0,"x_max":0,"o":"m 367 999 l 531 754 l 592 754 l 878 985 l 839 1039 l 579 856 l 424 1039 z m 529 50 b 175 -222 468 -160 400 -211 l 14 -231 l 14 -332 l 178 -322 b 647 43 483 -306 567 -239 l 804 596 b 540 660 715 639 629 660 b 67 261 249 660 67 478 b 293 22 67 111 167 22 b 557 146 379 22 458 56 z m 192 272 b 542 560 192 407 304 560 b 668 536 586 560 628 553 l 590 263 b 328 121 458 143 397 121 b 192 272 249 121 192 178 z "},"ğ":{"ha":853,"x_min":0,"x_max":0,"o":"m 576 843 b 449 1028 494 843 456 896 l 374 1007 b 569 754 374 826 442 754 b 888 999 696 754 789 822 l 810 1028 b 576 843 728 897 658 843 z m 529 50 b 175 -222 468 -160 400 -211 l 14 -231 l 14 -332 l 178 -322 b 647 43 483 -306 567 -239 l 804 596 b 540 660 715 639 629 660 b 67 261 249 660 67 478 b 293 22 67 111 167 22 b 557 146 379 22 458 56 z m 192 272 b 542 560 192 407 304 560 b 668 536 586 560 628 553 l 590 263 b 328 121 458 143 397 121 b 192 272 249 121 192 178 z "},"ḡ":{"ha":853,"x_min":0,"x_max":0,"o":"m 342 810 l 803 810 l 829 900 l 368 900 z m 529 50 b 175 -222 468 -160 400 -211 l 14 -231 l 14 -332 l 178 -322 b 647 43 483 -306 567 -239 l 804 596 b 540 660 715 639 629 660 b 67 261 249 660 67 478 b 293 22 67 111 167 22 b 557 146 379 22 458 56 z m 192 272 b 542 560 192 407 304 560 b 668 536 586 560 628 553 l 590 263 b 328 121 458 143 397 121 b 192 272 249 121 192 178 z "},"ġ":{"ha":853,"x_min":0,"x_max":0,"o":"m 572 782 b 678 889 635 782 678 825 b 603 946 678 928 650 946 b 497 840 539 946 497 893 b 572 782 497 799 529 782 z m 529 50 b 175 -222 468 -160 400 -211 l 14 -231 l 14 -332 l 178 -322 b 647 43 483 -306 567 -239 l 804 596 b 540 660 715 639 629 660 b 67 261 249 660 67 478 b 293 22 67 111 167 22 b 557 146 379 22 458 56 z m 192 272 b 542 560 192 407 304 560 b 668 536 586 560 628 553 l 590 263 b 328 121 458 143 397 121 b 192 272 249 121 192 178 z "},"ģ":{"ha":853,"x_min":0,"x_max":0,"o":"m 768 1061 b 438 885 511 1039 438 965 b 661 754 438 825 490 779 l 728 811 l 728 815 b 549 892 582 839 549 864 b 774 996 549 929 588 971 l 775 999 z m 529 50 b 175 -222 468 -160 400 -211 l 14 -231 l 14 -332 l 178 -322 b 647 43 483 -306 567 -239 l 804 596 b 540 660 715 639 629 660 b 67 261 249 660 67 478 b 293 22 67 111 167 22 b 557 146 379 22 458 56 z m 192 272 b 542 560 192 407 304 560 b 668 536 586 560 628 553 l 590 263 b 328 121 458 143 397 121 b 192 272 249 121 192 178 z "},"ĥ":{"ha":853,"x_min":0,"x_max":0,"o":"m 150 1093 l 190 1039 l 450 1224 l 604 1039 l 663 1081 l 497 1324 l 436 1324 z m 442 986 l 324 986 l 40 0 l 158 0 l 250 319 b 574 547 461 522 511 547 b 644 485 617 547 644 526 b 631 408 644 469 643 450 l 513 0 l 632 0 l 751 413 b 772 522 767 468 772 500 b 622 656 772 606 713 656 b 290 461 529 656 465 626 z "},"ḫ":{"ha":853,"x_min":0,"x_max":0,"o":"m 442 986 l 324 986 l 40 0 l 158 0 l 250 319 b 574 547 461 522 511 547 b 644 485 617 547 644 526 b 631 408 644 469 643 450 l 513 0 l 632 0 l 751 413 b 772 522 767 468 772 500 b 622 656 772 606 713 656 b 290 461 529 656 465 626 z m 253 -290 b 125 -106 171 -290 132 -236 l 50 -125 b 244 -378 50 -307 118 -378 b 564 -135 372 -378 465 -311 l 485 -106 b 253 -290 404 -236 335 -290 z "},"ẖ":{"ha":853,"x_min":0,"x_max":0,"o":"m 442 986 l 324 986 l 40 0 l 158 0 l 250 319 b 574 547 461 522 511 547 b 644 485 617 547 644 526 b 631 408 644 469 643 450 l 513 0 l 632 0 l 751 413 b 772 522 767 468 772 500 b 622 656 772 606 713 656 b 290 461 529 656 465 626 z m 38 -251 l 500 -251 l 526 -161 l 64 -161 z "},"ḥ":{"ha":853,"x_min":0,"x_max":0,"o":"m 442 986 l 324 986 l 40 0 l 158 0 l 250 319 b 574 547 461 522 511 547 b 644 485 617 547 644 526 b 631 408 644 469 643 450 l 513 0 l 632 0 l 751 413 b 772 522 767 468 772 500 b 622 656 772 606 713 656 b 290 461 529 656 465 626 z m 267 -296 b 372 -190 329 -296 372 -253 b 297 -132 372 -151 344 -132 b 192 -239 233 -132 192 -185 b 267 -296 192 -281 222 -296 z "},"ḩ":{"ha":853,"x_min":0,"x_max":0,"o":"m 442 986 l 324 986 l 40 0 l 65 0 l -21 -135 l -17 -149 b 163 -208 129 -162 163 -178 b -140 -293 163 -249 136 -269 l -140 -368 b 265 -199 233 -335 265 -281 b 85 -83 265 -139 235 -107 l 135 0 l 158 0 l 250 319 b 574 547 461 522 511 547 b 644 485 617 547 644 526 b 631 408 644 469 643 450 l 513 0 l 632 0 l 751 413 b 772 522 767 468 772 500 b 622 656 772 606 713 656 b 290 461 529 656 465 626 z "},"ħ":{"ha":853,"x_min":0,"x_max":0,"o":"m 638 735 l 660 814 l 413 814 l 463 986 l 344 986 l 294 814 l 179 814 l 156 735 l 272 735 l 61 0 l 179 0 l 254 260 b 565 486 460 458 504 486 b 626 424 603 486 626 464 b 613 347 626 408 625 390 l 514 0 l 633 0 l 733 351 b 754 461 749 407 754 438 b 614 594 754 544 699 594 b 294 403 525 594 464 564 l 390 735 z "},"ı":{"ha":853,"x_min":0,"x_max":0,"o":"m 94 100 l 65 0 l 646 0 l 674 100 l 431 100 l 618 646 l 279 646 l 250 546 l 465 546 l 313 100 z "},"í":{"ha":853,"x_min":0,"x_max":0,"o":"m 447 815 l 483 751 l 847 954 l 801 1036 z m 94 100 l 65 0 l 646 0 l 674 100 l 431 100 l 618 646 l 279 646 l 250 546 l 465 546 l 313 100 z "},"ì":{"ha":853,"x_min":0,"x_max":0,"o":"m 690 807 l 463 1028 l 392 953 l 640 751 z m 94 100 l 65 0 l 646 0 l 674 100 l 431 100 l 618 646 l 279 646 l 250 546 l 465 546 l 313 100 z "},"î":{"ha":853,"x_min":0,"x_max":0,"o":"m 314 806 l 354 751 l 614 936 l 768 751 l 826 793 l 661 1036 l 600 1036 z m 94 100 l 65 0 l 646 0 l 674 100 l 431 100 l 618 646 l 279 646 l 250 546 l 465 546 l 313 100 z "},"ǐ":{"ha":853,"x_min":0,"x_max":0,"o":"m 372 996 l 536 751 l 597 751 l 883 982 l 844 1036 l 585 853 l 429 1036 z m 94 100 l 65 0 l 646 0 l 674 100 l 431 100 l 618 646 l 279 646 l 250 546 l 465 546 l 313 100 z "},"ĭ":{"ha":853,"x_min":0,"x_max":0,"o":"m 582 840 b 454 1025 500 840 461 893 l 379 1004 b 575 751 379 824 447 751 b 893 996 701 751 794 819 l 815 1025 b 582 840 733 894 664 840 z m 94 100 l 65 0 l 646 0 l 674 100 l 431 100 l 618 646 l 279 646 l 250 546 l 465 546 l 313 100 z "},"ĩ":{"ha":853,"x_min":0,"x_max":0,"o":"m 565 849 b 679 751 619 767 647 751 b 904 986 731 751 774 778 l 833 1022 b 693 850 733 868 714 850 b 626 922 678 850 668 860 b 513 1019 572 1006 544 1019 b 289 788 461 1019 419 994 l 358 749 b 499 922 458 904 478 922 b 565 849 514 922 524 913 z m 94 100 l 65 0 l 646 0 l 674 100 l 431 100 l 618 646 l 279 646 l 250 546 l 465 546 l 313 100 z "},"ī":{"ha":853,"x_min":0,"x_max":0,"o":"m 347 807 l 808 807 l 835 897 l 374 897 z m 94 100 l 65 0 l 646 0 l 674 100 l 431 100 l 618 646 l 279 646 l 250 546 l 465 546 l 313 100 z "},"ï":{"ha":853,"x_min":0,"x_max":0,"o":"m 413 779 b 514 881 478 779 514 826 b 443 936 514 919 483 936 b 342 835 382 936 342 885 b 413 779 342 800 364 779 z m 739 779 b 839 881 799 779 839 822 b 769 936 839 915 813 936 b 668 835 713 936 668 889 b 739 779 668 799 693 779 z m 94 100 l 65 0 l 646 0 l 674 100 l 431 100 l 618 646 l 279 646 l 250 546 l 465 546 l 313 100 z "},"ỉ":{"ha":853,"x_min":0,"x_max":0,"o":"m 432 751 b 763 929 689 774 763 847 b 539 1058 763 988 710 1033 l 472 1001 l 472 997 b 651 922 618 974 651 949 b 426 817 651 883 613 843 l 425 815 z m 94 100 l 65 0 l 646 0 l 674 100 l 431 100 l 618 646 l 279 646 l 250 546 l 465 546 l 313 100 z "},"ị":{"ha":853,"x_min":0,"x_max":0,"o":"m 568 838 b 689 940 643 838 689 882 b 593 1014 689 988 656 1014 b 472 913 511 1014 472 963 b 568 838 472 863 511 838 z m 94 100 l 65 0 l 646 0 l 674 100 l 431 100 l 618 646 l 279 646 l 250 546 l 465 546 l 313 100 z m 276 -296 b 382 -190 339 -296 382 -253 b 307 -132 382 -151 354 -132 b 201 -239 243 -132 201 -185 b 276 -296 201 -281 232 -296 z "},"į":{"ha":853,"x_min":0,"x_max":0,"o":"m 568 838 b 689 940 643 838 689 882 b 593 1014 689 988 656 1014 b 472 913 511 1014 472 963 b 568 838 472 863 511 838 z m 94 100 l 65 0 l 321 0 b 136 -235 160 -139 136 -185 b 268 -321 136 -287 165 -315 l 371 -326 l 403 -244 l 317 -239 b 249 -203 261 -236 249 -225 b 390 0 249 -174 258 -136 l 646 0 l 674 100 l 431 100 l 618 646 l 279 646 l 250 546 l 465 546 l 313 100 z "},"ȷ":{"ha":853,"x_min":0,"x_max":0,"o":"m 499 24 l 678 646 l 264 646 l 235 546 l 531 546 l 385 36 b 63 -222 331 -153 278 -210 l -43 -228 l -43 -331 l 64 -324 b 499 24 356 -306 424 -242 z "},"ĵ":{"ha":853,"x_min":0,"x_max":0,"o":"m 400 806 l 440 751 l 700 936 l 854 751 l 913 793 l 747 1036 l 686 1036 z m 499 24 l 678 646 l 264 646 l 235 546 l 531 546 l 385 36 b 63 -222 331 -153 278 -210 l -43 -228 l -43 -331 l 64 -324 b 499 24 356 -306 424 -242 z "},"ǰ":{"ha":853,"x_min":0,"x_max":0,"o":"m 457 996 l 621 751 l 682 751 l 968 982 l 929 1036 l 669 853 l 514 1036 z m 499 24 l 678 646 l 264 646 l 235 546 l 531 546 l 385 36 b 63 -222 331 -153 278 -210 l -43 -228 l -43 -331 l 64 -324 b 499 24 356 -306 424 -242 z "},"ḵ":{"ha":853,"x_min":0,"x_max":0,"o":"m 463 986 l 344 986 l 61 0 l 181 0 l 271 318 l 525 0 l 675 0 l 675 3 l 404 328 l 856 643 l 856 646 l 689 646 l 282 353 z m 25 -251 l 488 -251 l 514 -161 l 51 -161 z "},"ķ":{"ha":853,"x_min":0,"x_max":0,"o":"m 463 986 l 344 986 l 61 0 l 181 0 l 271 318 l 525 0 l 675 0 l 675 3 l 404 328 l 856 643 l 856 646 l 689 646 l 282 353 z m 85 -411 b 415 -233 342 -389 415 -315 b 193 -104 415 -175 363 -129 l 125 -161 l 125 -165 b 304 -242 272 -189 304 -214 b 79 -346 304 -279 265 -319 l 78 -347 z "},"ḳ":{"ha":853,"x_min":0,"x_max":0,"o":"m 463 986 l 344 986 l 61 0 l 181 0 l 271 318 l 525 0 l 675 0 l 675 3 l 404 328 l 856 643 l 856 646 l 689 646 l 282 353 z m 254 -296 b 360 -190 317 -296 360 -253 b 285 -132 360 -151 332 -132 b 179 -239 221 -132 179 -185 b 254 -296 179 -281 210 -296 z "},"ĺ":{"ha":853,"x_min":0,"x_max":0,"o":"m 496 1163 l 532 1099 l 896 1301 l 850 1383 z m 319 353 b 278 171 289 268 278 217 b 489 -6 278 53 342 -1 l 642 -11 l 671 92 l 513 97 b 400 193 435 100 400 125 b 433 338 400 231 407 263 l 667 986 l 281 986 l 251 886 l 513 886 z "},"ľ":{"ha":853,"x_min":0,"x_max":0,"o":"m 794 783 l 872 783 l 1001 1094 l 883 1094 z m 319 353 b 278 171 289 268 278 217 b 489 -6 278 53 342 -1 l 642 -11 l 671 92 l 513 97 b 400 193 435 100 400 125 b 433 338 400 231 407 263 l 667 986 l 281 986 l 251 886 l 513 886 z "},"ļ":{"ha":853,"x_min":0,"x_max":0,"o":"m 319 353 b 278 171 289 268 278 217 b 489 -6 278 53 342 -1 l 642 -11 l 671 92 l 513 97 b 400 193 435 100 400 125 b 433 338 400 231 407 263 l 667 986 l 281 986 l 251 886 l 513 886 z m 83 -411 b 414 -233 340 -389 414 -315 b 192 -104 414 -175 361 -129 l 124 -161 l 124 -165 b 303 -242 271 -189 303 -214 b 78 -346 303 -279 264 -319 l 76 -347 z "},"ḽ":{"ha":853,"x_min":0,"x_max":0,"o":"m 319 353 b 278 171 289 268 278 217 b 489 -6 278 53 342 -1 l 642 -11 l 671 92 l 513 97 b 400 193 435 100 400 125 b 433 338 400 231 407 263 l 667 986 l 281 986 l 251 886 l 513 886 z m 479 -349 l 315 -104 l 254 -104 l -32 -335 l 7 -389 l 267 -206 l 421 -389 z "},"ḻ":{"ha":853,"x_min":0,"x_max":0,"o":"m 319 353 b 278 171 289 268 278 217 b 489 -6 278 53 342 -1 l 642 -11 l 671 92 l 513 97 b 400 193 435 100 400 125 b 433 338 400 231 407 263 l 667 986 l 281 986 l 251 886 l 513 886 z m 24 -251 l 486 -251 l 513 -161 l 50 -161 z "},"ḹ":{"ha":853,"x_min":0,"x_max":0,"o":"m 396 1154 l 857 1154 l 883 1244 l 422 1244 z m 319 353 b 278 171 289 268 278 217 b 489 -6 278 53 342 -1 l 642 -11 l 671 92 l 513 97 b 400 193 435 100 400 125 b 433 338 400 231 407 263 l 667 986 l 281 986 l 251 886 l 513 886 z m 253 -296 b 358 -190 315 -296 358 -253 b 283 -132 358 -151 331 -132 b 178 -239 219 -132 178 -185 b 253 -296 178 -281 208 -296 z "},"ḷ":{"ha":853,"x_min":0,"x_max":0,"o":"m 319 353 b 278 171 289 268 278 217 b 489 -6 278 53 342 -1 l 642 -11 l 671 92 l 513 97 b 400 193 435 100 400 125 b 433 338 400 231 407 263 l 667 986 l 281 986 l 251 886 l 513 886 z m 253 -296 b 358 -190 315 -296 358 -253 b 283 -132 358 -151 331 -132 b 178 -239 219 -132 178 -185 b 253 -296 178 -281 208 -296 z "},"ŀ":{"ha":853,"x_min":0,"x_max":0,"o":"m 319 353 b 278 171 289 268 278 217 b 489 -6 278 53 342 -1 l 642 -11 l 671 92 l 513 97 b 400 193 435 100 400 125 b 433 338 400 231 407 263 l 667 986 l 281 986 l 251 886 l 513 886 z m 851 385 b 986 536 929 385 986 454 b 897 610 986 579 958 610 b 763 458 821 610 763 538 b 851 385 763 413 794 385 z "},"ł":{"ha":853,"x_min":0,"x_max":0,"o":"m 122 332 l 351 440 l 319 353 b 278 171 289 268 278 217 b 489 -6 278 53 342 -1 l 642 -11 l 671 92 l 513 97 b 400 193 435 100 400 125 b 433 338 400 231 407 263 l 488 490 l 754 617 l 782 714 l 525 592 l 667 986 l 281 986 l 251 886 l 513 886 l 388 542 l 151 429 z "},"ḿ":{"ha":853,"x_min":0,"x_max":0,"o":"m 436 815 l 472 751 l 836 954 l 790 1036 z m 256 646 l 167 646 l -19 0 l 89 0 l 196 375 b 389 540 321 521 358 540 b 424 507 411 540 424 531 b 414 461 424 496 421 482 l 283 0 l 388 0 l 494 375 b 686 540 618 521 656 540 b 721 507 708 540 721 531 b 713 461 721 496 718 482 l 581 0 l 689 0 l 839 519 b 847 576 844 542 847 560 b 760 657 847 626 817 657 b 521 458 701 657 639 617 l 518 458 l 538 525 b 546 578 543 544 546 563 b 460 657 546 628 514 657 b 218 461 404 657 338 617 l 215 461 z "},"ṁ":{"ha":853,"x_min":0,"x_max":0,"o":"m 567 779 b 672 886 629 779 672 822 b 597 943 672 925 644 943 b 492 838 533 943 492 890 b 567 779 492 796 524 779 z m 256 646 l 167 646 l -19 0 l 89 0 l 196 375 b 389 540 321 521 358 540 b 424 507 411 540 424 531 b 414 461 424 496 421 482 l 283 0 l 388 0 l 494 375 b 686 540 618 521 656 540 b 721 507 708 540 721 531 b 713 461 721 496 718 482 l 581 0 l 689 0 l 839 519 b 847 576 844 542 847 560 b 760 657 847 626 817 657 b 521 458 701 657 639 617 l 518 458 l 538 525 b 546 578 543 544 546 563 b 460 657 546 628 514 657 b 218 461 404 657 338 617 l 215 461 z "},"ṃ":{"ha":853,"x_min":0,"x_max":0,"o":"m 256 646 l 167 646 l -19 0 l 89 0 l 196 375 b 389 540 321 521 358 540 b 424 507 411 540 424 531 b 414 461 424 496 421 482 l 283 0 l 388 0 l 494 375 b 686 540 618 521 656 540 b 721 507 708 540 721 531 b 713 461 721 496 718 482 l 581 0 l 689 0 l 839 519 b 847 576 844 542 847 560 b 760 657 847 626 817 657 b 521 458 701 657 639 617 l 518 458 l 538 525 b 546 578 543 544 546 563 b 460 657 546 628 514 657 b 218 461 404 657 338 617 l 215 461 z m 261 -296 b 367 -190 324 -296 367 -253 b 292 -132 367 -151 339 -132 b 186 -239 228 -132 186 -185 b 261 -296 186 -281 217 -296 z "},"ń":{"ha":853,"x_min":0,"x_max":0,"o":"m 433 815 l 469 751 l 833 954 l 788 1036 z m 336 646 l 225 646 l 40 0 l 158 0 l 250 319 b 574 547 461 522 511 547 b 644 485 617 547 644 526 b 631 408 644 469 643 450 l 513 0 l 632 0 l 751 413 b 772 522 767 468 772 500 b 622 656 772 606 713 656 b 285 456 528 656 464 626 z "},"ǹ":{"ha":853,"x_min":0,"x_max":0,"o":"m 676 807 l 449 1028 l 378 953 l 626 751 z m 336 646 l 225 646 l 40 0 l 158 0 l 250 319 b 574 547 461 522 511 547 b 644 485 617 547 644 526 b 631 408 644 469 643 450 l 513 0 l 632 0 l 751 413 b 772 522 767 468 772 500 b 622 656 772 606 713 656 b 285 456 528 656 464 626 z "},"ň":{"ha":853,"x_min":0,"x_max":0,"o":"m 358 996 l 522 751 l 583 751 l 869 982 l 831 1036 l 571 853 l 415 1036 z m 336 646 l 225 646 l 40 0 l 158 0 l 250 319 b 574 547 461 522 511 547 b 644 485 617 547 644 526 b 631 408 644 469 643 450 l 513 0 l 632 0 l 751 413 b 772 522 767 468 772 500 b 622 656 772 606 713 656 b 285 456 528 656 464 626 z "},"ñ":{"ha":853,"x_min":0,"x_max":0,"o":"m 551 849 b 665 751 606 767 633 751 b 890 986 717 751 760 778 l 819 1022 b 679 850 719 868 700 850 b 613 922 664 850 654 860 b 499 1019 558 1006 531 1019 b 275 788 447 1019 406 994 l 344 749 b 485 922 444 904 464 922 b 551 849 500 922 510 913 z m 336 646 l 225 646 l 40 0 l 158 0 l 250 319 b 574 547 461 522 511 547 b 644 485 617 547 644 526 b 631 408 644 469 643 450 l 513 0 l 632 0 l 751 413 b 772 522 767 468 772 500 b 622 656 772 606 713 656 b 285 456 528 656 464 626 z "},"ṅ":{"ha":853,"x_min":0,"x_max":0,"o":"m 564 779 b 669 886 626 779 669 822 b 594 943 669 925 642 943 b 489 838 531 943 489 890 b 564 779 489 796 521 779 z m 336 646 l 225 646 l 40 0 l 158 0 l 250 319 b 574 547 461 522 511 547 b 644 485 617 547 644 526 b 631 408 644 469 643 450 l 513 0 l 632 0 l 751 413 b 772 522 767 468 772 500 b 622 656 772 606 713 656 b 285 456 528 656 464 626 z "},"ṋ":{"ha":853,"x_min":0,"x_max":0,"o":"m 336 646 l 225 646 l 40 0 l 158 0 l 250 319 b 574 547 461 522 511 547 b 644 485 617 547 644 526 b 631 408 644 469 643 450 l 513 0 l 632 0 l 751 413 b 772 522 767 468 772 500 b 622 656 772 606 713 656 b 285 456 528 656 464 626 z m 493 -349 l 329 -104 l 268 -104 l -18 -335 l 21 -389 l 281 -206 l 435 -389 z "},"ņ":{"ha":853,"x_min":0,"x_max":0,"o":"m 336 646 l 225 646 l 40 0 l 158 0 l 250 319 b 574 547 461 522 511 547 b 644 485 617 547 644 526 b 631 408 644 469 643 450 l 513 0 l 632 0 l 751 413 b 772 522 767 468 772 500 b 622 656 772 606 713 656 b 285 456 528 656 464 626 z m 97 -411 b 428 -233 354 -389 428 -315 b 206 -104 428 -175 375 -129 l 138 -161 l 138 -165 b 317 -242 285 -189 317 -214 b 92 -346 317 -279 278 -319 l 90 -347 z "},"ṇ":{"ha":853,"x_min":0,"x_max":0,"o":"m 336 646 l 225 646 l 40 0 l 158 0 l 250 319 b 574 547 461 522 511 547 b 644 485 617 547 644 526 b 631 408 644 469 643 450 l 513 0 l 632 0 l 751 413 b 772 522 767 468 772 500 b 622 656 772 606 713 656 b 285 456 528 656 464 626 z m 267 -296 b 372 -190 329 -296 372 -253 b 297 -132 372 -151 344 -132 b 192 -239 233 -132 192 -185 b 267 -296 192 -281 222 -296 z "},"ṉ":{"ha":853,"x_min":0,"x_max":0,"o":"m 336 646 l 225 646 l 40 0 l 158 0 l 250 319 b 574 547 461 522 511 547 b 644 485 617 547 644 526 b 631 408 644 469 643 450 l 513 0 l 632 0 l 751 413 b 772 522 767 468 772 500 b 622 656 772 606 713 656 b 285 456 528 656 464 626 z m 38 -251 l 500 -251 l 526 -161 l 64 -161 z "},"ŋ":{"ha":853,"x_min":0,"x_max":0,"o":"m 639 24 l 751 413 b 772 522 768 468 772 500 b 622 656 772 606 713 656 b 285 456 528 656 464 626 l 336 646 l 225 646 l 40 0 l 158 0 l 250 319 b 574 547 461 522 511 547 b 644 485 617 547 644 526 b 631 408 644 469 643 450 l 524 36 b 219 -222 471 -153 424 -210 l 122 -228 l 122 -331 l 219 -324 b 639 24 501 -306 563 -242 z "},"ó":{"ha":853,"x_min":0,"x_max":0,"o":"m 421 822 l 457 758 l 821 961 l 775 1043 z m 494 667 b 72 261 249 667 72 472 b 358 -21 72 100 183 -21 b 781 385 604 -21 781 174 b 494 667 781 546 669 667 z m 375 78 b 194 264 269 78 194 154 b 479 569 194 422 324 569 b 658 383 583 569 658 492 b 375 78 658 224 529 78 z "},"ő":{"ha":853,"x_min":0,"x_max":0,"o":"m 310 806 l 357 758 l 592 976 l 519 1038 z m 625 806 l 672 758 l 906 976 l 835 1038 z m 494 667 b 72 261 249 667 72 472 b 358 -21 72 100 183 -21 b 781 385 604 -21 781 174 b 494 667 781 546 669 667 z m 375 78 b 194 264 269 78 194 154 b 479 569 194 422 324 569 b 658 383 583 569 658 492 b 375 78 658 224 529 78 z "},"ò":{"ha":853,"x_min":0,"x_max":0,"o":"m 664 814 l 436 1035 l 365 960 l 614 758 z m 494 667 b 72 261 249 667 72 472 b 358 -21 72 100 183 -21 b 781 385 604 -21 781 174 b 494 667 781 546 669 667 z m 375 78 b 194 264 269 78 194 154 b 479 569 194 422 324 569 b 658 383 583 569 658 492 b 375 78 658 224 529 78 z "},"ô":{"ha":853,"x_min":0,"x_max":0,"o":"m 286 806 l 326 751 l 586 936 l 740 751 l 799 793 l 633 1036 l 572 1036 z m 494 667 b 72 261 249 667 72 472 b 358 -21 72 100 183 -21 b 781 385 604 -21 781 174 b 494 667 781 546 669 667 z m 375 78 b 194 264 269 78 194 154 b 479 569 194 422 324 569 b 658 383 583 569 658 492 b 375 78 658 224 529 78 z "},"ộ":{"ha":853,"x_min":0,"x_max":0,"o":"m 286 806 l 326 751 l 586 936 l 740 751 l 799 793 l 633 1036 l 572 1036 z m 494 667 b 72 261 249 667 72 472 b 358 -21 72 100 183 -21 b 781 385 604 -21 781 174 b 494 667 781 546 669 667 z m 375 78 b 194 264 269 78 194 154 b 479 569 194 422 324 569 b 658 383 583 569 658 492 b 375 78 658 224 529 78 z m 275 -303 b 381 -197 338 -303 381 -260 b 306 -139 381 -158 353 -139 b 200 -246 242 -139 200 -192 b 275 -303 200 -287 231 -303 z "},"ố":{"ha":853,"x_min":0,"x_max":0,"o":"m 742 1049 l 774 989 l 1033 1125 l 990 1204 z m 290 808 l 325 751 l 581 918 l 740 751 l 800 794 l 628 1018 l 567 1018 z m 494 667 b 72 261 249 667 72 472 b 358 -21 72 100 183 -21 b 781 385 604 -21 781 174 b 494 667 781 546 669 667 z m 375 78 b 194 264 269 78 194 154 b 479 569 194 422 324 569 b 658 383 583 569 658 492 b 375 78 658 224 529 78 z "},"ồ":{"ha":853,"x_min":0,"x_max":0,"o":"m 914 1031 l 763 1199 l 690 1131 l 861 982 z m 290 808 l 325 751 l 581 919 l 740 751 l 800 794 l 628 1018 l 567 1018 z m 494 667 b 72 261 249 667 72 472 b 358 -21 72 100 183 -21 b 781 385 604 -21 781 174 b 494 667 781 546 669 667 z m 375 78 b 194 264 269 78 194 154 b 479 569 194 422 324 569 b 658 383 583 569 658 492 b 375 78 658 224 529 78 z "},"ổ":{"ha":853,"x_min":0,"x_max":0,"o":"m 753 990 b 1054 1143 1010 1028 1054 1092 b 828 1264 1054 1200 1000 1236 l 756 1203 l 756 1199 b 939 1133 907 1174 939 1156 b 742 1053 939 1107 911 1088 l 740 1050 z m 290 808 l 325 751 l 581 919 l 740 751 l 800 794 l 628 1018 l 567 1018 z m 494 667 b 72 261 249 667 72 472 b 358 -21 72 100 183 -21 b 781 385 604 -21 781 174 b 494 667 781 546 669 667 z m 375 78 b 194 264 269 78 194 154 b 479 569 194 422 324 569 b 658 383 583 569 658 492 b 375 78 658 224 529 78 z "},"ỗ":{"ha":853,"x_min":0,"x_max":0,"o":"m 672 1201 b 568 1271 619 1260 599 1271 b 382 1094 519 1271 478 1240 l 447 1058 b 561 1179 521 1171 542 1179 b 629 1125 578 1179 588 1171 b 733 1056 682 1067 701 1056 b 932 1247 785 1056 829 1088 l 865 1281 b 740 1147 782 1157 761 1147 b 672 1201 724 1147 715 1156 z m 290 808 l 325 751 l 581 919 l 740 751 l 800 794 l 628 1018 l 567 1018 z m 494 667 b 72 261 249 667 72 472 b 358 -21 72 100 183 -21 b 781 385 604 -21 781 174 b 494 667 781 546 669 667 z m 375 78 b 194 264 269 78 194 154 b 479 569 194 422 324 569 b 658 383 583 569 658 492 b 375 78 658 224 529 78 z "},"ǒ":{"ha":853,"x_min":0,"x_max":0,"o":"m 346 1003 l 510 758 l 571 758 l 857 989 l 818 1043 l 558 860 l 403 1043 z m 494 667 b 72 261 249 667 72 472 b 358 -21 72 100 183 -21 b 781 385 604 -21 781 174 b 494 667 781 546 669 667 z m 375 78 b 194 264 269 78 194 154 b 479 569 194 422 324 569 b 658 383 583 569 658 492 b 375 78 658 224 529 78 z "},"ŏ":{"ha":853,"x_min":0,"x_max":0,"o":"m 556 847 b 428 1032 474 847 435 900 l 353 1011 b 549 758 353 831 421 758 b 867 1003 675 758 768 826 l 789 1032 b 556 847 707 901 638 847 z m 494 667 b 72 261 249 667 72 472 b 358 -21 72 100 183 -21 b 781 385 604 -21 781 174 b 494 667 781 546 669 667 z m 375 78 b 194 264 269 78 194 154 b 479 569 194 422 324 569 b 658 383 583 569 658 492 b 375 78 658 224 529 78 z "},"õ":{"ha":853,"x_min":0,"x_max":0,"o":"m 539 856 b 653 758 593 774 621 758 b 878 993 704 758 747 785 l 807 1029 b 667 857 707 875 688 857 b 600 929 651 857 642 867 b 486 1026 546 1013 518 1026 b 263 794 435 1026 393 1001 l 332 756 b 472 929 432 911 451 929 b 539 856 488 929 497 919 z m 494 667 b 72 261 249 667 72 472 b 358 -21 72 100 183 -21 b 781 385 604 -21 781 174 b 494 667 781 546 669 667 z m 375 78 b 194 264 269 78 194 154 b 479 569 194 422 324 569 b 658 383 583 569 658 492 b 375 78 658 224 529 78 z "},"ō":{"ha":853,"x_min":0,"x_max":0,"o":"m 321 814 l 782 814 l 808 904 l 347 904 z m 494 667 b 72 261 249 667 72 472 b 358 -21 72 100 183 -21 b 781 385 604 -21 781 174 b 494 667 781 546 669 667 z m 375 78 b 194 264 269 78 194 154 b 479 569 194 422 324 569 b 658 383 583 569 658 492 b 375 78 658 224 529 78 z "},"ö":{"ha":853,"x_min":0,"x_max":0,"o":"m 388 786 b 489 888 453 786 489 833 b 418 943 489 926 458 943 b 317 842 357 943 317 892 b 388 786 317 807 339 786 z m 714 786 b 814 888 774 786 814 829 b 744 943 814 922 788 943 b 643 842 688 943 643 896 b 714 786 643 806 668 786 z m 494 667 b 72 261 249 667 72 472 b 358 -21 72 100 183 -21 b 781 385 604 -21 781 174 b 494 667 781 546 669 667 z m 375 78 b 194 264 269 78 194 154 b 479 569 194 422 324 569 b 658 383 583 569 658 492 b 375 78 658 224 529 78 z "},"ȯ":{"ha":853,"x_min":0,"x_max":0,"o":"m 551 786 b 657 893 614 786 657 829 b 582 950 657 932 629 950 b 476 844 518 950 476 897 b 551 786 476 803 508 786 z m 494 667 b 72 261 249 667 72 472 b 358 -21 72 100 183 -21 b 781 385 604 -21 781 174 b 494 667 781 546 669 667 z m 375 78 b 194 264 269 78 194 154 b 479 569 194 422 324 569 b 658 383 583 569 658 492 b 375 78 658 224 529 78 z "},"ỏ":{"ha":853,"x_min":0,"x_max":0,"o":"m 406 758 b 736 936 663 781 736 854 b 513 1065 736 994 683 1040 l 446 1008 l 446 1004 b 625 929 592 981 625 956 b 400 824 625 890 586 850 l 399 822 z m 494 667 b 72 261 249 667 72 472 b 358 -21 72 100 183 -21 b 781 385 604 -21 781 174 b 494 667 781 546 669 667 z m 375 78 b 194 264 269 78 194 154 b 479 569 194 422 324 569 b 658 383 583 569 658 492 b 375 78 658 224 529 78 z "},"ọ":{"ha":853,"x_min":0,"x_max":0,"o":"m 494 667 b 72 261 249 667 72 472 b 358 -21 72 100 183 -21 b 781 385 604 -21 781 174 b 494 667 781 546 669 667 z m 375 78 b 194 264 269 78 194 154 b 479 569 194 422 324 569 b 658 383 583 569 658 492 b 375 78 658 224 529 78 z m 275 -303 b 381 -197 338 -303 381 -260 b 306 -139 381 -158 353 -139 b 200 -246 242 -139 200 -192 b 275 -303 200 -287 231 -303 z "},"ǫ":{"ha":853,"x_min":0,"x_max":0,"o":"m 126 -242 b 258 -328 126 -294 156 -322 l 361 -333 l 392 -251 l 307 -246 b 238 -210 251 -243 238 -232 b 367 -21 238 -181 246 -146 b 781 385 608 -17 781 176 b 494 667 781 546 669 667 b 72 261 249 667 72 472 b 300 -17 72 119 158 8 b 126 -242 149 -147 126 -193 z m 375 78 b 194 264 269 78 194 154 b 479 569 194 422 324 569 b 658 383 583 569 658 492 b 375 78 658 224 529 78 z "},"ø":{"ha":853,"x_min":0,"x_max":0,"o":"m 494 667 b 72 261 249 667 72 472 b 128 89 72 196 93 138 l -69 -99 l 63 -99 l 186 32 b 358 -21 233 -1 292 -21 b 781 385 604 -21 781 174 b 725 556 781 449 760 508 l 924 744 l 790 744 l 665 614 b 494 667 618 647 560 667 z m 194 264 b 479 569 194 422 324 569 b 588 535 521 569 558 557 l 217 168 b 194 264 203 196 194 228 z m 375 78 b 265 113 332 78 294 90 l 636 478 b 658 383 650 451 658 419 b 375 78 658 224 529 78 z "},"œ":{"ha":853,"x_min":0,"x_max":0,"o":"m 171 -19 b 375 111 251 -19 321 33 b 643 -7 401 26 475 -7 l 672 82 b 465 208 515 82 465 111 b 475 292 465 235 468 263 b 857 522 804 321 857 411 b 711 664 857 613 801 664 b 482 515 636 664 551 619 b 338 664 471 611 422 664 b 164 583 269 664 214 633 b 13 185 68 489 13 329 b 171 -19 13 47 69 -19 z m 682 574 b 744 510 721 574 744 554 b 496 365 744 451 701 388 b 682 574 538 475 611 574 z m 131 179 b 256 529 131 299 188 461 b 336 571 282 556 308 571 b 404 465 381 571 404 531 b 278 114 404 342 347 183 b 200 75 253 89 228 75 b 131 179 154 75 131 111 z "},"ơ":{"ha":853,"x_min":0,"x_max":0,"o":"m 496 646 b 72 251 249 646 72 457 b 358 -21 72 96 183 -21 b 781 371 604 -21 781 164 b 672 568 781 453 738 518 l 678 575 b 717 572 690 574 704 572 b 954 801 850 572 897 618 l 842 801 b 669 646 801 672 775 646 z m 375 78 b 194 254 269 78 194 150 b 481 549 194 407 325 549 b 658 374 583 549 658 475 b 375 78 658 219 529 78 z "},"ớ":{"ha":853,"x_min":0,"x_max":0,"o":"m 421 822 l 457 758 l 821 961 l 775 1043 z m 496 646 b 72 251 249 646 72 457 b 358 -21 72 96 183 -21 b 781 371 604 -21 781 164 b 672 568 781 453 738 518 l 678 575 b 717 572 690 574 704 572 b 954 801 850 572 897 618 l 842 801 b 669 646 801 672 775 646 z m 375 78 b 194 254 269 78 194 150 b 481 549 194 407 325 549 b 658 374 583 549 658 475 b 375 78 658 219 529 78 z "},"ờ":{"ha":853,"x_min":0,"x_max":0,"o":"m 664 814 l 436 1035 l 365 960 l 614 758 z m 496 646 b 72 251 249 646 72 457 b 358 -21 72 96 183 -21 b 781 371 604 -21 781 164 b 672 568 781 453 738 518 l 678 575 b 717 572 690 574 704 572 b 954 801 850 572 897 618 l 842 801 b 669 646 801 672 775 646 z m 375 78 b 194 254 269 78 194 150 b 481 549 194 407 325 549 b 658 374 583 549 658 475 b 375 78 658 219 529 78 z "},"ỡ":{"ha":853,"x_min":0,"x_max":0,"o":"m 539 856 b 653 758 593 774 621 758 b 878 993 704 758 747 785 l 807 1029 b 667 857 707 875 688 857 b 600 929 651 857 642 867 b 486 1026 546 1013 518 1026 b 263 794 435 1026 393 1001 l 332 756 b 472 929 432 911 451 929 b 539 856 488 929 497 919 z m 496 646 b 72 251 249 646 72 457 b 358 -21 72 96 183 -21 b 781 371 604 -21 781 164 b 672 568 781 453 738 518 l 678 575 b 717 572 690 574 704 572 b 954 801 850 572 897 618 l 842 801 b 669 646 801 672 775 646 z m 375 78 b 194 254 269 78 194 150 b 481 549 194 407 325 549 b 658 374 583 549 658 475 b 375 78 658 219 529 78 z "},"ở":{"ha":853,"x_min":0,"x_max":0,"o":"m 406 758 b 736 936 663 781 736 854 b 513 1065 736 994 683 1040 l 446 1008 l 446 1004 b 625 929 592 981 625 956 b 400 824 625 890 586 850 l 399 822 z m 496 646 b 72 251 249 646 72 457 b 358 -21 72 96 183 -21 b 781 371 604 -21 781 164 b 672 568 781 453 738 518 l 678 575 b 717 572 690 574 704 572 b 954 801 850 572 897 618 l 842 801 b 669 646 801 672 775 646 z m 375 78 b 194 254 269 78 194 150 b 481 549 194 407 325 549 b 658 374 583 549 658 475 b 375 78 658 219 529 78 z "},"ợ":{"ha":853,"x_min":0,"x_max":0,"o":"m 496 646 b 72 251 249 646 72 457 b 358 -21 72 96 183 -21 b 781 371 604 -21 781 164 b 672 568 781 453 738 518 l 678 575 b 717 572 690 574 704 572 b 954 801 850 572 897 618 l 842 801 b 669 646 801 672 775 646 z m 375 78 b 194 254 269 78 194 150 b 481 549 194 407 325 549 b 658 374 583 549 658 475 b 375 78 658 219 529 78 z m 275 -303 b 381 -197 338 -303 381 -260 b 306 -139 381 -158 353 -139 b 200 -246 242 -139 200 -192 b 275 -303 200 -287 231 -303 z "},"ŕ":{"ha":853,"x_min":0,"x_max":0,"o":"m 424 815 l 460 751 l 824 954 l 778 1036 z m 11 100 l -18 0 l 476 0 l 506 100 l 299 100 l 360 314 b 715 524 569 504 593 515 l 826 529 l 833 651 l 739 647 b 386 424 617 642 575 619 l 442 646 l 196 646 l 167 546 l 307 546 l 179 100 z "},"ř":{"ha":853,"x_min":0,"x_max":0,"o":"m 349 996 l 513 751 l 574 751 l 860 982 l 821 1036 l 561 853 l 406 1036 z m 11 100 l -18 0 l 476 0 l 506 100 l 299 100 l 360 314 b 715 524 569 504 593 515 l 826 529 l 833 651 l 739 647 b 386 424 617 642 575 619 l 442 646 l 196 646 l 167 546 l 307 546 l 179 100 z "},"ṙ":{"ha":853,"x_min":0,"x_max":0,"o":"m 554 779 b 660 886 617 779 660 822 b 585 943 660 925 632 943 b 479 838 521 943 479 890 b 554 779 479 796 511 779 z m 11 100 l -18 0 l 476 0 l 506 100 l 299 100 l 360 314 b 715 524 569 504 593 515 l 826 529 l 833 651 l 739 647 b 386 424 617 642 575 619 l 442 646 l 196 646 l 167 546 l 307 546 l 179 100 z "},"ṝ":{"ha":853,"x_min":0,"x_max":0,"o":"m 324 807 l 785 807 l 811 897 l 350 897 z m 11 100 l -18 0 l 476 0 l 506 100 l 299 100 l 360 314 b 715 524 569 504 593 515 l 826 529 l 833 651 l 739 647 b 386 424 617 642 575 619 l 442 646 l 196 646 l 167 546 l 307 546 l 179 100 z m 164 -296 b 269 -190 226 -296 269 -253 b 194 -132 269 -151 242 -132 b 89 -239 131 -132 89 -185 b 164 -296 89 -281 119 -296 z "},"ŗ":{"ha":853,"x_min":0,"x_max":0,"o":"m 11 100 l -18 0 l 476 0 l 506 100 l 299 100 l 360 314 b 715 524 569 504 593 515 l 826 529 l 833 651 l 739 647 b 386 424 617 642 575 619 l 442 646 l 196 646 l 167 546 l 307 546 l 179 100 z m -6 -411 b 325 -233 251 -389 325 -315 b 103 -104 325 -175 272 -129 l 35 -161 l 35 -165 b 214 -242 182 -189 214 -214 b -11 -346 214 -279 175 -319 l -12 -347 z "},"ṛ":{"ha":853,"x_min":0,"x_max":0,"o":"m 11 100 l -18 0 l 476 0 l 506 100 l 299 100 l 360 314 b 715 524 569 504 593 515 l 826 529 l 833 651 l 739 647 b 386 424 617 642 575 619 l 442 646 l 196 646 l 167 546 l 307 546 l 179 100 z m 164 -296 b 269 -190 226 -296 269 -253 b 194 -132 269 -151 242 -132 b 89 -239 131 -132 89 -185 b 164 -296 89 -281 119 -296 z "},"ṟ":{"ha":853,"x_min":0,"x_max":0,"o":"m 11 100 l -18 0 l 476 0 l 506 100 l 299 100 l 360 314 b 715 524 569 504 593 515 l 826 529 l 833 651 l 739 647 b 386 424 617 642 575 619 l 442 646 l 196 646 l 167 546 l 307 546 l 179 100 z m -65 -251 l 397 -251 l 424 -161 l -39 -161 z "},"ś":{"ha":853,"x_min":0,"x_max":0,"o":"m 456 822 l 492 758 l 856 961 l 810 1043 z m 685 176 b 499 363 685 263 653 296 l 408 401 b 311 492 328 438 311 451 b 481 563 311 533 347 563 b 749 522 549 563 640 551 l 778 621 b 483 660 672 647 558 660 b 189 483 274 660 189 589 b 374 300 189 408 219 364 l 465 261 b 564 167 546 226 564 207 b 385 83 564 119 519 83 b 75 129 303 83 199 96 l 47 28 b 381 -15 178 -3 268 -15 b 685 176 592 -15 685 67 z "},"ŝ":{"ha":853,"x_min":0,"x_max":0,"o":"m 321 806 l 361 751 l 621 936 l 775 751 l 833 793 l 668 1036 l 607 1036 z m 685 176 b 499 363 685 263 653 296 l 408 401 b 311 492 328 438 311 451 b 481 563 311 533 347 563 b 749 522 549 563 640 551 l 778 621 b 483 660 672 647 558 660 b 189 483 274 660 189 589 b 374 300 189 408 219 364 l 465 261 b 564 167 546 226 564 207 b 385 83 564 119 519 83 b 75 129 303 83 199 96 l 47 28 b 381 -15 178 -3 268 -15 b 685 176 592 -15 685 67 z "},"š":{"ha":853,"x_min":0,"x_max":0,"o":"m 381 1003 l 544 758 l 606 758 l 892 989 l 853 1043 l 593 860 l 438 1043 z m 685 176 b 499 363 685 263 653 296 l 408 401 b 311 492 328 438 311 451 b 481 563 311 533 347 563 b 749 522 549 563 640 551 l 778 621 b 483 660 672 647 558 660 b 189 483 274 660 189 589 b 374 300 189 408 219 364 l 465 261 b 564 167 546 226 564 207 b 385 83 564 119 519 83 b 75 129 303 83 199 96 l 47 28 b 381 -15 178 -3 268 -15 b 685 176 592 -15 685 67 z "},"ș":{"ha":853,"x_min":0,"x_max":0,"o":"m 685 176 b 499 363 685 263 653 296 l 408 401 b 311 492 328 438 311 451 b 481 563 311 533 347 563 b 749 522 549 563 640 551 l 778 621 b 483 660 672 647 558 660 b 189 483 274 660 189 589 b 374 300 189 408 219 364 l 465 261 b 564 167 546 226 564 207 b 385 83 564 119 519 83 b 75 129 303 83 199 96 l 47 28 b 381 -15 178 -3 268 -15 b 685 176 592 -15 685 67 z m 75 -418 b 406 -240 332 -396 406 -322 b 183 -111 406 -182 353 -136 l 115 -168 l 115 -172 b 294 -249 263 -196 294 -221 b 69 -353 294 -286 256 -326 l 68 -354 z "},"ṣ":{"ha":853,"x_min":0,"x_max":0,"o":"m 685 176 b 499 363 685 263 653 296 l 408 401 b 311 492 328 438 311 451 b 481 563 311 533 347 563 b 749 522 549 563 640 551 l 778 621 b 483 660 672 647 558 660 b 189 483 274 660 189 589 b 374 300 189 408 219 364 l 465 261 b 564 167 546 226 564 207 b 385 83 564 119 519 83 b 75 129 303 83 199 96 l 47 28 b 381 -15 178 -3 268 -15 b 685 176 592 -15 685 67 z m 244 -303 b 350 -197 307 -303 350 -260 b 275 -139 350 -158 322 -139 b 169 -246 211 -139 169 -192 b 244 -303 169 -287 200 -303 z "},"ş":{"ha":853,"x_min":0,"x_max":0,"o":"m 685 176 b 499 363 685 263 653 296 l 408 401 b 311 492 328 438 311 451 b 481 563 311 533 347 563 b 749 522 549 563 640 551 l 778 621 b 483 660 672 647 558 660 b 189 483 274 660 189 589 b 374 300 189 408 219 364 l 465 261 b 564 167 546 226 564 207 b 385 83 564 119 519 83 b 75 129 303 83 199 96 l 47 28 b 285 -12 139 6 211 -7 l 203 -142 l 207 -156 b 385 -215 353 -169 385 -185 b 83 -300 385 -256 360 -276 l 83 -375 b 488 -206 457 -342 488 -287 b 307 -90 488 -146 457 -114 l 353 -15 l 381 -15 b 685 176 592 -15 685 67 z "},"ß":{"ha":853,"x_min":0,"x_max":0,"o":"m 490 104 l 371 94 l 371 -7 l 479 0 b 753 233 688 13 753 106 b 601 493 753 299 719 368 b 864 826 843 676 864 743 b 622 1007 864 926 788 1007 b 231 686 418 1007 290 896 l 35 0 l 153 0 l 346 674 b 617 907 388 819 483 907 b 739 815 696 907 739 871 b 486 525 739 747 719 708 l 472 476 b 629 236 596 347 629 285 b 490 104 629 160 588 111 z "},"ť":{"ha":853,"x_min":0,"x_max":0,"o":"m 743 783 l 821 783 l 950 1094 l 832 1094 z m 408 318 l 493 546 l 767 546 l 794 646 l 531 646 l 619 886 l 504 886 l 413 646 l 174 646 l 144 546 l 374 546 l 293 332 b 254 171 260 242 254 200 b 483 -4 254 63 325 1 l 631 -10 l 658 93 l 489 103 b 378 192 413 107 378 135 b 408 318 378 215 383 251 z "},"ṱ":{"ha":853,"x_min":0,"x_max":0,"o":"m 408 318 l 493 546 l 767 546 l 794 646 l 531 646 l 619 886 l 504 886 l 413 646 l 174 646 l 144 546 l 374 546 l 293 332 b 254 171 260 242 254 200 b 483 -4 254 63 325 1 l 631 -10 l 658 93 l 489 103 b 378 192 413 107 378 135 b 408 318 378 215 383 251 z m 514 -349 l 350 -104 l 289 -104 l 3 -335 l 42 -389 l 301 -206 l 456 -389 z "},"ț":{"ha":853,"x_min":0,"x_max":0,"o":"m 408 318 l 493 546 l 767 546 l 794 646 l 531 646 l 619 886 l 504 886 l 413 646 l 174 646 l 144 546 l 374 546 l 293 332 b 254 171 260 242 254 200 b 483 -4 254 63 325 1 l 631 -10 l 658 93 l 489 103 b 378 192 413 107 378 135 b 408 318 378 215 383 251 z m 118 -411 b 449 -233 375 -389 449 -315 b 226 -104 449 -175 396 -129 l 158 -161 l 158 -165 b 338 -242 306 -189 338 -214 b 113 -346 338 -279 299 -319 l 111 -347 z "},"ṭ":{"ha":853,"x_min":0,"x_max":0,"o":"m 408 318 l 493 546 l 767 546 l 794 646 l 531 646 l 619 886 l 504 886 l 413 646 l 174 646 l 144 546 l 374 546 l 293 332 b 254 171 260 242 254 200 b 483 -4 254 63 325 1 l 631 -10 l 658 93 l 489 103 b 378 192 413 107 378 135 b 408 318 378 215 383 251 z m 288 -296 b 393 -190 350 -296 393 -253 b 318 -132 393 -151 365 -132 b 213 -239 254 -132 213 -185 b 288 -296 213 -281 243 -296 z "},"ṯ":{"ha":853,"x_min":0,"x_max":0,"o":"m 408 318 l 493 546 l 767 546 l 794 646 l 531 646 l 619 886 l 504 886 l 413 646 l 174 646 l 144 546 l 374 546 l 293 332 b 254 171 260 242 254 200 b 483 -4 254 63 325 1 l 631 -10 l 658 93 l 489 103 b 378 192 413 107 378 135 b 408 318 378 215 383 251 z m 58 -251 l 521 -251 l 547 -161 l 85 -161 z "},"ţ":{"ha":853,"x_min":0,"x_max":0,"o":"m 336 28 l 233 -135 l 238 -149 b 417 -208 383 -162 417 -178 b 114 -293 417 -249 390 -269 l 114 -368 b 518 -199 488 -335 518 -281 b 338 -83 518 -140 489 -107 l 392 7 b 483 -4 418 1 449 -3 l 631 -10 l 658 93 l 489 103 b 378 192 413 107 378 135 b 408 318 378 215 383 251 l 493 546 l 767 546 l 794 646 l 531 646 l 619 886 l 504 886 l 413 646 l 174 646 l 144 546 l 374 546 l 293 332 b 254 171 260 242 254 200 b 336 28 254 106 281 57 z "},"ŧ":{"ha":853,"x_min":0,"x_max":0,"o":"m 138 301 l 282 301 b 254 171 258 232 254 196 b 483 -4 254 63 325 1 l 631 -10 l 658 88 l 488 99 b 376 190 411 103 376 131 b 403 301 376 211 382 242 l 632 301 l 654 381 l 432 381 l 494 550 l 768 550 l 794 646 l 531 646 l 619 886 l 504 886 l 413 646 l 174 646 l 146 550 l 375 550 l 311 381 l 160 381 z "},"ú":{"ha":853,"x_min":0,"x_max":0,"o":"m 432 803 l 468 739 l 832 942 l 786 1024 z m 517 0 l 628 0 l 814 646 l 694 646 l 604 329 b 281 99 392 125 342 99 b 208 161 236 99 208 121 b 222 238 208 176 211 196 l 340 646 l 221 646 l 103 233 b 82 124 86 178 82 147 b 232 -10 82 42 142 -10 b 567 188 324 -10 390 19 z "},"ű":{"ha":853,"x_min":0,"x_max":0,"o":"m 324 799 l 371 751 l 606 969 l 533 1031 z m 639 799 l 686 751 l 919 969 l 849 1031 z m 517 0 l 628 0 l 814 646 l 694 646 l 604 329 b 281 99 392 125 342 99 b 208 161 236 99 208 121 b 222 238 208 176 211 196 l 340 646 l 221 646 l 103 233 b 82 124 86 178 82 147 b 232 -10 82 42 142 -10 b 567 188 324 -10 390 19 z "},"ù":{"ha":853,"x_min":0,"x_max":0,"o":"m 675 794 l 447 1015 l 376 940 l 625 739 z m 517 0 l 628 0 l 814 646 l 694 646 l 604 329 b 281 99 392 125 342 99 b 208 161 236 99 208 121 b 222 238 208 176 211 196 l 340 646 l 221 646 l 103 233 b 82 124 86 178 82 147 b 232 -10 82 42 142 -10 b 567 188 324 -10 390 19 z "},"û":{"ha":853,"x_min":0,"x_max":0,"o":"m 303 806 l 343 751 l 603 936 l 757 751 l 815 793 l 650 1036 l 589 1036 z m 517 0 l 628 0 l 814 646 l 694 646 l 604 329 b 281 99 392 125 342 99 b 208 161 236 99 208 121 b 222 238 208 176 211 196 l 340 646 l 221 646 l 103 233 b 82 124 86 178 82 147 b 232 -10 82 42 142 -10 b 567 188 324 -10 390 19 z "},"ǔ":{"ha":853,"x_min":0,"x_max":0,"o":"m 357 983 l 521 739 l 582 739 l 868 969 l 829 1024 l 569 840 l 414 1024 z m 517 0 l 628 0 l 814 646 l 694 646 l 604 329 b 281 99 392 125 342 99 b 208 161 236 99 208 121 b 222 238 208 176 211 196 l 340 646 l 221 646 l 103 233 b 82 124 86 178 82 147 b 232 -10 82 42 142 -10 b 567 188 324 -10 390 19 z "},"ŭ":{"ha":853,"x_min":0,"x_max":0,"o":"m 569 840 b 442 1025 488 840 449 893 l 367 1004 b 563 751 367 824 435 751 b 881 996 689 751 782 819 l 803 1025 b 569 840 721 894 651 840 z m 517 0 l 628 0 l 814 646 l 694 646 l 604 329 b 281 99 392 125 342 99 b 208 161 236 99 208 121 b 222 238 208 176 211 196 l 340 646 l 221 646 l 103 233 b 82 124 86 178 82 147 b 232 -10 82 42 142 -10 b 567 188 324 -10 390 19 z "},"ũ":{"ha":853,"x_min":0,"x_max":0,"o":"m 553 849 b 667 751 607 767 635 751 b 892 986 718 751 761 778 l 821 1022 b 681 850 721 868 701 850 b 614 922 665 850 656 860 b 500 1019 560 1006 532 1019 b 276 788 449 1019 407 994 l 346 749 b 486 922 446 904 465 922 b 553 849 501 922 511 913 z m 517 0 l 628 0 l 814 646 l 694 646 l 604 329 b 281 99 392 125 342 99 b 208 161 236 99 208 121 b 222 238 208 176 211 196 l 340 646 l 221 646 l 103 233 b 82 124 86 178 82 147 b 232 -10 82 42 142 -10 b 567 188 324 -10 390 19 z "},"ū":{"ha":853,"x_min":0,"x_max":0,"o":"m 335 807 l 796 807 l 822 897 l 361 897 z m 517 0 l 628 0 l 814 646 l 694 646 l 604 329 b 281 99 392 125 342 99 b 208 161 236 99 208 121 b 222 238 208 176 211 196 l 340 646 l 221 646 l 103 233 b 82 124 86 178 82 147 b 232 -10 82 42 142 -10 b 567 188 324 -10 390 19 z "},"ü":{"ha":853,"x_min":0,"x_max":0,"o":"m 401 779 b 503 881 467 779 503 826 b 432 936 503 919 472 936 b 331 835 371 936 331 885 b 401 779 331 800 353 779 z m 728 779 b 828 881 788 779 828 822 b 758 936 828 915 801 936 b 657 835 701 936 657 889 b 728 779 657 799 682 779 z m 517 0 l 628 0 l 814 646 l 694 646 l 604 329 b 281 99 392 125 342 99 b 208 161 236 99 208 121 b 222 238 208 176 211 196 l 340 646 l 221 646 l 103 233 b 82 124 86 178 82 147 b 232 -10 82 42 142 -10 b 567 188 324 -10 390 19 z "},"ǘ":{"ha":853,"x_min":0,"x_max":0,"o":"m 532 975 l 901 1139 l 867 1225 l 500 1040 z m 401 779 b 500 871 464 779 500 822 b 432 921 500 907 471 921 b 333 829 374 921 333 876 b 401 779 333 799 356 779 z m 728 779 b 825 871 786 779 825 818 b 758 921 825 903 800 921 b 660 829 703 921 660 881 b 728 779 660 797 683 779 z m 517 0 l 628 0 l 814 646 l 694 646 l 604 329 b 281 99 392 125 342 99 b 208 161 236 99 208 121 b 222 238 208 176 211 196 l 340 646 l 221 646 l 103 233 b 82 124 86 178 82 147 b 232 -10 82 42 142 -10 b 567 188 324 -10 390 19 z "},"ǜ":{"ha":853,"x_min":0,"x_max":0,"o":"m 738 1033 l 476 1219 l 418 1142 l 696 975 z m 401 779 b 500 871 464 779 500 822 b 432 921 500 907 471 921 b 333 829 374 921 333 876 b 401 779 333 799 356 779 z m 728 779 b 825 871 786 779 825 818 b 758 921 825 903 800 921 b 660 829 703 921 660 881 b 728 779 660 797 683 779 z m 517 0 l 628 0 l 814 646 l 694 646 l 604 329 b 281 99 392 125 342 99 b 208 161 236 99 208 121 b 222 238 208 176 211 196 l 340 646 l 221 646 l 103 233 b 82 124 86 178 82 147 b 232 -10 82 42 142 -10 b 567 188 324 -10 390 19 z "},"ǚ":{"ha":853,"x_min":0,"x_max":0,"o":"m 435 1206 l 607 982 l 658 982 l 936 1194 l 900 1249 l 643 1082 l 485 1249 z m 401 779 b 500 871 464 779 500 822 b 432 921 500 907 471 921 b 333 829 374 921 333 876 b 401 779 333 799 356 779 z m 728 779 b 825 871 786 779 825 818 b 758 921 825 903 800 921 b 660 829 703 921 660 881 b 728 779 660 797 683 779 z m 517 0 l 628 0 l 814 646 l 694 646 l 604 329 b 281 99 392 125 342 99 b 208 161 236 99 208 121 b 222 238 208 176 211 196 l 340 646 l 221 646 l 103 233 b 82 124 86 178 82 147 b 232 -10 82 42 142 -10 b 567 188 324 -10 390 19 z "},"ǖ":{"ha":853,"x_min":0,"x_max":0,"o":"m 417 1024 l 839 1024 l 865 1113 l 442 1113 z m 401 779 b 500 871 464 779 500 822 b 432 921 500 907 471 921 b 333 829 374 921 333 876 b 401 779 333 799 356 779 z m 728 779 b 825 871 786 779 825 818 b 758 921 825 903 800 921 b 660 829 703 921 660 881 b 728 779 660 797 683 779 z m 517 0 l 628 0 l 814 646 l 694 646 l 604 329 b 281 99 392 125 342 99 b 208 161 236 99 208 121 b 222 238 208 176 211 196 l 340 646 l 221 646 l 103 233 b 82 124 86 178 82 147 b 232 -10 82 42 142 -10 b 567 188 324 -10 390 19 z "},"ů":{"ha":853,"x_min":0,"x_max":0,"o":"m 626 1085 b 390 882 482 1085 390 990 b 569 739 390 788 468 739 b 806 942 715 739 806 833 b 626 1085 806 1036 728 1085 z m 588 815 b 475 886 515 815 475 838 b 610 1008 475 954 531 1008 b 721 938 681 1008 721 986 b 588 815 721 869 665 815 z m 517 0 l 628 0 l 814 646 l 694 646 l 604 329 b 281 99 392 125 342 99 b 208 161 236 99 208 121 b 222 238 208 176 211 196 l 340 646 l 221 646 l 103 233 b 82 124 86 178 82 147 b 232 -10 82 42 142 -10 b 567 188 324 -10 390 19 z "},"ủ":{"ha":853,"x_min":0,"x_max":0,"o":"m 417 739 b 747 917 674 761 747 835 b 524 1046 747 975 694 1021 l 457 989 l 457 985 b 636 910 603 961 636 936 b 411 804 636 871 597 831 l 410 803 z m 517 0 l 628 0 l 814 646 l 694 646 l 604 329 b 281 99 392 125 342 99 b 208 161 236 99 208 121 b 222 238 208 176 211 196 l 340 646 l 221 646 l 103 233 b 82 124 86 178 82 147 b 232 -10 82 42 142 -10 b 567 188 324 -10 390 19 z "}}}
